SplineFontDB: 3.0
FontName: Monacal-BoldItalic
FullName: Monacal Bold Italic
FamilyName: Monacal
Weight: Bold
Copyright: Copyright (c) 2012 Fontstage (info@fontstage.com), with Reserved Font Names, 'Monacal'
Version: 1.001
ItalicAngle: -14
UnderlinePosition: -195
UnderlineWidth: 102
Ascent: 1638
Descent: 410
sfntRevision: 0x00010042
LayerCount: 2
Layer: 0 1 "Back"  1
Layer: 1 1 "Fore"  0
XUID: [1021 236 822833583 16332195]
FSType: 0
OS2Version: 3
OS2_WeightWidthSlopeOnly: 0
OS2_UseTypoMetrics: 1
CreationTime: 1337871660
ModificationTime: 1354984375
PfmFamily: 17
TTFWeight: 700
TTFWidth: 5
LineGap: 0
VLineGap: 0
Panose: 2 0 5 6 0 0 0 9 0 3
OS2TypoAscent: 1411
OS2TypoAOffset: 0
OS2TypoDescent: -530
OS2TypoDOffset: 0
OS2TypoLinegap: 250
OS2WinAscent: 1618
OS2WinAOffset: 0
OS2WinDescent: 621
OS2WinDOffset: 0
HheadAscent: 1618
HheadAOffset: 0
HheadDescent: -621
HheadDOffset: 0
OS2SubXSize: 1331
OS2SubYSize: 1228
OS2SubXOff: -38
OS2SubYOff: 153
OS2SupXSize: 1331
OS2SupYSize: 1228
OS2SupXOff: 179
OS2SupYOff: 716
OS2StrikeYSize: 102
OS2StrikeYPos: 532
OS2CodePages: 20000093.00000000
OS2UnicodeRanges: a00000af.500020fb.00000000.00000000
DEI: 91125
TtTable: prep
PUSHW_1
 511
SCANCTRL
PUSHB_1
 4
SCANTYPE
EndTTInstrs
ShortTable: maxp 16
  1
  0
  415
  126
  6
  0
  0
  2
  0
  1
  1
  0
  64
  0
  0
  0
EndShort
LangName: 1033 "" "" "Bold Italic" "Fontstage: Monacal Bold Italic: 2012" "" "Version 1.001" "" "Monacal is a trademark of Fontstage." "Fontstage" "Fontstage" "" "http://www.fontstage.com" "http://www.fontstage.com" "This Font Software is licensed under the SIL Open Font License, Version 1.1. This license is available with a FAQ at: http://scripts.sil.org/OFL" "http://scripts.sil.org/OFL" 
GaspTable: 1 65535 15 1
Encoding: UnicodeBmp
UnicodeInterp: none
NameList: AGL For New Fonts
DisplaySize: -24
AntiAlias: 1
FitToEm: 1
BeginChars: 65544 415

StartChar: .notdef
Encoding: 65536 -1 0
Width: 1536
Flags: W
LayerCount: 2
Fore
SplineSet
287 38 m 1,0,-1
 287 1242 l 1,1,-1
 1249 1242 l 1,2,-1
 1249 38 l 1,3,-1
 287 38 l 1,0,-1
317 68 m 1,4,-1
 1219 68 l 1,5,-1
 1219 1212 l 1,6,-1
 317 1212 l 1,7,-1
 317 68 l 1,4,-1
EndSplineSet
EndChar

StartChar: exclam
Encoding: 33 33 4
Width: 573
GlyphClass: 2
Flags: W
LayerCount: 2
Fore
SplineSet
440 347 m 1,0,-1
 355 347 l 1,1,2
 492 850 492 850 628 1421 c 1,3,-1
 847 1464 l 1,4,-1
 440 347 l 1,0,-1
304 -20 m 0,5,6
 265 -20 265 -20 238 12.5 c 128,-1,7
 211 45 211 45 211 93.5 c 128,-1,8
 211 142 211 142 255.5 194 c 128,-1,9
 300 246 300 246 347.5 246 c 128,-1,10
 395 246 395 246 423 213 c 128,-1,11
 451 180 451 180 451 129.5 c 128,-1,12
 451 79 451 79 406 29.5 c 128,-1,13
 361 -20 361 -20 304 -20 c 0,5,6
EndSplineSet
EndChar

StartChar: quotedbl
Encoding: 34 34 5
Width: 545
GlyphClass: 2
Flags: W
LayerCount: 2
Fore
SplineSet
422 1454 m 1,0,-1
 550 1427 l 1,1,2
 465 1193 465 1193 349 1009 c 1,3,-1
 312 1009 l 1,4,5
 363 1302 363 1302 422 1454 c 1,0,-1
712 1454 m 1,6,-1
 840 1427 l 1,7,8
 755 1193 755 1193 639 1009 c 1,9,-1
 602 1009 l 1,10,11
 653 1302 653 1302 712 1454 c 1,6,-1
EndSplineSet
EndChar

StartChar: numbersign
Encoding: 35 35 6
Width: 1253
GlyphClass: 2
Flags: W
LayerCount: 2
Fore
SplineSet
789 741 m 1,0,-1
 742 412 l 1,1,-1
 948 412 l 1,2,-1
 992 741 l 1,3,-1
 789 741 l 1,0,-1
1175 1231 m 1,4,-1
 1124 863 l 1,5,-1
 1420 863 l 1,6,-1
 1300 741 l 1,7,-1
 1108 741 l 1,8,-1
 1061 412 l 1,9,-1
 1388 412 l 1,10,-1
 1268 290 l 1,11,-1
 1046 290 l 1,12,13
 1044 273 1044 273 1034 198 c 0,14,15
 1021 105 1021 105 1001 -39 c 1,16,-1
 869 -160 l 1,17,-1
 931 290 l 1,18,-1
 727 290 l 1,19,-1
 682 -39 l 1,20,-1
 548 -159 l 1,21,-1
 610 290 l 1,22,-1
 332 290 l 1,23,-1
 452 412 l 1,24,-1
 628 412 l 1,25,-1
 672 741 l 1,26,-1
 332 741 l 1,27,-1
 452 863 l 1,28,-1
 689 863 l 1,29,-1
 722 1108 l 1,30,-1
 856 1230 l 1,31,-1
 805 863 l 1,32,-1
 1010 863 l 1,33,-1
 1043 1108 l 1,34,-1
 1175 1231 l 1,4,-1
EndSplineSet
EndChar

StartChar: dollar
Encoding: 36 36 7
Width: 874
GlyphClass: 2
Flags: W
LayerCount: 2
Fore
SplineSet
398 -19 m 1,0,-1
 361 -20 l 1,1,2
 209 -20 209 -20 120 51 c 128,-1,3
 31 122 31 122 31 243 c 0,4,5
 31 326 31 326 78 401.5 c 128,-1,6
 125 477 125 477 207 477 c 0,7,8
 265 477 265 477 293 416 c 1,9,10
 208 366 208 366 208 242 c 0,11,12
 208 157 208 157 260.5 102 c 128,-1,13
 313 47 313 47 402 47 c 2,14,-1
 413 47 l 1,15,-1
 535 570 l 1,16,17
 493 611 493 611 471 632.5 c 128,-1,18
 449 654 449 654 414 695.5 c 128,-1,19
 379 737 379 737 362 769 c 0,20,21
 316 852 316 852 316 934 c 0,22,23
 316 1089 316 1089 428.5 1192.5 c 128,-1,24
 541 1296 541 1296 710 1325 c 1,25,-1
 740 1455 l 1,26,-1
 817 1455 l 1,27,-1
 788 1331 l 1,28,-1
 802 1332 l 1,29,30
 911 1332 911 1332 979 1298 c 128,-1,31
 1047 1264 1047 1264 1047 1203 c 0,32,33
 1047 1107 1047 1107 926 1033 c 1,34,35
 903 1129 903 1129 868 1187.5 c 128,-1,36
 833 1246 833 1246 771 1258 c 1,37,-1
 665 801 l 1,38,39
 813 681 813 681 858 610 c 1,40,41
 907 530 907 530 907 447 c 0,42,43
 907 278 907 278 784 154.5 c 128,-1,44
 661 31 661 31 478 -9 c 1,45,-1
 443 -158 l 1,46,-1
 366 -158 l 1,47,-1
 398 -19 l 1,0,-1
637.5 152 m 128,-1,49
 694 225 694 225 694 315 c 128,-1,50
 694 405 694 405 597 507 c 1,51,-1
 493 57 l 1,52,48
 581 79 581 79 637.5 152 c 128,-1,49
558.5 1190.5 m 128,-1,54
 509 1135 509 1135 509 1044 c 128,-1,55
 509 953 509 953 601 859 c 1,56,-1
 694 1258 l 1,57,53
 608 1246 608 1246 558.5 1190.5 c 128,-1,54
EndSplineSet
EndChar

StartChar: percent
Encoding: 37 37 8
Width: 1403
GlyphClass: 2
Flags: W
LayerCount: 2
Fore
SplineSet
1625 1474 m 1,0,-1
 231 0 l 1,1,-1
 92 0 l 1,2,-1
 1485 1474 l 1,3,-1
 1625 1474 l 1,0,-1
694 1428 m 0,4,5
 635 1428 635 1428 582.5 1383 c 128,-1,6
 530 1338 530 1338 495 1270 c 128,-1,7
 460 1202 460 1202 440 1124 c 128,-1,8
 420 1046 420 1046 420 977 c 0,9,10
 420 838 420 838 515 838 c 0,11,12
 592 838 592 838 656 916 c 128,-1,13
 720 994 720 994 752 1101.5 c 128,-1,14
 784 1209 784 1209 784 1312 c 0,15,16
 784 1428 784 1428 694 1428 c 0,4,5
741 1470 m 0,17,18
 859 1470 859 1470 914.5 1420.5 c 128,-1,19
 970 1371 970 1371 970 1288 c 0,20,21
 970 1166 970 1166 893 1049 c 128,-1,22
 816 932 816 932 694 860 c 128,-1,23
 572 788 572 788 456.5 788 c 128,-1,24
 341 788 341 788 291 838 c 128,-1,25
 241 888 241 888 241 975 c 128,-1,26
 241 1062 241 1062 284.5 1153.5 c 128,-1,27
 328 1245 328 1245 397.5 1314 c 128,-1,28
 467 1383 467 1383 558.5 1426.5 c 128,-1,29
 650 1470 650 1470 741 1470 c 0,17,18
1230 622 m 0,30,31
 1171 622 1171 622 1118.5 577 c 128,-1,32
 1066 532 1066 532 1031 464 c 128,-1,33
 996 396 996 396 976 318 c 128,-1,34
 956 240 956 240 956 171 c 0,35,36
 956 32 956 32 1051 32 c 0,37,38
 1128 32 1128 32 1192 110 c 128,-1,39
 1256 188 1256 188 1288 295.5 c 128,-1,40
 1320 403 1320 403 1320 506 c 0,41,42
 1320 622 1320 622 1230 622 c 0,30,31
1277 664 m 0,43,44
 1395 664 1395 664 1450.5 614.5 c 128,-1,45
 1506 565 1506 565 1506 482 c 0,46,47
 1506 360 1506 360 1429 243 c 128,-1,48
 1352 126 1352 126 1230 54 c 128,-1,49
 1108 -18 1108 -18 992.5 -18 c 128,-1,50
 877 -18 877 -18 827 32 c 128,-1,51
 777 82 777 82 777 169 c 128,-1,52
 777 256 777 256 820.5 347.5 c 128,-1,53
 864 439 864 439 933.5 508 c 128,-1,54
 1003 577 1003 577 1094.5 620.5 c 128,-1,55
 1186 664 1186 664 1277 664 c 0,43,44
EndSplineSet
EndChar

StartChar: ampersand
Encoding: 38 38 9
Width: 1530
GlyphClass: 2
Flags: W
LayerCount: 2
Fore
SplineSet
956 859 m 1,0,1
 1121 873 1121 873 1404.5 873 c 128,-1,2
 1688 873 1688 873 1763 872 c 1,3,4
 1754 816 1754 816 1726 781 c 1,5,-1
 1387 781 l 1,6,7
 1261 452 1261 452 1261 269 c 0,8,9
 1261 196 1261 196 1280.5 153 c 128,-1,10
 1300 110 1300 110 1330 110 c 0,11,12
 1378 110 1378 110 1456 165 c 128,-1,13
 1534 220 1534 220 1614 300 c 1,14,-1
 1633 285 l 1,15,16
 1579 218 1579 218 1532 169 c 128,-1,17
 1485 120 1485 120 1426 75 c 0,18,19
 1305 -17 1305 -17 1164 -17 c 0,20,21
 1121 -17 1121 -17 1076 34.5 c 128,-1,22
 1031 86 1031 86 1026 193 c 1,23,24
 941 101 941 101 835 42 c 128,-1,25
 729 -17 729 -17 633 -17 c 0,26,27
 464 -17 464 -17 376.5 68.5 c 128,-1,28
 289 154 289 154 289 320 c 0,29,30
 289 454 289 454 335.5 599.5 c 128,-1,31
 382 745 382 745 465 873 c 128,-1,32
 548 1001 548 1001 653 1104.5 c 128,-1,33
 758 1208 758 1208 885 1268.5 c 128,-1,34
 1012 1329 1012 1329 1136 1329 c 0,35,36
 1215 1329 1215 1329 1259 1294.5 c 128,-1,37
 1303 1260 1303 1260 1303 1198 c 0,38,39
 1303 1112 1303 1112 1246 1048 c 1,40,41
 1184 981 1184 981 1112 940 c 1,42,43
 1034 897 1034 897 957 863 c 1,44,-1
 956 859 l 1,0,1
716 90 m 0,45,46
 777 90 777 90 870 136 c 128,-1,47
 963 182 963 182 1027 246 c 1,48,49
 1056 525 1056 525 1176 779 c 1,50,51
 847 779 847 779 621 749 c 1,52,53
 552 577 552 577 552 350 c 0,54,55
 552 222 552 222 594 156 c 128,-1,56
 636 90 636 90 716 90 c 0,45,46
1043 1224 m 0,57,58
 933 1224 933 1224 818.5 1099.5 c 128,-1,59
 704 975 704 975 641 801 c 1,60,61
 759 823 759 823 866.5 871 c 128,-1,62
 974 919 974 919 1046 992 c 128,-1,63
 1118 1065 1118 1065 1118 1142 c 0,64,65
 1118 1180 1118 1180 1099 1202 c 128,-1,66
 1080 1224 1080 1224 1043 1224 c 0,57,58
EndSplineSet
EndChar

StartChar: quotesingle
Encoding: 39 39 10
Width: 311
GlyphClass: 2
Flags: W
LayerCount: 2
Fore
SplineSet
445 1465 m 1,0,-1
 573 1438 l 1,1,2
 486 1200 486 1200 371 1020 c 1,3,-1
 334 1020 l 1,4,5
 388 1321 388 1321 445 1465 c 1,0,-1
EndSplineSet
EndChar

StartChar: parenleft
Encoding: 40 40 11
Width: 516
GlyphClass: 2
Flags: W
LayerCount: 2
Fore
SplineSet
231 391 m 0,0,1
 231 727 231 727 424.5 1052.5 c 128,-1,2
 618 1378 618 1378 924 1568 c 1,3,-1
 949 1518 l 1,4,5
 792 1391 792 1391 673.5 1187.5 c 128,-1,6
 555 984 555 984 495 760.5 c 128,-1,7
 435 537 435 537 435 325 c 0,8,9
 435 162 435 162 475.5 29 c 128,-1,10
 516 -104 516 -104 599 -186 c 1,11,-1
 561 -237 l 1,12,13
 231 -23 231 -23 231 391 c 0,0,1
EndSplineSet
EndChar

StartChar: parenright
Encoding: 41 41 12
Width: 442
GlyphClass: 2
Flags: W
LayerCount: 2
Fore
SplineSet
608 941 m 0,0,1
 608 718 608 718 520 492.5 c 128,-1,2
 432 267 432 267 275 77.5 c 128,-1,3
 118 -112 118 -112 -83 -237 c 1,4,-1
 -108 -187 l 1,5,6
 49 -59 49 -59 167.5 144.5 c 128,-1,7
 286 348 286 348 345.5 571 c 128,-1,8
 405 794 405 794 405 1006 c 0,9,10
 405 1169 405 1169 364.5 1302 c 128,-1,11
 324 1435 324 1435 241 1517 c 1,12,-1
 279 1568 l 1,13,14
 608 1355 608 1355 608 941 c 0,0,1
EndSplineSet
EndChar

StartChar: asterisk
Encoding: 42 42 13
Width: 817
GlyphClass: 2
Flags: W
LayerCount: 2
Fore
SplineSet
960 1408 m 1,0,1
 978 1376 978 1376 978 1323.5 c 128,-1,2
 978 1271 978 1271 970 1231 c 1,3,-1
 754 1156 l 1,4,5
 752 1152 752 1152 752 1151 c 0,6,7
 793 1123 793 1123 932 1023 c 1,8,9
 900 973 900 973 805 935 c 1,10,-1
 688 1061 l 1,11,-1
 652 877 l 1,12,13
 626 858 626 858 584 845.5 c 128,-1,14
 542 833 542 833 502 833 c 1,15,-1
 582 1069 l 1,16,-1
 371 971 l 1,17,-1
 330 1034 l 1,18,-1
 560 1157 l 1,19,-1
 565 1169 l 1,20,-1
 492 1225 l 2,21,22
 405 1292 405 1292 354 1333 c 1,23,24
 375 1360 375 1360 423 1384 c 128,-1,25
 471 1408 471 1408 505 1408 c 1,26,-1
 634 1257 l 1,27,-1
 652 1438 l 1,28,29
 683 1469 683 1469 730 1487 c 128,-1,30
 777 1505 777 1505 811 1505 c 1,31,-1
 731 1254 l 1,32,33
 760 1273 760 1273 795 1300 c 1,34,35
 862 1348 862 1348 960 1408 c 1,0,1
EndSplineSet
EndChar

StartChar: plus
Encoding: 43 43 14
Width: 1065
GlyphClass: 2
Flags: W
LayerCount: 2
Fore
SplineSet
822 1099 m 1,0,-1
 770 673 l 1,1,-1
 1208 673 l 1,2,-1
 1151 549 l 1,3,-1
 763 549 l 1,4,-1
 714 153 l 1,5,-1
 580 109 l 1,6,-1
 634 549 l 1,7,-1
 205 549 l 1,8,-1
 262 673 l 1,9,-1
 641 673 l 1,10,-1
 688 1055 l 1,11,-1
 822 1099 l 1,0,-1
EndSplineSet
EndChar

StartChar: comma
Encoding: 44 44 15
Width: 442
GlyphClass: 2
Flags: W
LayerCount: 2
Fore
SplineSet
250 169 m 128,-1,1
 290 211 290 211 334.5 211 c 128,-1,2
 379 211 379 211 409.5 172.5 c 128,-1,3
 440 134 440 134 440 84.5 c 128,-1,4
 440 35 440 35 411.5 -22.5 c 128,-1,5
 383 -80 383 -80 337 -131 c 0,6,7
 250 -227 250 -227 146 -298 c 1,8,-1
 131 -263 l 1,9,10
 213 -199 213 -199 250 -151.5 c 128,-1,11
 287 -104 287 -104 287 -61 c 0,12,13
 287 -42 287 -42 268 -19 c 128,-1,14
 249 4 249 4 229.5 30 c 128,-1,15
 210 56 210 56 210 83 c 0,16,0
 210 127 210 127 250 169 c 128,-1,1
EndSplineSet
EndChar

StartChar: hyphen
Encoding: 45 45 16
Width: 590
GlyphClass: 2
Flags: W
LayerCount: 2
Fore
SplineSet
257 533 m 1,0,1
 550 533 550 533 759 560 c 1,2,-1
 686 456 l 1,3,4
 478 431 478 431 189 431 c 1,5,-1
 257 533 l 1,0,1
EndSplineSet
EndChar

StartChar: period
Encoding: 46 46 17
Width: 444
GlyphClass: 2
Flags: W
LayerCount: 2
Fore
SplineSet
338 239 m 0,0,1
 377 239 377 239 404 206.5 c 128,-1,2
 431 174 431 174 431 125.5 c 128,-1,3
 431 77 431 77 386.5 25 c 128,-1,4
 342 -27 342 -27 294.5 -27 c 128,-1,5
 247 -27 247 -27 219 6 c 128,-1,6
 191 39 191 39 191 89.5 c 128,-1,7
 191 140 191 140 236 189.5 c 128,-1,8
 281 239 281 239 338 239 c 0,0,1
EndSplineSet
EndChar

StartChar: slash
Encoding: 47 47 18
Width: 627
GlyphClass: 2
Flags: W
LayerCount: 2
Fore
SplineSet
982 1474 m 1,0,-1
 222 -340 l 1,1,-1
 96 -340 l 1,2,-1
 855 1474 l 1,3,-1
 982 1474 l 1,0,-1
EndSplineSet
EndChar

StartChar: zero
Encoding: 48 48 19
Width: 885
GlyphClass: 2
Flags: W
LayerCount: 2
Fore
SplineSet
784 1185 m 0,0,1
 709 1185 709 1185 642 1100.5 c 128,-1,2
 575 1016 575 1016 531 887.5 c 128,-1,3
 487 759 487 759 461 612.5 c 128,-1,4
 435 466 435 466 435 336 c 0,5,6
 435 76 435 76 555 76 c 0,7,8
 630 76 630 76 696.5 162 c 128,-1,9
 763 248 763 248 806 381 c 128,-1,10
 849 514 849 514 873.5 669 c 128,-1,11
 898 824 898 824 898 967 c 0,12,13
 898 1185 898 1185 784 1185 c 0,0,1
843 1264 m 0,14,15
 994 1264 994 1264 1065 1171 c 128,-1,16
 1136 1078 1136 1078 1136 913.5 c 128,-1,17
 1136 749 1136 749 1077 576 c 128,-1,18
 1018 403 1018 403 925 273.5 c 128,-1,19
 832 144 832 144 710 62.5 c 128,-1,20
 588 -19 588 -19 461 -19 c 128,-1,21
 334 -19 334 -19 270.5 75.5 c 128,-1,22
 207 170 207 170 207 316 c 128,-1,23
 207 462 207 462 242.5 601.5 c 128,-1,24
 278 741 278 741 340 858 c 128,-1,25
 402 975 402 975 481.5 1067.5 c 128,-1,26
 561 1160 561 1160 655.5 1212 c 128,-1,27
 750 1264 750 1264 843 1264 c 0,14,15
EndSplineSet
EndChar

StartChar: one
Encoding: 49 49 20
Width: 885
GlyphClass: 2
Flags: W
LayerCount: 2
Fore
SplineSet
709 95 m 0,0,1
 709 66 709 66 737 61 c 1,2,3
 875 44 875 44 966 29 c 1,4,-1
 951 -10 l 1,5,6
 826 0 826 0 578 0 c 128,-1,7
 330 0 330 0 170 -15 c 1,8,-1
 177 17 l 1,9,10
 293 38 293 38 343.5 55.5 c 128,-1,11
 394 73 394 73 418 92 c 0,12,13
 472 134 472 134 494 209 c 0,14,15
 571 462 571 462 694 1043 c 1,16,-1
 417 964 l 1,17,-1
 408 994 l 1,18,19
 683 1124 683 1124 913 1280 c 1,20,-1
 988 1266 l 1,21,22
 946 1169 946 1169 890.5 958.5 c 128,-1,23
 835 748 835 748 772 446.5 c 128,-1,24
 709 145 709 145 709 95 c 0,0,1
EndSplineSet
EndChar

StartChar: two
Encoding: 50 50 21
Width: 885
GlyphClass: 2
Flags: W
LayerCount: 2
Fore
SplineSet
797 1073 m 128,-1,1
 749 1114 749 1114 676 1114 c 0,2,3
 576 1114 576 1114 490.5 1049 c 128,-1,4
 405 984 405 984 405 888 c 0,5,6
 405 846 405 846 426.5 824 c 128,-1,7
 448 802 448 802 486 802 c 128,-1,8
 524 802 524 802 565 831 c 1,9,-1
 583 807 l 1,10,11
 537 761 537 761 478.5 761 c 128,-1,12
 420 761 420 761 383 798.5 c 128,-1,13
 346 836 346 836 346 906 c 0,14,15
 346 1004 346 1004 421 1087.5 c 128,-1,16
 496 1171 496 1171 604.5 1216 c 128,-1,17
 713 1261 713 1261 827 1261 c 128,-1,18
 941 1261 941 1261 1017 1200.5 c 128,-1,19
 1093 1140 1093 1140 1093 1017 c 0,20,21
 1093 933 1093 933 1054.5 844 c 128,-1,22
 1016 755 1016 755 961.5 682.5 c 128,-1,23
 907 610 907 610 821 525.5 c 128,-1,24
 735 441 735 441 668 385 c 128,-1,25
 601 329 601 329 507.5 253 c 128,-1,26
 414 177 414 177 373 141 c 1,27,-1
 375 129 l 1,28,-1
 761 129 l 2,29,30
 840 129 840 129 882.5 149 c 128,-1,31
 925 169 925 169 984 240 c 1,32,-1
 1006 233 l 1,33,-1
 992 205 l 2,34,35
 945 111 945 111 887 -18 c 1,36,37
 782 0 782 0 669 0 c 2,38,-1
 119 0 l 1,39,-1
 116 39 l 1,40,41
 425 297 425 297 482.5 352 c 128,-1,42
 540 407 540 407 591 460 c 128,-1,43
 642 513 642 513 674.5 555 c 128,-1,44
 707 597 707 597 742.5 650 c 128,-1,45
 778 703 778 703 798 750 c 0,46,47
 845 855 845 855 845 943.5 c 128,-1,0
 845 1032 845 1032 797 1073 c 128,-1,1
EndSplineSet
EndChar

StartChar: three
Encoding: 51 51 22
Width: 885
GlyphClass: 2
Flags: W
LayerCount: 2
Fore
SplineSet
557.5 1209 m 128,-1,1
 655 1263 655 1263 788 1263 c 128,-1,2
 921 1263 921 1263 1000 1208.5 c 128,-1,3
 1079 1154 1079 1154 1079 1048 c 0,4,5
 1079 916 1079 916 972 829 c 0,6,7
 878 752 878 752 739 696 c 1,8,-1
 739 690 l 1,9,10
 866 680 866 680 934.5 618.5 c 128,-1,11
 1003 557 1003 557 1003 452.5 c 128,-1,12
 1003 348 1003 348 951 256 c 128,-1,13
 899 164 899 164 813.5 105 c 128,-1,14
 728 46 728 46 622 13.5 c 128,-1,15
 516 -19 516 -19 404 -19 c 0,16,17
 242 -19 242 -19 114 49 c 1,18,19
 132 144 132 144 213 216 c 1,20,-1
 239 199 l 2,21,22
 295 163 295 163 327.5 143.5 c 128,-1,23
 360 124 360 124 416.5 103.5 c 128,-1,24
 473 83 473 83 529.5 83 c 128,-1,25
 586 83 586 83 635 110 c 128,-1,26
 684 137 684 137 713 183 c 0,27,28
 770 273 770 273 770 406 c 0,29,30
 770 515 770 515 697.5 568 c 128,-1,31
 625 621 625 621 469 621 c 1,32,-1
 472 645 l 1,33,34
 532 663 532 663 576 680 c 128,-1,35
 620 697 620 697 671.5 726 c 128,-1,36
 723 755 723 755 755 789 c 128,-1,37
 787 823 787 823 809 873 c 128,-1,38
 831 923 831 923 831 992 c 128,-1,39
 831 1061 831 1061 783 1104.5 c 128,-1,40
 735 1148 735 1148 661 1148 c 128,-1,41
 587 1148 587 1148 531 1123 c 128,-1,42
 475 1098 475 1098 391 1036 c 1,43,-1
 371 1054 l 1,44,0
 460 1155 460 1155 557.5 1209 c 128,-1,1
EndSplineSet
EndChar

StartChar: four
Encoding: 52 52 23
Width: 885
GlyphClass: 2
Flags: W
LayerCount: 2
Fore
SplineSet
678 299 m 1,0,1
 618 302 618 302 480 302 c 128,-1,2
 342 302 342 302 161 291 c 1,3,-1
 155 316 l 1,4,5
 787 968 787 968 894 1170 c 1,6,7
 999 1244 999 1244 1125 1278 c 1,8,-1
 1162 1259 l 1,9,10
 1102 1068 1102 1068 1057.5 895 c 128,-1,11
 1013 722 1013 722 979.5 590.5 c 128,-1,12
 946 459 946 459 929 393 c 1,13,14
 1042 393 1042 393 1152 428 c 1,15,-1
 1161 412 l 1,16,17
 1111 350 1111 350 1053.5 324 c 128,-1,18
 996 298 996 298 904 298 c 1,19,-1
 826 -22 l 1,20,-1
 589 -53 l 1,21,-1
 678 299 l 1,0,1
341 393 m 1,22,-1
 700 393 l 1,23,-1
 883 1000 l 1,24,-1
 875 1001 l 1,25,26
 741 836 741 836 442 508 c 0,27,28
 361 419 361 419 341 397 c 1,29,-1
 341 393 l 1,22,-1
EndSplineSet
EndChar

StartChar: five
Encoding: 53 53 24
Width: 885
GlyphClass: 2
Flags: W
LayerCount: 2
Fore
SplineSet
694 729 m 0,0,1
 832 729 832 729 909 658.5 c 128,-1,2
 986 588 986 588 986 474 c 128,-1,3
 986 360 986 360 940 267 c 128,-1,4
 894 174 894 174 815.5 112 c 128,-1,5
 737 50 737 50 633.5 15.5 c 128,-1,6
 530 -19 530 -19 415 -19 c 0,7,8
 216 -19 216 -19 98 44 c 1,9,10
 105 93 105 93 130.5 139 c 128,-1,11
 156 185 156 185 198 216 c 1,12,13
 263 171 263 171 302.5 147 c 128,-1,14
 342 123 342 123 397.5 100 c 128,-1,15
 453 77 453 77 496 77 c 0,16,17
 580 77 580 77 640 129 c 0,18,19
 751 225 751 225 751 416 c 0,20,21
 751 513 751 513 696.5 569.5 c 128,-1,22
 642 626 642 626 541 626 c 0,23,24
 468 626 468 626 360 590 c 1,25,-1
 336 612 l 1,26,27
 409 917 409 917 508 1170 c 1,28,29
 580 1245 580 1245 687 1245 c 2,30,-1
 1004 1245 l 2,31,32
 1042 1245 1042 1245 1064.5 1259 c 128,-1,33
 1087 1273 1087 1273 1103 1305 c 1,34,-1
 1130 1304 l 1,35,36
 1096 1140 1096 1140 1015 1057 c 1,37,38
 798 1057 798 1057 578 1079 c 1,39,-1
 572 1075 l 1,40,-1
 477 683 l 1,41,42
 583 729 583 729 694 729 c 0,0,1
EndSplineSet
EndChar

StartChar: six
Encoding: 54 54 25
Width: 885
GlyphClass: 2
Flags: W
LayerCount: 2
Fore
SplineSet
1088 1264 m 0,0,1
 1159 1264 1159 1264 1220 1242 c 1,2,3
 1207 1202 1207 1202 1192 1184 c 1,4,5
 1136 1192 1136 1192 1093 1192 c 0,6,7
 979 1192 979 1192 879.5 1139.5 c 128,-1,8
 780 1087 780 1087 710 1001 c 128,-1,9
 640 915 640 915 589 806 c 0,10,11
 489 594 489 594 489 366 c 0,12,13
 489 233 489 233 534 158.5 c 128,-1,14
 579 84 579 84 663 84 c 0,15,16
 717 84 717 84 761 117 c 128,-1,17
 805 150 805 150 830 202 c 0,18,19
 880 309 880 309 880 411 c 128,-1,20
 880 513 880 513 835 568.5 c 128,-1,21
 790 624 790 624 713.5 624 c 128,-1,22
 637 624 637 624 563 598 c 1,23,-1
 554 626 l 1,24,25
 686 740 686 740 819.5 740 c 128,-1,26
 953 740 953 740 1021 671.5 c 128,-1,27
 1089 603 1089 603 1089 479.5 c 128,-1,28
 1089 356 1089 356 1023 240.5 c 128,-1,29
 957 125 957 125 839 53 c 128,-1,30
 721 -19 721 -19 574 -19 c 128,-1,31
 427 -19 427 -19 340.5 76 c 128,-1,32
 254 171 254 171 254 328 c 0,33,34
 254 518 254 518 328.5 694 c 128,-1,35
 403 870 403 870 522 993.5 c 128,-1,36
 641 1117 641 1117 790.5 1190.5 c 128,-1,37
 940 1264 940 1264 1088 1264 c 0,0,1
EndSplineSet
EndChar

StartChar: seven
Encoding: 55 55 26
Width: 885
GlyphClass: 2
Flags: W
LayerCount: 2
Fore
SplineSet
412 1263 m 1,0,1
 602 1245 602 1245 832 1245 c 128,-1,2
 1062 1245 1062 1245 1191 1254 c 1,3,-1
 1203 1230 l 1,4,5
 925 912 925 912 761 621 c 128,-1,6
 597 330 597 330 490 14 c 1,7,8
 340 -7 340 -7 246 -59 c 1,9,-1
 226 -37 l 1,10,11
 461 490 461 490 984 1065 c 1,12,-1
 982 1070 l 1,13,14
 806 1064 806 1064 464 1064 c 0,15,16
 426 1064 426 1064 395.5 1041.5 c 128,-1,17
 365 1019 365 1019 328 969 c 1,18,-1
 298 975 l 1,19,-1
 412 1263 l 1,0,1
EndSplineSet
EndChar

StartChar: eight
Encoding: 56 56 27
Width: 885
GlyphClass: 2
Flags: W
LayerCount: 2
Fore
SplineSet
364 908 m 0,0,1
 364 1017 364 1017 431 1106 c 128,-1,2
 498 1195 498 1195 602 1241.5 c 128,-1,3
 706 1288 706 1288 824 1288 c 128,-1,4
 942 1288 942 1288 1012 1240 c 128,-1,5
 1082 1192 1082 1192 1082 1100 c 0,6,7
 1082 882 1082 882 782 739 c 1,8,9
 891 681 891 681 946.5 610 c 128,-1,10
 1002 539 1002 539 1002 436 c 0,11,12
 1002 310 1002 310 928 204 c 128,-1,13
 854 98 854 98 735 39 c 128,-1,14
 616 -20 616 -20 476 -20 c 128,-1,15
 336 -20 336 -20 242 48 c 128,-1,16
 148 116 148 116 148 234 c 0,17,18
 148 314 148 314 178 382.5 c 128,-1,19
 208 451 208 451 262 502 c 1,20,21
 366 597 366 597 530 654 c 1,22,23
 449 707 449 707 406.5 765 c 128,-1,24
 364 823 364 823 364 908 c 0,0,1
560 63 m 0,25,26
 672 63 672 63 734 144 c 128,-1,27
 796 225 796 225 796 344 c 0,28,29
 796 423 796 423 746.5 482.5 c 128,-1,30
 697 542 697 542 588 609 c 1,31,32
 487 570 487 570 429 480.5 c 128,-1,33
 371 391 371 391 371 285.5 c 128,-1,34
 371 180 371 180 421 121.5 c 128,-1,35
 471 63 471 63 560 63 c 0,25,26
867 1064 m 0,36,37
 867 1135 867 1135 831.5 1172.5 c 128,-1,38
 796 1210 796 1210 725 1210 c 128,-1,39
 654 1210 654 1210 605 1148 c 128,-1,40
 556 1086 556 1086 556 1009.5 c 128,-1,41
 556 933 556 933 600.5 883 c 128,-1,42
 645 833 645 833 731 780 c 1,43,44
 867 899 867 899 867 1064 c 0,36,37
EndSplineSet
EndChar

StartChar: nine
Encoding: 57 57 28
Width: 885
GlyphClass: 2
Flags: W
LayerCount: 2
Fore
SplineSet
213 -19 m 0,0,1
 140 -19 140 -19 81 3 c 1,2,3
 91 41 91 41 109 61 c 1,4,5
 163 53 163 53 208 53 c 0,6,7
 322 53 322 53 422 106 c 128,-1,8
 522 159 522 159 592 245 c 128,-1,9
 662 331 662 331 713 440 c 0,10,11
 812 653 812 653 812 881 c 0,12,13
 812 1013 812 1013 767 1087 c 128,-1,14
 722 1161 722 1161 638 1161 c 0,15,16
 584 1161 584 1161 540 1128 c 128,-1,17
 496 1095 496 1095 471 1044 c 0,18,19
 420 938 420 938 420 835.5 c 128,-1,20
 420 733 420 733 465.5 677 c 128,-1,21
 511 621 511 621 587.5 621 c 128,-1,22
 664 621 664 621 738 647 c 1,23,-1
 746 619 l 1,24,25
 616 505 616 505 483.5 505 c 128,-1,26
 351 505 351 505 282 573.5 c 128,-1,27
 213 642 213 642 213 761 c 0,28,29
 213 857 213 857 252 948.5 c 128,-1,30
 291 1040 291 1040 357.5 1109.5 c 128,-1,31
 424 1179 424 1179 519 1221.5 c 128,-1,32
 614 1264 614 1264 718 1264 c 0,33,34
 874 1264 874 1264 960.5 1174 c 128,-1,35
 1047 1084 1047 1084 1047 925 c 0,36,37
 1047 740 1047 740 976 565 c 128,-1,38
 905 390 905 390 789.5 262.5 c 128,-1,39
 674 135 674 135 521.5 58 c 128,-1,40
 369 -19 369 -19 213 -19 c 0,0,1
EndSplineSet
EndChar

StartChar: colon
Encoding: 58 58 29
Width: 518
GlyphClass: 2
Flags: W
LayerCount: 2
Fore
SplineSet
476 869 m 0,0,1
 515 869 515 869 542 836.5 c 128,-1,2
 569 804 569 804 569 752 c 128,-1,3
 569 700 569 700 521 651.5 c 128,-1,4
 473 603 473 603 429 603 c 128,-1,5
 385 603 385 603 357 636 c 128,-1,6
 329 669 329 669 329 718.5 c 128,-1,7
 329 768 329 768 373.5 818.5 c 128,-1,8
 418 869 418 869 476 869 c 0,0,1
319 239 m 0,9,10
 358 239 358 239 385 206.5 c 128,-1,11
 412 174 412 174 412 122 c 128,-1,12
 412 70 412 70 363.5 21.5 c 128,-1,13
 315 -27 315 -27 271 -27 c 128,-1,14
 227 -27 227 -27 199.5 6 c 128,-1,15
 172 39 172 39 172 88.5 c 128,-1,16
 172 138 172 138 216.5 188.5 c 128,-1,17
 261 239 261 239 319 239 c 0,9,10
EndSplineSet
EndChar

StartChar: semicolon
Encoding: 59 59 30
Width: 479
GlyphClass: 2
Flags: W
LayerCount: 2
Fore
SplineSet
485 869 m 0,0,1
 524 869 524 869 550.5 837 c 128,-1,2
 577 805 577 805 577 753 c 128,-1,3
 577 701 577 701 529.5 652 c 128,-1,4
 482 603 482 603 437.5 603 c 128,-1,5
 393 603 393 603 365.5 636 c 128,-1,6
 338 669 338 669 338 718.5 c 128,-1,7
 338 768 338 768 382.5 818.5 c 128,-1,8
 427 869 427 869 485 869 c 0,0,1
250 169 m 128,-1,10
 290 211 290 211 334.5 211 c 128,-1,11
 379 211 379 211 409.5 172.5 c 128,-1,12
 440 134 440 134 440 84.5 c 128,-1,13
 440 35 440 35 411.5 -22.5 c 128,-1,14
 383 -80 383 -80 337 -131 c 0,15,16
 250 -227 250 -227 146 -298 c 1,17,-1
 131 -263 l 1,18,19
 213 -199 213 -199 250 -151.5 c 128,-1,20
 287 -104 287 -104 287 -61 c 0,21,22
 287 -42 287 -42 268 -19 c 128,-1,23
 249 4 249 4 229.5 30 c 128,-1,24
 210 56 210 56 210 83 c 0,25,9
 210 127 210 127 250 169 c 128,-1,10
EndSplineSet
EndChar

StartChar: less
Encoding: 60 60 31
Width: 1065
GlyphClass: 2
Flags: W
LayerCount: 2
Fore
SplineSet
400 580 m 1,0,-1
 1106 231 l 1,1,-1
 1093 123 l 1,2,-1
 250 532 l 1,3,-1
 262 629 l 1,4,-1
 1205 1036 l 1,5,-1
 1192 930 l 1,6,-1
 400 580 l 1,0,-1
EndSplineSet
EndChar

StartChar: equal
Encoding: 61 61 32
Width: 1065
GlyphClass: 2
Flags: W
LayerCount: 2
Fore
SplineSet
197 313 m 1,0,-1
 1143 313 l 1,1,-1
 1068 190 l 1,2,-1
 123 190 l 1,3,-1
 197 313 l 1,0,-1
272 673 m 1,4,-1
 1218 673 l 1,5,-1
 1143 550 l 1,6,-1
 198 550 l 1,7,-1
 272 673 l 1,4,-1
EndSplineSet
EndChar

StartChar: greater
Encoding: 62 62 33
Width: 1065
GlyphClass: 2
Flags: W
LayerCount: 2
Fore
SplineSet
239 123 m 1,0,-1
 252 231 l 1,1,-1
 1044 580 l 1,2,-1
 338 930 l 1,3,-1
 351 1036 l 1,4,-1
 1194 629 l 1,5,-1
 1182 532 l 1,6,-1
 239 123 l 1,0,-1
EndSplineSet
EndChar

StartChar: question
Encoding: 63 63 34
Width: 764
GlyphClass: 2
Flags: W
LayerCount: 2
Fore
SplineSet
468 359 m 1,0,1
 425 396 425 396 425 455 c 128,-1,2
 425 514 425 514 450 566 c 128,-1,3
 475 618 475 618 515 663 c 128,-1,4
 555 708 555 708 603.5 754 c 128,-1,5
 652 800 652 800 700.5 850 c 128,-1,6
 749 900 749 900 789 952 c 128,-1,7
 829 1004 829 1004 854 1069.5 c 128,-1,8
 879 1135 879 1135 879 1208.5 c 128,-1,9
 879 1282 879 1282 844 1326 c 128,-1,10
 809 1370 809 1370 739 1370 c 0,11,12
 648 1370 648 1370 564 1300 c 0,13,14
 526 1269 526 1269 473 1216 c 1,15,-1
 450 1231 l 1,16,17
 526 1348 526 1348 628 1425.5 c 128,-1,18
 730 1503 730 1503 855.5 1503 c 128,-1,19
 981 1503 981 1503 1049.5 1438.5 c 128,-1,20
 1118 1374 1118 1374 1118 1259 c 0,21,22
 1118 1171 1118 1171 1083.5 1092.5 c 128,-1,23
 1049 1014 1049 1014 994 955.5 c 128,-1,24
 939 897 939 897 872.5 844 c 128,-1,25
 806 791 806 791 739.5 744.5 c 128,-1,26
 673 698 673 698 618 654 c 0,27,28
 494 553 494 553 494 452 c 0,29,30
 494 418 494 418 520 378 c 1,31,-1
 468 359 l 1,0,1
396 -39 m 0,32,33
 357 -39 357 -39 330 -6.5 c 128,-1,34
 303 26 303 26 303 74.5 c 128,-1,35
 303 123 303 123 347.5 175 c 128,-1,36
 392 227 392 227 439.5 227 c 128,-1,37
 487 227 487 227 515 194 c 128,-1,38
 543 161 543 161 543 110.5 c 128,-1,39
 543 60 543 60 498 10.5 c 128,-1,40
 453 -39 453 -39 396 -39 c 0,32,33
EndSplineSet
EndChar

StartChar: at
Encoding: 64 64 35
Width: 1401
GlyphClass: 2
Flags: W
LayerCount: 2
Fore
SplineSet
1463.5 736.5 m 128,-1,1
 1490 816 1490 816 1490 897 c 128,-1,2
 1490 978 1490 978 1466 1048.5 c 128,-1,3
 1442 1119 1442 1119 1395.5 1175.5 c 128,-1,4
 1349 1232 1349 1232 1273 1265.5 c 128,-1,5
 1197 1299 1197 1299 1095 1299 c 128,-1,6
 993 1299 993 1299 887 1250.5 c 128,-1,7
 781 1202 781 1202 697.5 1120.5 c 128,-1,8
 614 1039 614 1039 549 937.5 c 128,-1,9
 484 836 484 836 448.5 724 c 128,-1,10
 413 612 413 612 413 516.5 c 128,-1,11
 413 421 413 421 440 348 c 128,-1,12
 467 275 467 275 522 217.5 c 128,-1,13
 577 160 577 160 670 127.5 c 128,-1,14
 763 95 763 95 905 95 c 128,-1,15
 1047 95 1047 95 1210.5 147.5 c 128,-1,16
 1374 200 1374 200 1470 295 c 1,17,-1
 1495 264 l 1,18,19
 1383 140 1383 140 1204.5 60 c 128,-1,20
 1026 -20 1026 -20 821 -20 c 0,21,22
 660 -20 660 -20 537.5 19.5 c 128,-1,23
 415 59 415 59 342 129 c 0,24,25
 196 269 196 269 196 484 c 0,26,27
 196 585 196 585 229 693 c 128,-1,28
 262 801 262 801 321 902 c 128,-1,29
 380 1003 380 1003 468.5 1094 c 128,-1,30
 557 1185 557 1185 661 1252.5 c 128,-1,31
 765 1320 765 1320 894 1359.5 c 128,-1,32
 1023 1399 1023 1399 1157.5 1399 c 128,-1,33
 1292 1399 1292 1399 1393.5 1366.5 c 128,-1,34
 1495 1334 1495 1334 1556 1276 c 0,35,36
 1675 1163 1675 1163 1675 990 c 0,37,38
 1675 877 1675 877 1624 759 c 128,-1,39
 1573 641 1573 641 1487.5 545.5 c 128,-1,40
 1402 450 1402 450 1277.5 389 c 128,-1,41
 1153 328 1153 328 1017 328 c 0,42,43
 926 328 926 328 926 420 c 0,44,45
 926 474 926 474 956 564 c 0,46,47
 966 596 966 596 985 648.5 c 128,-1,48
 1004 701 1004 701 1011 724 c 1,49,-1
 1001 728 l 1,50,51
 886 539 886 539 746 405 c 0,52,53
 666 328 666 328 619 328 c 0,54,55
 558 328 558 328 558 437 c 0,56,57
 558 592 558 592 636 769 c 1,58,59
 700 911 700 911 808.5 989 c 128,-1,60
 917 1067 917 1067 1094 1067 c 0,61,62
 1200 1067 1200 1067 1291 1056 c 1,63,64
 1221 782 1221 782 1096 438 c 1,65,-1
 1099 436 l 1,66,67
 1190 442 1190 442 1265.5 484.5 c 128,-1,68
 1341 527 1341 527 1389 592 c 128,-1,0
 1437 657 1437 657 1463.5 736.5 c 128,-1,1
1092 985 m 1,69,70
 1072 994 1072 994 1020 994 c 128,-1,71
 968 994 968 994 937 984 c 128,-1,72
 906 974 906 974 882.5 958.5 c 128,-1,73
 859 943 859 943 839 916.5 c 128,-1,74
 819 890 819 890 806 865 c 128,-1,75
 793 840 793 840 782 803.5 c 128,-1,76
 771 767 771 767 764.5 738 c 128,-1,77
 758 709 758 709 752 667.5 c 128,-1,78
 746 626 746 626 743.5 599.5 c 128,-1,79
 741 573 741 573 737 533 c 2,80,-1
 731 473 l 1,81,82
 842 564 842 564 958.5 729 c 128,-1,83
 1075 894 1075 894 1092 985 c 1,69,70
EndSplineSet
EndChar

StartChar: A
Encoding: 65 65 36
Width: 1217
GlyphClass: 2
Flags: W
LayerCount: 2
Fore
SplineSet
948 1207 m 1,0,-1
 789 1212 l 1,1,2
 729 1212 729 1212 685.5 1205 c 128,-1,3
 642 1198 642 1198 597.5 1176.5 c 128,-1,4
 553 1155 553 1155 522 1117 c 0,5,6
 455 1035 455 1035 424 857 c 0,7,8
 417 819 417 819 414 769 c 1,9,10
 384 739 384 739 316.5 716.5 c 128,-1,11
 249 694 249 694 204 691 c 1,12,13
 204 997 204 997 379 1162.5 c 128,-1,14
 554 1328 554 1328 881 1328 c 0,15,16
 975 1328 975 1328 1104 1326 c 128,-1,17
 1233 1324 1233 1324 1262 1324 c 1,18,19
 1231 1273 1231 1273 1196.5 1102 c 128,-1,20
 1162 931 1162 931 1142 736 c 0,21,22
 1106 379 1106 379 1106 281 c 128,-1,23
 1106 183 1106 183 1121.5 146 c 128,-1,24
 1137 109 1137 109 1171 109 c 0,25,26
 1195 109 1195 109 1225.5 121 c 128,-1,27
 1256 133 1256 133 1277.5 142 c 128,-1,28
 1299 151 1299 151 1311 156 c 1,29,-1
 1327 130 l 1,30,31
 1270 81 1270 81 1192 30.5 c 128,-1,32
 1114 -20 1114 -20 1082 -20 c 0,33,34
 964 -20 964 -20 921 39 c 128,-1,35
 878 98 878 98 878 226 c 0,36,37
 878 317 878 317 893 477 c 1,38,-1
 645 477 l 1,39,40
 458 146 458 146 331 0 c 0,41,42
 237 -109 237 -109 127 -129 c 0,43,44
 78 -138 78 -138 -2 -138 c 2,45,-1
 -109 -138 l 1,46,47
 -96 -95 -96 -95 -63.5 -44.5 c 128,-1,48
 -31 6 -31 6 2 23 c 1,49,50
 80 4 80 4 125 4 c 128,-1,51
 170 4 170 4 219 37.5 c 128,-1,52
 268 71 268 71 326.5 159.5 c 128,-1,53
 385 248 385 248 617.5 654.5 c 128,-1,54
 850 1061 850 1061 948 1207 c 1,0,-1
970 1036 m 1,55,56
 945 998 945 998 843 823 c 128,-1,57
 741 648 741 648 693 562 c 1,58,-1
 901 562 l 1,59,60
 910 651 910 651 937 817.5 c 128,-1,61
 964 984 964 984 970 1036 c 1,55,56
EndSplineSet
EndChar

StartChar: B
Encoding: 66 66 37
Width: 1180
GlyphClass: 2
Flags: W
LayerCount: 2
Fore
SplineSet
855 786 m 1,0,1
 855 786 855 786 919 783 c 1,2,3
 1010 783 1010 783 1067 860 c 128,-1,4
 1124 937 1124 937 1124 1033.5 c 128,-1,5
 1124 1130 1124 1130 1058 1172 c 128,-1,6
 992 1214 992 1214 886 1214 c 0,7,8
 369 1214 369 1214 369 722 c 1,9,10
 335 685 335 685 266 661.5 c 128,-1,11
 197 638 197 638 138 638 c 1,12,13
 172 847 172 847 288 1004 c 128,-1,14
 404 1161 404 1161 569.5 1241 c 128,-1,15
 735 1321 735 1321 937 1321 c 128,-1,16
 1139 1321 1139 1321 1244.5 1248 c 128,-1,17
 1350 1175 1350 1175 1350 1069.5 c 128,-1,18
 1350 964 1350 964 1262 875.5 c 128,-1,19
 1174 787 1174 787 1038 767 c 1,20,21
 1152 743 1152 743 1228 682 c 0,22,23
 1312 614 1312 614 1312 493 c 0,24,25
 1312 409 1312 409 1264 322 c 128,-1,26
 1216 235 1216 235 1132 163 c 128,-1,27
 1048 91 1048 91 919.5 45.5 c 128,-1,28
 791 0 791 0 645 0 c 2,29,-1
 194 0 l 1,30,-1
 188 34 l 1,31,32
 284 48 284 48 335 126 c 0,33,34
 381 197 381 197 408 313 c 128,-1,35
 435 429 435 429 473 609.5 c 128,-1,36
 511 790 511 790 529 871 c 0,37,38
 573 1071 573 1071 794 1108 c 1,39,-1
 805 1085 l 1,40,41
 751 1001 751 1001 726 796 c 0,42,43
 701 595 701 595 658 424 c 0,44,45
 637 338 637 338 593.5 259 c 128,-1,46
 550 180 550 180 488 133 c 1,47,-1
 494 120 l 1,48,-1
 719 120 l 2,49,50
 805 120 805 120 873.5 150.5 c 128,-1,51
 942 181 942 181 983 231 c 0,52,53
 1067 333 1067 333 1067 458 c 0,54,55
 1067 554 1067 554 1002 613 c 128,-1,56
 937 672 937 672 787 672 c 1,57,58
 789 706 789 706 810.5 746 c 128,-1,59
 832 786 832 786 855 786 c 1,0,1
EndSplineSet
EndChar

StartChar: C
Encoding: 67 67 38
Width: 1008
GlyphClass: 2
Flags: W
LayerCount: 2
Fore
SplineSet
829 864 m 1,0,1
 878 771 878 771 950 771 c 128,-1,2
 1022 771 1022 771 1080 847.5 c 128,-1,3
 1138 924 1138 924 1138 1006 c 128,-1,4
 1138 1088 1138 1088 1100.5 1136.5 c 128,-1,5
 1063 1185 1063 1185 980 1185 c 0,6,7
 879 1185 879 1185 788 1111.5 c 128,-1,8
 697 1038 697 1038 636 923.5 c 128,-1,9
 575 809 575 809 539.5 673.5 c 128,-1,10
 504 538 504 538 504 423 c 128,-1,11
 504 308 504 308 527 229.5 c 128,-1,12
 550 151 550 151 603 102 c 128,-1,13
 656 53 656 53 734 53 c 0,14,15
 872 53 872 53 1009 209 c 1,16,-1
 1035 175 l 1,17,18
 941 46 941 46 824 -24.5 c 128,-1,19
 707 -95 707 -95 587 -95 c 0,20,21
 447 -95 447 -95 355.5 0 c 128,-1,22
 264 95 264 95 264 281 c 0,23,24
 264 432 264 432 299 581.5 c 128,-1,25
 334 731 334 731 402.5 862.5 c 128,-1,26
 471 994 471 994 563.5 1095 c 128,-1,27
 656 1196 656 1196 779 1255 c 128,-1,28
 902 1314 902 1314 1032.5 1314 c 128,-1,29
 1163 1314 1163 1314 1225 1251 c 128,-1,30
 1287 1188 1287 1188 1287 1097 c 128,-1,31
 1287 1006 1287 1006 1245.5 920.5 c 128,-1,32
 1204 835 1204 835 1127 776 c 128,-1,33
 1050 717 1050 717 960 717 c 0,34,35
 843 717 843 717 802 852 c 1,36,-1
 829 864 l 1,0,1
EndSplineSet
EndChar

StartChar: D
Encoding: 68 68 39
Width: 1364
GlyphClass: 2
Flags: W
LayerCount: 2
Fore
SplineSet
736 120 m 2,0,1
 851 120 851 120 961 187 c 128,-1,2
 1071 254 1071 254 1148 357.5 c 128,-1,3
 1225 461 1225 461 1272 588 c 128,-1,4
 1319 715 1319 715 1319 833 c 0,5,6
 1319 1001 1319 1001 1220 1110 c 0,7,8
 1171 1164 1171 1164 1088 1195 c 128,-1,9
 1005 1226 1005 1226 896 1226 c 0,10,11
 689 1226 689 1226 574 1102 c 128,-1,12
 459 978 459 978 434 720 c 1,13,14
 419 692 419 692 344 668.5 c 128,-1,15
 269 645 269 645 221 642 c 1,16,17
 244 873 244 873 374 1046 c 0,18,19
 442 1136 442 1136 533 1203 c 128,-1,20
 624 1270 624 1270 750.5 1309 c 128,-1,21
 877 1348 877 1348 1015.5 1348 c 128,-1,22
 1154 1348 1154 1348 1252.5 1313 c 128,-1,23
 1351 1278 1351 1278 1410 1216 c 0,24,25
 1527 1095 1527 1095 1527 903 c 0,26,27
 1527 785 1527 785 1484 658.5 c 128,-1,28
 1441 532 1441 532 1359 415 c 128,-1,29
 1277 298 1277 298 1169 205 c 128,-1,30
 1061 112 1061 112 919.5 56 c 128,-1,31
 778 0 778 0 629 0 c 2,32,-1
 264 0 l 1,33,-1
 256 32 l 1,34,35
 367 54 367 54 426 172 c 0,36,37
 454 229 454 229 473 298 c 128,-1,38
 492 367 492 367 507.5 427.5 c 128,-1,39
 523 488 523 488 539.5 559 c 128,-1,40
 556 630 556 630 566.5 677 c 128,-1,41
 577 724 577 724 597 816 c 128,-1,42
 617 908 617 908 628 957 c 128,-1,43
 639 1006 639 1006 670 1043 c 128,-1,44
 701 1080 701 1080 742 1097 c 0,45,46
 815 1128 815 1128 886 1128 c 1,47,-1
 892 1100 l 1,48,49
 861 1079 861 1079 836.5 978.5 c 128,-1,50
 812 878 812 878 791.5 748 c 128,-1,51
 771 618 771 618 745 487.5 c 128,-1,52
 719 357 719 357 672 256.5 c 128,-1,53
 625 156 625 156 562 133 c 1,54,-1
 568 120 l 1,55,-1
 736 120 l 2,0,1
EndSplineSet
EndChar

StartChar: E
Encoding: 69 69 40
Width: 1167
GlyphClass: 2
Flags: W
LayerCount: 2
Fore
SplineSet
1026 661 m 1,0,-1
 762 664 l 1,1,2
 689 387 689 387 668 323 c 0,3,4
 624 188 624 188 565 119 c 1,5,-1
 568 112 l 1,6,-1
 972 112 l 2,7,8
 1146 112 1146 112 1278 222 c 1,9,-1
 1295 199 l 1,10,11
 1265 149 1265 149 1240.5 118 c 128,-1,12
 1216 87 1216 87 1180 58 c 0,13,14
 1111 0 1111 0 992 0 c 2,15,-1
 206 0 l 1,16,-1
 198 40 l 1,17,18
 261 59 261 59 312 107 c 0,19,20
 401 191 401 191 430 306 c 1,21,22
 462 425 462 425 494 554 c 128,-1,23
 526 683 526 683 546.5 759.5 c 128,-1,24
 567 836 567 836 579 877.5 c 128,-1,25
 591 919 591 919 607.5 972.5 c 128,-1,26
 624 1026 624 1026 636 1055.5 c 128,-1,27
 648 1085 648 1085 663 1116 c 0,28,29
 689 1172 689 1172 721 1195 c 1,30,-1
 624 1195 l 2,31,32
 494 1195 494 1195 425 1101 c 128,-1,33
 356 1007 356 1007 356 816 c 1,34,35
 325 766 325 766 268 725.5 c 128,-1,36
 211 685 211 685 168 685 c 1,37,38
 168 986 168 986 337.5 1145.5 c 128,-1,39
 507 1305 507 1305 824 1305 c 2,40,-1
 1438 1305 l 1,41,42
 1422 1244 1422 1244 1395.5 1214 c 128,-1,43
 1369 1184 1369 1184 1308 1184 c 0,44,45
 1204 1184 1204 1184 1078.5 1189.5 c 128,-1,46
 953 1195 953 1195 910 1195 c 1,47,48
 897 1171 897 1171 887 1136 c 2,49,-1
 791 772 l 1,50,-1
 816 772 l 1,51,-1
 1035 766 l 1,52,53
 1127 766 1127 766 1199 791 c 1,54,-1
 1214 776 l 1,55,56
 1124 661 1124 661 1026 661 c 1,0,-1
EndSplineSet
EndChar

StartChar: F
Encoding: 70 70 41
Width: 1094
GlyphClass: 2
Flags: W
LayerCount: 2
Fore
SplineSet
1064 661 m 1,0,-1
 800 664 l 1,1,2
 769 547 769 547 686 293 c 0,3,4
 642 157 642 157 594.5 104.5 c 128,-1,5
 547 52 547 52 497 22 c 128,-1,6
 447 -8 447 -8 347 -28.5 c 128,-1,7
 247 -49 247 -49 98 -49 c 1,8,9
 98 -19 98 -19 116.5 27.5 c 128,-1,10
 135 74 135 74 162 103 c 1,11,12
 240 87 240 87 276 87 c 0,13,14
 342 87 342 87 381.5 128.5 c 128,-1,15
 421 170 421 170 448 276 c 0,16,17
 567 745 567 745 631.5 947 c 128,-1,18
 696 1149 696 1149 759 1195 c 1,19,-1
 662 1195 l 2,20,21
 532 1195 532 1195 463 1101 c 128,-1,22
 394 1007 394 1007 394 816 c 1,23,24
 363 766 363 766 306 725.5 c 128,-1,25
 249 685 249 685 206 685 c 1,26,27
 206 986 206 986 375.5 1145.5 c 128,-1,28
 545 1305 545 1305 862 1305 c 2,29,-1
 1476 1305 l 1,30,31
 1460 1244 1460 1244 1433.5 1214 c 128,-1,32
 1407 1184 1407 1184 1346 1184 c 0,33,34
 1242 1184 1242 1184 1116.5 1189.5 c 128,-1,35
 991 1195 991 1195 948 1195 c 1,36,37
 935 1171 935 1171 925 1136 c 2,38,-1
 829 772 l 1,39,-1
 854 772 l 1,40,-1
 1073 766 l 1,41,42
 1165 766 1165 766 1237 791 c 1,43,-1
 1252 776 l 1,44,45
 1162 661 1162 661 1064 661 c 1,0,-1
EndSplineSet
EndChar

StartChar: G
Encoding: 71 71 42
Width: 1217
GlyphClass: 2
Flags: W
LayerCount: 2
Fore
SplineSet
1072 697 m 2,0,-1
 1312 698 l 1,1,-1
 1321 659 l 1,2,3
 1241 615 1241 615 1219 517 c 2,4,-1
 1135 140 l 2,5,6
 1113 41 1113 41 1084 -35.5 c 128,-1,7
 1055 -112 1055 -112 1010 -177 c 128,-1,8
 965 -242 965 -242 906 -284 c 0,9,10
 783 -373 783 -373 586 -373 c 0,11,12
 521 -373 521 -373 445 -357 c 1,13,14
 451 -307 451 -307 472.5 -266 c 128,-1,15
 494 -225 494 -225 528 -207 c 1,16,17
 575 -224 575 -224 641.5 -239.5 c 128,-1,18
 708 -255 708 -255 749 -255 c 0,19,20
 808 -255 808 -255 841.5 -206 c 128,-1,21
 875 -157 875 -157 902 -35 c 2,22,-1
 923 59 l 1,23,24
 788 -95 788 -95 619 -95 c 0,25,26
 479 -95 479 -95 387.5 0 c 128,-1,27
 296 95 296 95 296 281 c 0,28,29
 296 432 296 432 331 581.5 c 128,-1,30
 366 731 366 731 434.5 862.5 c 128,-1,31
 503 994 503 994 595.5 1095 c 128,-1,32
 688 1196 688 1196 811 1255 c 128,-1,33
 934 1314 934 1314 1077 1314 c 128,-1,34
 1220 1314 1220 1314 1336 1278 c 1,35,36
 1324 1238 1324 1238 1283 1172.5 c 128,-1,37
 1242 1107 1242 1107 1209 1085 c 1,38,39
 1171 1125 1171 1125 1116 1155 c 128,-1,40
 1061 1185 1061 1185 998 1185 c 0,41,42
 901 1185 901 1185 812.5 1111 c 128,-1,43
 724 1037 724 1037 665 922.5 c 128,-1,44
 606 808 606 808 571 672 c 128,-1,45
 536 536 536 536 536 422 c 128,-1,46
 536 308 536 308 559 229.5 c 128,-1,47
 582 151 582 151 635 102 c 128,-1,48
 688 53 688 53 760 53 c 128,-1,49
 832 53 832 53 887 98 c 128,-1,50
 942 143 942 143 960 221 c 2,51,-1
 1044 579 l 1,52,53
 989 578 989 578 954.5 571 c 128,-1,54
 920 564 920 564 893 542 c 1,55,-1
 861 568 l 1,56,57
 917 637 917 637 964.5 667 c 128,-1,58
 1012 697 1012 697 1072 697 c 2,0,-1
EndSplineSet
EndChar

StartChar: H
Encoding: 72 72 43
Width: 1327
GlyphClass: 2
Flags: W
LayerCount: 2
Fore
SplineSet
656 1314 m 2,0,-1
 983 1314 l 1,1,-1
 979 1285 l 1,2,3
 937 1254 937 1254 914 1197.5 c 128,-1,4
 891 1141 891 1141 872 1041 c 2,5,-1
 817 742 l 1,6,-1
 1178 742 l 1,7,-1
 1218 975 l 2,8,9
 1234 1072 1234 1072 1259.5 1126 c 128,-1,10
 1285 1180 1285 1180 1326 1209 c 1,11,-1
 1328 1216 l 1,12,-1
 1189 1216 l 2,13,14
 1104 1216 1104 1216 1056 1185 c 1,15,-1
 1039 1196 l 1,16,17
 1073 1259 1073 1259 1119 1286.5 c 128,-1,18
 1165 1314 1165 1314 1232 1314 c 2,19,-1
 1567 1314 l 1,20,-1
 1563 1287 l 1,21,22
 1523 1252 1523 1252 1500.5 1207 c 128,-1,23
 1478 1162 1478 1162 1461 1074 c 2,24,-1
 1312 277 l 2,25,26
 1298 200 1298 200 1274 155 c 128,-1,27
 1250 110 1250 110 1205 87 c 1,28,-1
 1205 82 l 1,29,-1
 1302 82 l 2,30,31
 1354 82 1354 82 1383.5 96 c 128,-1,32
 1413 110 1413 110 1456 153 c 1,33,-1
 1470 146 l 1,34,35
 1458 110 1458 110 1447 88.5 c 128,-1,36
 1436 67 1436 67 1416 44 c 0,37,38
 1376 0 1376 0 1278 0 c 2,39,-1
 884 0 l 1,40,-1
 889 33 l 1,41,42
 996 53 996 53 1041.5 114.5 c 128,-1,43
 1087 176 1087 176 1107 299 c 2,44,-1
 1167 665 l 1,45,-1
 803 665 l 1,46,-1
 750 384 l 2,47,48
 712 180 712 180 606.5 80.5 c 128,-1,49
 501 -19 501 -19 320 -19 c 2,50,-1
 135 -19 l 1,51,52
 144 85 144 85 194 134 c 1,53,54
 205 131 205 131 246.5 117 c 128,-1,55
 288 103 288 103 310 96 c 0,56,57
 378 75 378 75 418.5 75 c 128,-1,58
 459 75 459 75 477.5 107.5 c 128,-1,59
 496 140 496 140 510 217 c 2,60,-1
 616 810 l 2,61,62
 647 984 647 984 678.5 1067 c 128,-1,63
 710 1150 710 1150 774 1206 c 1,64,-1
 776 1216 l 1,65,-1
 551 1216 l 2,66,67
 412 1216 412 1216 358.5 1153 c 128,-1,68
 305 1090 305 1090 288 909 c 2,69,-1
 278 799 l 1,70,71
 255 775 255 775 206 759.5 c 128,-1,72
 157 744 157 744 104 744 c 1,73,74
 103 752 103 752 103 768 c 0,75,76
 103 862 103 862 133.5 948 c 128,-1,77
 164 1034 164 1034 217.5 1099.5 c 128,-1,78
 271 1165 271 1165 340 1214 c 0,79,80
 482 1314 482 1314 656 1314 c 2,0,-1
EndSplineSet
EndChar

StartChar: I
Encoding: 73 73 44
Width: 774
GlyphClass: 2
Flags: W
LayerCount: 2
Fore
SplineSet
726 1314 m 2,0,-1
 1053 1314 l 1,1,-1
 1049 1285 l 1,2,3
 1007 1254 1007 1254 984 1197.5 c 128,-1,4
 961 1141 961 1141 942 1041 c 2,5,-1
 820 384 l 2,6,7
 782 180 782 180 676.5 80.5 c 128,-1,8
 571 -19 571 -19 390 -19 c 2,9,-1
 205 -19 l 1,10,11
 214 85 214 85 264 134 c 1,12,13
 275 131 275 131 316.5 117 c 128,-1,14
 358 103 358 103 380 96 c 0,15,16
 448 75 448 75 488.5 75 c 128,-1,17
 529 75 529 75 547.5 107.5 c 128,-1,18
 566 140 566 140 580 217 c 2,19,-1
 686 810 l 2,20,21
 717 984 717 984 748.5 1067 c 128,-1,22
 780 1150 780 1150 844 1206 c 1,23,-1
 846 1216 l 1,24,-1
 621 1216 l 2,25,26
 482 1216 482 1216 428.5 1153 c 128,-1,27
 375 1090 375 1090 358 909 c 2,28,-1
 348 799 l 1,29,30
 325 775 325 775 276 759.5 c 128,-1,31
 227 744 227 744 174 744 c 1,32,33
 173 752 173 752 173 768 c 0,34,35
 173 862 173 862 203.5 948 c 128,-1,36
 234 1034 234 1034 287.5 1099.5 c 128,-1,37
 341 1165 341 1165 410 1214 c 0,38,39
 552 1314 552 1314 726 1314 c 2,0,-1
EndSplineSet
EndChar

StartChar: J
Encoding: 74 74 45
Width: 811
GlyphClass: 2
Flags: W
LayerCount: 2
Fore
SplineSet
742 1314 m 2,0,-1
 1069 1314 l 1,1,-1
 1065 1285 l 1,2,3
 1023 1254 1023 1254 1000 1197.5 c 128,-1,4
 977 1141 977 1141 958 1041 c 2,5,-1
 774 30 l 2,6,7
 737 -174 737 -174 631.5 -273.5 c 128,-1,8
 526 -373 526 -373 344 -373 c 2,9,-1
 159 -373 l 1,10,11
 168 -269 168 -269 218 -220 c 1,12,13
 229 -223 229 -223 270.5 -237 c 128,-1,14
 312 -251 312 -251 334 -258 c 0,15,16
 402 -279 402 -279 442.5 -279 c 128,-1,17
 483 -279 483 -279 501.5 -246.5 c 128,-1,18
 520 -214 520 -214 534 -137 c 2,19,-1
 702 810 l 2,20,21
 733 984 733 984 764.5 1067 c 128,-1,22
 796 1150 796 1150 860 1206 c 1,23,-1
 862 1216 l 1,24,-1
 637 1216 l 2,25,26
 498 1216 498 1216 444.5 1153 c 128,-1,27
 391 1090 391 1090 374 909 c 2,28,-1
 364 799 l 1,29,30
 341 775 341 775 292 759.5 c 128,-1,31
 243 744 243 744 190 744 c 1,32,33
 189 752 189 752 189 768 c 0,34,35
 189 862 189 862 219.5 948 c 128,-1,36
 250 1034 250 1034 303.5 1099.5 c 128,-1,37
 357 1165 357 1165 426 1214 c 0,38,39
 568 1314 568 1314 742 1314 c 2,0,-1
EndSplineSet
EndChar

StartChar: K
Encoding: 75 75 46
Width: 1290
GlyphClass: 2
Flags: W
LayerCount: 2
Fore
SplineSet
624 1314 m 2,0,-1
 951 1314 l 1,1,-1
 947 1285 l 1,2,3
 906 1254 906 1254 885 1199.5 c 128,-1,4
 864 1145 864 1145 845 1041 c 2,5,-1
 791 751 l 1,6,-1
 805 753 l 2,7,8
 851 759 851 759 895 792.5 c 128,-1,9
 939 826 939 826 974.5 875 c 128,-1,10
 1010 924 1010 924 1047 982 c 128,-1,11
 1084 1040 1084 1040 1125 1096.5 c 128,-1,12
 1166 1153 1166 1153 1211 1199.5 c 128,-1,13
 1256 1246 1256 1246 1316.5 1275 c 128,-1,14
 1377 1304 1377 1304 1445 1304 c 0,15,16
 1469 1304 1469 1304 1509.5 1298 c 128,-1,17
 1550 1292 1550 1292 1570 1283 c 1,18,19
 1570 1247 1570 1247 1553.5 1202.5 c 128,-1,20
 1537 1158 1537 1158 1513 1143 c 1,21,22
 1406 1174 1406 1174 1370 1174 c 0,23,24
 1275 1174 1275 1174 1210 1061 c 0,25,26
 1137 934 1137 934 1074 855.5 c 128,-1,27
 1011 777 1011 777 945 743 c 1,28,-1
 946 739 l 1,29,-1
 941 739 l 1,30,31
 1024 720 1024 720 1076 660 c 1,32,33
 1118 614 1118 614 1155 502 c 0,34,35
 1169 460 1169 460 1188 391 c 0,36,37
 1270 93 1270 93 1308 17.5 c 128,-1,38
 1346 -58 1346 -58 1429 -58 c 0,39,40
 1455 -58 1455 -58 1474 -50.5 c 128,-1,41
 1493 -43 1493 -43 1526 -24 c 1,42,-1
 1548 -66 l 1,43,44
 1503 -109 1503 -109 1432 -136 c 128,-1,45
 1361 -163 1361 -163 1299 -163 c 128,-1,46
 1237 -163 1237 -163 1198 -145 c 128,-1,47
 1159 -127 1159 -127 1120 -74 c 1,48,49
 1044 25 1044 25 981 342 c 0,50,51
 951 488 951 488 923.5 549.5 c 128,-1,52
 896 611 896 611 868 634.5 c 128,-1,53
 840 658 840 658 804 658 c 2,54,-1
 774 658 l 1,55,-1
 723 384 l 2,56,57
 685 180 685 180 577.5 80.5 c 128,-1,58
 470 -19 470 -19 288 -19 c 2,59,-1
 103 -19 l 1,60,61
 112 85 112 85 162 134 c 1,62,63
 173 131 173 131 214.5 117 c 128,-1,64
 256 103 256 103 278 96 c 0,65,66
 346 75 346 75 386 75 c 128,-1,67
 426 75 426 75 442.5 106 c 128,-1,68
 459 137 459 137 473 217 c 2,69,-1
 579 810 l 2,70,71
 609 979 609 979 643 1064 c 128,-1,72
 677 1149 677 1149 742 1206 c 1,73,-1
 744 1216 l 1,74,-1
 519 1216 l 2,75,76
 380 1216 380 1216 326.5 1153 c 128,-1,77
 273 1090 273 1090 256 909 c 2,78,-1
 246 799 l 1,79,80
 223 775 223 775 174 759.5 c 128,-1,81
 125 744 125 744 72 744 c 1,82,83
 71 752 71 752 71 768 c 0,84,85
 71 862 71 862 101.5 948 c 128,-1,86
 132 1034 132 1034 185.5 1099.5 c 128,-1,87
 239 1165 239 1165 308 1214 c 0,88,89
 450 1314 450 1314 624 1314 c 2,0,-1
EndSplineSet
EndChar

StartChar: L
Encoding: 76 76 47
Width: 1143
GlyphClass: 2
Flags: W
LayerCount: 2
Fore
SplineSet
1341 -329 m 128,-1,1
 1264 -373 1264 -373 1177 -373 c 128,-1,2
 1090 -373 1090 -373 995 -334.5 c 128,-1,3
 900 -296 900 -296 821.5 -241.5 c 128,-1,4
 743 -187 743 -187 668 -132 c 0,5,6
 490 0 490 0 378 0 c 0,7,8
 329 0 329 0 271 -14 c 1,9,-1
 261 22 l 1,10,11
 387 76 387 76 450 292 c 0,12,13
 528 559 528 559 571 737.5 c 128,-1,14
 614 916 614 916 625 958 c 0,15,16
 647 1041 647 1041 723.5 1127 c 128,-1,17
 800 1213 800 1213 907 1271.5 c 128,-1,18
 1014 1330 1014 1330 1113.5 1330 c 128,-1,19
 1213 1330 1213 1330 1282 1264 c 1,20,21
 1271 1231 1271 1231 1234 1191 c 128,-1,22
 1197 1151 1197 1151 1171 1145 c 1,23,24
 1070 1224 1070 1224 999 1224 c 0,25,26
 949 1224 949 1224 916 1174 c 128,-1,27
 883 1124 883 1124 847 992 c 128,-1,28
 811 860 811 860 748.5 613 c 128,-1,29
 686 366 686 366 665.5 297.5 c 128,-1,30
 645 229 645 229 608.5 192.5 c 128,-1,31
 572 156 572 156 498 119 c 1,32,-1
 502 105 l 1,33,34
 590 105 590 105 681.5 68.5 c 128,-1,35
 773 32 773 32 848 -20.5 c 128,-1,36
 923 -73 923 -73 992 -126 c 0,37,38
 1157 -251 1157 -251 1247 -251 c 0,39,40
 1380 -251 1380 -251 1443 -192 c 1,41,-1
 1465 -217 l 1,42,0
 1418 -285 1418 -285 1341 -329 c 128,-1,1
EndSplineSet
EndChar

StartChar: M
Encoding: 77 77 48
Width: 1634
GlyphClass: 2
Flags: W
LayerCount: 2
Fore
SplineSet
887 1211 m 1,0,-1
 725 1216 l 1,1,2
 597 1216 597 1216 532.5 1101 c 128,-1,3
 468 986 468 986 468 766 c 1,4,5
 447 731 447 731 387 711 c 128,-1,6
 327 691 327 691 270 691 c 1,7,8
 270 901 270 901 353 1055 c 0,9,10
 443 1222 443 1222 614 1284 c 0,11,12
 706 1318 706 1318 817 1318 c 0,13,14
 856 1318 856 1318 918.5 1312 c 128,-1,15
 981 1306 981 1306 1055 1306 c 128,-1,16
 1129 1306 1129 1306 1196 1314 c 1,17,18
 1195 1309 1195 1309 1179.5 1223.5 c 128,-1,19
 1164 1138 1164 1138 1149.5 923 c 128,-1,20
 1135 708 1135 708 1114 540 c 1,21,-1
 1120 539 l 1,22,23
 1150 595 1150 595 1212.5 724 c 128,-1,24
 1275 853 1275 853 1305 910 c 0,25,26
 1469 1221 1469 1221 1530 1264 c 1,27,28
 1592 1306 1592 1306 1814 1310 c 1,29,-1
 1822 1277 l 1,30,31
 1784 1262 1784 1262 1759 1232 c 128,-1,32
 1734 1202 1734 1202 1719 1149 c 0,33,34
 1561 582 1561 582 1561 278 c 0,35,36
 1561 89 1561 89 1678 89 c 0,37,38
 1714 89 1714 89 1758 106 c 1,39,-1
 1765 81 l 1,40,41
 1719 41 1719 41 1631.5 11 c 128,-1,42
 1544 -19 1544 -19 1471 -19 c 0,43,44
 1323 -19 1323 -19 1323 226 c 0,45,46
 1323 441 1323 441 1414 781 c 0,47,48
 1432 846 1432 846 1474 993 c 1,49,-1
 1470 994 l 1,50,51
 1332 784 1332 784 1007 79 c 1,52,53
 983 72 983 72 934 72 c 128,-1,54
 885 72 885 72 871 79 c 1,55,56
 919 406 919 406 954 919 c 0,57,58
 963 1062 963 1062 966 1099 c 1,59,-1
 960 1099 l 1,60,-1
 680 300 l 1,61,62
 529 -18 529 -18 274 -19 c 0,63,64
 144 -19 144 -19 87 0 c 1,65,66
 92 37 92 37 113.5 78 c 128,-1,67
 135 119 135 119 158 138 c 1,68,69
 231 89 231 89 322 89 c 0,70,71
 460 89 460 89 548 278 c 1,72,-1
 860 1170 l 1,73,74
 874 1200 874 1200 887 1211 c 1,0,-1
EndSplineSet
EndChar

StartChar: N
Encoding: 78 78 49
Width: 1364
GlyphClass: 2
Flags: W
LayerCount: 2
Fore
SplineSet
592 1189 m 1,0,-1
 568 1190 l 1,1,2
 438 1190 438 1190 358.5 1070.5 c 128,-1,3
 279 951 279 951 279 761 c 1,4,5
 230 691 230 691 120 691 c 1,6,7
 120 868 120 868 192 1005 c 128,-1,8
 264 1142 264 1142 408.5 1222.5 c 128,-1,9
 553 1303 553 1303 751 1303 c 1,10,-1
 945 1300 l 2,11,12
 959 1300 959 1300 964 1301 c 1,13,14
 963 1292 963 1292 963 1272 c 1,15,16
 974 1171 974 1171 1002.5 1035 c 128,-1,17
 1031 899 1031 899 1052.5 814.5 c 128,-1,18
 1074 730 1074 730 1122.5 550.5 c 128,-1,19
 1171 371 1171 371 1182 329 c 1,20,-1
 1188 329 l 1,21,22
 1298 770 1298 770 1388 1053 c 0,23,24
 1431 1187 1431 1187 1524 1282 c 0,25,26
 1573 1332 1573 1332 1644.5 1361 c 128,-1,27
 1716 1390 1716 1390 1802 1390 c 0,28,29
 1842 1390 1842 1390 1893 1382 c 1,30,31
 1893 1282 1893 1282 1847 1240 c 1,32,33
 1762 1279 1762 1279 1697 1279 c 128,-1,34
 1632 1279 1632 1279 1588.5 1225.5 c 128,-1,35
 1545 1172 1545 1172 1506 1057.5 c 128,-1,36
 1467 943 1467 943 1362.5 556 c 128,-1,37
 1258 169 1258 169 1192 -17 c 1,38,39
 1169 -24 1169 -24 1106.5 -24 c 128,-1,40
 1044 -24 1044 -24 1031 -17 c 1,41,42
 998 114 998 114 935.5 318.5 c 128,-1,43
 873 523 873 523 826 701.5 c 128,-1,44
 779 880 779 880 753 1058 c 1,45,-1
 747 1059 l 1,46,47
 691 766 691 766 639.5 562 c 128,-1,48
 588 358 588 358 511 153 c 0,49,50
 467 35 467 35 363 -39.5 c 128,-1,51
 259 -114 259 -114 109 -114 c 0,52,53
 76 -114 76 -114 36 -108 c 1,54,55
 36 -66 36 -66 47 -22.5 c 128,-1,56
 58 21 58 21 78 38 c 1,57,58
 180 1 180 1 224 1 c 0,59,60
 292 1 292 1 329.5 41.5 c 128,-1,61
 367 82 367 82 400 180 c 0,62,63
 550 624 550 624 643 1087 c 0,64,65
 656 1151 656 1151 676 1184 c 1,66,-1
 592 1189 l 1,0,-1
EndSplineSet
EndChar

StartChar: O
Encoding: 79 79 50
Width: 1204
GlyphClass: 2
Flags: W
LayerCount: 2
Fore
SplineSet
759.5 724.5 m 128,-1,1
 713 775 713 775 713 855.5 c 128,-1,2
 713 936 713 936 737 1007.5 c 128,-1,3
 761 1079 761 1079 804 1138 c 128,-1,4
 847 1197 847 1197 914.5 1234 c 128,-1,5
 982 1271 982 1271 1062 1271 c 0,6,7
 1186 1271 1186 1271 1272.5 1176.5 c 128,-1,8
 1359 1082 1359 1082 1359 902 c 0,9,10
 1359 708 1359 708 1268 492 c 0,11,12
 1224 390 1224 390 1158 297.5 c 128,-1,13
 1092 205 1092 205 1012.5 134.5 c 128,-1,14
 933 64 933 64 831.5 22.5 c 128,-1,15
 730 -19 730 -19 629 -19 c 128,-1,16
 528 -19 528 -19 456 15.5 c 128,-1,17
 384 50 384 50 340 110 c 0,18,19
 250 232 250 232 250 423 c 0,20,21
 250 656 250 656 370 882 c 0,22,23
 500 1129 500 1129 704 1259 c 0,24,25
 815 1330 815 1330 940 1357 c 1,26,-1
 951 1321 l 1,27,28
 845 1294 845 1294 756 1205 c 128,-1,29
 667 1116 667 1116 612 995.5 c 128,-1,30
 557 875 557 875 527 740.5 c 128,-1,31
 497 606 497 606 497 478 c 0,32,33
 497 306 497 306 551 196 c 128,-1,34
 605 86 605 86 706 86 c 0,35,36
 794 86 794 86 875.5 166 c 128,-1,37
 957 246 957 246 1012 367 c 128,-1,38
 1067 488 1067 488 1100 627 c 128,-1,39
 1133 766 1133 766 1133 890 c 128,-1,40
 1133 1014 1133 1014 1079 1087.5 c 128,-1,41
 1025 1161 1025 1161 958.5 1161 c 128,-1,42
 892 1161 892 1161 848 1102 c 128,-1,43
 804 1043 804 1043 804 934 c 0,44,45
 804 853 804 853 841.5 798.5 c 128,-1,46
 879 744 879 744 946 744 c 0,47,48
 976 744 976 744 1008 755 c 1,49,-1
 1022 730 l 1,50,51
 996 704 996 704 955 689 c 128,-1,52
 914 674 914 674 876 674 c 0,53,0
 806 674 806 674 759.5 724.5 c 128,-1,1
EndSplineSet
EndChar

StartChar: P
Encoding: 80 80 51
Width: 1067
GlyphClass: 2
Flags: W
LayerCount: 2
Fore
SplineSet
896 693 m 1,0,-1
 989 688 l 1,1,2
 1067 688 1067 688 1113.5 759 c 128,-1,3
 1160 830 1160 830 1160 928 c 0,4,5
 1160 1090 1160 1090 1050 1170 c 0,6,7
 990 1214 990 1214 907 1214 c 1,8,-1
 863 1213 l 1,9,10
 830 1160 830 1160 805 1045 c 128,-1,11
 780 930 780 930 759.5 802 c 128,-1,12
 739 674 739 674 711.5 543 c 128,-1,13
 684 412 684 412 633 300 c 128,-1,14
 582 188 582 188 509 133 c 1,15,-1
 515 120 l 1,16,-1
 568 120 l 2,17,18
 639 120 639 120 691.5 132 c 128,-1,19
 744 144 744 144 803 180 c 1,20,-1
 822 152 l 1,21,22
 769 79 769 79 703 39.5 c 128,-1,23
 637 0 637 0 545 0 c 2,24,-1
 215 0 l 1,25,-1
 207 38 l 1,26,27
 312 74 312 74 362 148 c 0,28,29
 404 210 404 210 427 306 c 0,30,31
 548 818 548 818 589 1002 c 0,32,33
 602 1058 602 1058 641 1108.5 c 128,-1,34
 680 1159 680 1159 726 1192 c 1,35,-1
 724 1195 l 1,36,37
 390 1118 390 1118 390 722 c 1,38,39
 356 685 356 685 287 661.5 c 128,-1,40
 218 638 218 638 159 638 c 1,41,42
 193 847 193 847 309 1004 c 128,-1,43
 425 1161 425 1161 590.5 1241 c 128,-1,44
 756 1321 756 1321 954 1321 c 128,-1,45
 1152 1321 1152 1321 1255.5 1236.5 c 128,-1,46
 1359 1152 1359 1152 1359 1022 c 0,47,48
 1359 942 1359 942 1319 860 c 128,-1,49
 1279 778 1279 778 1209 711 c 128,-1,50
 1139 644 1139 644 1033.5 601.5 c 128,-1,51
 928 559 928 559 808 559 c 1,52,53
 810 591 810 591 839 635.5 c 128,-1,54
 868 680 868 680 896 693 c 1,0,-1
EndSplineSet
EndChar

StartChar: Q
Encoding: 81 81 52
Width: 1198
GlyphClass: 2
Flags: W
LayerCount: 2
Fore
SplineSet
709.5 391.5 m 128,-1,1
 622 329 622 329 527.5 329 c 128,-1,2
 433 329 433 329 367 398.5 c 128,-1,3
 301 468 301 468 301 604 c 0,4,5
 301 690 301 690 333.5 789 c 128,-1,6
 366 888 366 888 429 983 c 128,-1,7
 492 1078 492 1078 574.5 1155.5 c 128,-1,8
 657 1233 657 1233 766.5 1280.5 c 128,-1,9
 876 1328 876 1328 992 1328 c 0,10,11
 1162 1328 1162 1328 1246.5 1236.5 c 128,-1,12
 1331 1145 1331 1145 1331 990 c 0,13,14
 1331 798 1331 798 1248.5 599.5 c 128,-1,15
 1166 401 1166 401 1015 242 c 128,-1,16
 864 83 864 83 680 19 c 1,17,18
 704 -18 704 -18 734.5 -73 c 128,-1,19
 765 -128 765 -128 784.5 -162.5 c 128,-1,20
 804 -197 804 -197 831 -232 c 0,21,22
 883 -300 883 -300 955 -300 c 0,23,24
 993 -300 993 -300 1021 -283 c 128,-1,25
 1049 -266 1049 -266 1064.5 -241.5 c 128,-1,26
 1080 -217 1080 -217 1092 -192 c 128,-1,27
 1104 -167 1104 -167 1117.5 -150 c 128,-1,28
 1131 -133 1131 -133 1149 -133 c 0,29,30
 1179 -133 1179 -133 1212 -169 c 128,-1,31
 1245 -205 1245 -205 1245 -231 c 0,32,33
 1245 -288 1245 -288 1151 -330.5 c 128,-1,34
 1057 -373 1057 -373 940 -373 c 0,35,36
 785 -373 785 -373 696.5 -310.5 c 128,-1,37
 608 -248 608 -248 521 -85 c 2,38,-1
 485 -18 l 1,39,40
 477 -19 477 -19 461 -19 c 0,41,42
 344 -19 344 -19 287 17 c 128,-1,43
 230 53 230 53 230 103.5 c 128,-1,44
 230 154 230 154 275.5 193 c 128,-1,45
 321 232 321 232 388 232 c 0,46,47
 512 232 512 232 627 94 c 1,48,49
 753 159 753 159 859 300.5 c 128,-1,50
 965 442 965 442 1024.5 616 c 128,-1,51
 1084 790 1084 790 1084 953 c 0,52,53
 1084 1216 1084 1216 912 1216 c 0,54,55
 845 1216 845 1216 770.5 1172.5 c 128,-1,56
 696 1129 696 1129 634.5 1058 c 128,-1,57
 573 987 573 987 533 886 c 128,-1,58
 493 785 493 785 493 677 c 128,-1,59
 493 569 493 569 527.5 513.5 c 128,-1,60
 562 458 562 458 621 458 c 0,61,62
 711 458 711 458 822 572 c 1,63,-1
 838 557 l 1,64,0
 797 454 797 454 709.5 391.5 c 128,-1,1
299 120 m 0,65,66
 299 93 299 93 336.5 70.5 c 128,-1,67
 374 48 374 48 447 48 c 2,68,-1
 448 48 l 1,69,70
 385 148 385 148 330 148 c 0,71,72
 316 148 316 148 307.5 140 c 128,-1,73
 299 132 299 132 299 120 c 0,65,66
EndSplineSet
EndChar

StartChar: R
Encoding: 82 82 53
Width: 1153
GlyphClass: 2
Flags: W
LayerCount: 2
Fore
SplineSet
849 734 m 1,0,-1
 939 727 l 1,1,2
 1021 727 1021 727 1070.5 805.5 c 128,-1,3
 1120 884 1120 884 1120 983.5 c 128,-1,4
 1120 1083 1120 1083 1070.5 1149.5 c 128,-1,5
 1021 1216 1021 1216 934 1216 c 0,6,7
 914 1216 914 1216 895 1213 c 1,8,9
 862 1160 862 1160 835 1043 c 128,-1,10
 808 926 808 926 786 796 c 128,-1,11
 764 666 764 666 736 534.5 c 128,-1,12
 708 403 708 403 658.5 293 c 128,-1,13
 609 183 609 183 541 133 c 1,14,-1
 547 120 l 1,15,-1
 600 120 l 2,16,17
 671 120 671 120 723.5 132 c 128,-1,18
 776 144 776 144 835 180 c 1,19,-1
 854 152 l 1,20,21
 801 79 801 79 735 39.5 c 128,-1,22
 669 0 669 0 577 0 c 2,23,-1
 247 0 l 1,24,-1
 239 38 l 1,25,26
 344 74 344 74 394 148 c 0,27,28
 436 210 436 210 459 306 c 0,29,30
 580 818 580 818 621 1002 c 0,31,32
 634 1058 634 1058 673 1108.5 c 128,-1,33
 712 1159 712 1159 758 1192 c 1,34,-1
 756 1195 l 1,35,36
 422 1118 422 1118 422 722 c 1,37,38
 388 685 388 685 319 661.5 c 128,-1,39
 250 638 250 638 191 638 c 1,40,41
 225 847 225 847 341 1004 c 128,-1,42
 457 1161 457 1161 622.5 1241 c 128,-1,43
 788 1321 788 1321 967.5 1321 c 128,-1,44
 1147 1321 1147 1321 1232 1245.5 c 128,-1,45
 1317 1170 1317 1170 1317 1054 c 128,-1,46
 1317 938 1317 938 1232 833 c 128,-1,47
 1147 728 1147 728 1008 697 c 1,48,-1
 1008 693 l 1,49,50
 1055 679 1055 679 1091.5 617 c 128,-1,51
 1128 555 1128 555 1148.5 472.5 c 128,-1,52
 1169 390 1169 390 1192 296 c 128,-1,53
 1215 202 1215 202 1234.5 123.5 c 128,-1,54
 1254 45 1254 45 1287.5 -6.5 c 128,-1,55
 1321 -58 1321 -58 1360 -58 c 128,-1,56
 1399 -58 1399 -58 1443 -24 c 1,57,-1
 1465 -66 l 1,58,59
 1350 -206 1350 -206 1260 -206 c 0,60,61
 1209 -206 1209 -206 1165 -160 c 128,-1,62
 1121 -114 1121 -114 1091 -40.5 c 128,-1,63
 1061 33 1061 33 1035 122 c 128,-1,64
 1009 211 1009 211 987.5 300 c 128,-1,65
 966 389 966 389 946 462 c 0,66,67
 901 628 901 628 853 628 c 2,68,-1
 825 628 l 1,69,70
 812 626 812 626 784 624 c 1,71,72
 786 657 786 657 804 689.5 c 128,-1,73
 822 722 822 722 849 734 c 1,0,-1
EndSplineSet
EndChar

StartChar: S
Encoding: 83 83 54
Width: 920
GlyphClass: 2
Flags: W
LayerCount: 2
Fore
SplineSet
940 1332 m 0,0,1
 1050 1332 1050 1332 1110.5 1298 c 128,-1,2
 1171 1264 1171 1264 1171 1212 c 0,3,4
 1171 1142 1171 1142 1073 1081 c 1,5,6
 1064 1153 1064 1153 1006 1195.5 c 128,-1,7
 948 1238 948 1238 875 1238 c 128,-1,8
 802 1238 802 1238 750.5 1194.5 c 128,-1,9
 699 1151 699 1151 699 1070 c 0,10,11
 699 979 699 979 760 898 c 0,12,13
 788 861 788 861 821 823.5 c 128,-1,14
 854 786 854 786 887.5 744 c 128,-1,15
 921 702 921 702 948 656 c 0,16,17
 1010 552 1010 552 1010 413 c 0,18,19
 1010 306 1010 306 968.5 222.5 c 128,-1,20
 927 139 927 139 855 87 c 0,21,22
 708 -19 708 -19 488 -19 c 0,23,24
 358 -19 358 -19 252 48 c 0,25,26
 200 81 200 81 168.5 138.5 c 128,-1,27
 137 196 137 196 137 268 c 0,28,29
 137 391 137 391 210.5 470 c 128,-1,30
 284 549 284 549 417 549 c 0,31,32
 499 549 499 549 555.5 495 c 128,-1,33
 612 441 612 441 612 353 c 0,34,35
 612 341 612 341 611 334 c 1,36,-1
 580 331 l 1,37,38
 571 385 571 385 533.5 413.5 c 128,-1,39
 496 442 496 442 447 442 c 0,40,41
 378 442 378 442 332.5 390 c 128,-1,42
 287 338 287 338 287 264 c 0,43,44
 287 164 287 164 350.5 111.5 c 128,-1,45
 414 59 414 59 508 59 c 0,46,47
 580 59 580 59 646 89 c 128,-1,48
 712 119 712 119 756.5 181 c 128,-1,49
 801 243 801 243 801 325 c 0,50,51
 801 418 801 418 743 500 c 0,52,53
 717 536 717 536 686 572.5 c 128,-1,54
 655 609 655 609 623.5 648 c 128,-1,55
 592 687 592 687 566 728 c 0,56,57
 508 821 508 821 508 938 c 0,58,59
 508 1099 508 1099 637.5 1215.5 c 128,-1,60
 767 1332 767 1332 940 1332 c 0,0,1
EndSplineSet
EndChar

StartChar: T
Encoding: 84 84 55
Width: 995
GlyphClass: 2
Flags: W
LayerCount: 2
Fore
SplineSet
939 1314 m 2,0,-1
 1247 1314 l 2,1,2
 1473 1314 1473 1314 1532 1315 c 1,3,4
 1521 1246 1521 1246 1479 1214 c 128,-1,5
 1437 1182 1437 1182 1341 1182 c 0,6,7
 1309 1182 1309 1182 1292 1183 c 2,8,-1
 997 1193 l 1,9,-1
 881 841 l 2,10,11
 832 695 832 695 791 565 c 1,12,13
 725 361 725 361 693 285 c 0,14,15
 646 175 646 175 543 123 c 1,16,-1
 546 118 l 1,17,18
 601 113 601 113 637 113 c 128,-1,19
 673 113 673 113 704 116 c 128,-1,20
 735 119 735 119 787.5 136.5 c 128,-1,21
 840 154 840 154 901 191 c 1,22,-1
 921 160 l 1,23,24
 870 81 870 81 804 39.5 c 128,-1,25
 738 -2 738 -2 644 -2 c 2,26,-1
 234 -2 l 1,27,-1
 225 36 l 1,28,29
 410 69 410 69 491 307 c 0,30,31
 565 522 565 522 629.5 731.5 c 128,-1,32
 694 941 694 941 735 1037.5 c 128,-1,33
 776 1134 776 1134 824 1193 c 1,34,-1
 632 1193 l 2,35,36
 453 1193 453 1193 370 1109 c 128,-1,37
 287 1025 287 1025 257 802 c 1,38,39
 230 761 230 761 152 709 c 128,-1,40
 74 657 74 657 30 657 c 1,41,42
 58 866 58 866 164.5 1016.5 c 128,-1,43
 271 1167 271 1167 489 1278 c 0,44,45
 544 1306 544 1306 697 1312 c 0,46,47
 768 1314 768 1314 939 1314 c 2,0,-1
EndSplineSet
EndChar

StartChar: U
Encoding: 85 85 56
Width: 1425
GlyphClass: 2
Flags: W
LayerCount: 2
Fore
SplineSet
1364.5 532 m 128,-1,1
 1324 363 1324 363 1311 310.5 c 128,-1,2
 1298 258 1298 258 1298 212.5 c 128,-1,3
 1298 167 1298 167 1325 141 c 128,-1,4
 1352 115 1352 115 1405 115 c 128,-1,5
 1458 115 1458 115 1544 169 c 1,6,-1
 1564 138 l 1,7,8
 1398 -18 1398 -18 1261 -18 c 0,9,10
 1183 -18 1183 -18 1139.5 32.5 c 128,-1,11
 1096 83 1096 83 1096 167.5 c 128,-1,12
 1096 252 1096 252 1139 403 c 1,13,-1
 1130 411 l 1,14,15
 1046 234 1046 234 912 108 c 128,-1,16
 778 -18 778 -18 647 -18 c 0,17,18
 551 -18 551 -18 504 51 c 128,-1,19
 457 120 457 120 457 226 c 128,-1,20
 457 332 457 332 490 458 c 0,21,22
 588 841 588 841 635.5 997 c 128,-1,23
 683 1153 683 1153 732 1221 c 1,24,-1
 614 1221 l 2,25,26
 521 1221 521 1221 448 1159 c 128,-1,27
 375 1097 375 1097 336.5 996 c 128,-1,28
 298 895 298 895 298 775 c 1,29,30
 222 721 222 721 111 721 c 1,31,32
 111 988 111 988 293.5 1152 c 128,-1,33
 476 1316 476 1316 771 1316 c 2,34,-1
 985 1316 l 1,35,-1
 990 1291 l 1,36,37
 968 1277 968 1277 938 1240.5 c 128,-1,38
 908 1204 908 1204 892 1156 c 0,39,40
 681 525 681 525 681 274 c 0,41,42
 681 204 681 204 700.5 168.5 c 128,-1,43
 720 133 720 133 773 133 c 128,-1,44
 826 133 826 133 893.5 187.5 c 128,-1,45
 961 242 961 242 1016.5 324.5 c 128,-1,46
 1072 407 1072 407 1116.5 499 c 128,-1,47
 1161 591 1161 591 1183 671 c 2,48,-1
 1319 1157 l 2,49,50
 1350 1268 1350 1268 1454 1291 c 0,51,52
 1509 1303 1509 1303 1604 1303 c 1,53,-1
 1611 1284 l 1,54,55
 1565 1245 1565 1245 1536.5 1165.5 c 128,-1,56
 1508 1086 1508 1086 1476.5 972.5 c 128,-1,57
 1445 859 1445 859 1425 780 c 128,-1,0
 1405 701 1405 701 1364.5 532 c 128,-1,1
EndSplineSet
EndChar

StartChar: V
Encoding: 86 86 57
Width: 1249
GlyphClass: 2
Flags: W
LayerCount: 2
Fore
SplineSet
1271 1188 m 1,0,-1
 1267 1206 l 1,1,2
 1299 1232 1299 1232 1348.5 1253 c 128,-1,3
 1398 1274 1398 1274 1451.5 1274 c 128,-1,4
 1505 1274 1505 1274 1544.5 1255.5 c 128,-1,5
 1584 1237 1584 1237 1584 1198 c 0,6,7
 1584 1177 1584 1177 1575 1156 c 0,8,9
 1480 934 1480 934 1320 680 c 0,10,11
 1202 493 1202 493 1108 355.5 c 128,-1,12
 1014 218 1014 218 998.5 194.5 c 128,-1,13
 983 171 983 171 975.5 160.5 c 128,-1,14
 968 150 968 150 953.5 130 c 128,-1,15
 939 110 939 110 929.5 98.5 c 128,-1,16
 920 87 920 87 907 73 c 0,17,18
 884 48 884 48 857 33.5 c 128,-1,19
 830 19 830 19 774.5 9.5 c 128,-1,20
 719 0 719 0 686 0 c 1,21,-1
 678 32 l 1,22,23
 713 96 713 96 743.5 319 c 128,-1,24
 774 542 774 542 774 748.5 c 128,-1,25
 774 955 774 955 744.5 1076 c 128,-1,26
 715 1197 715 1197 652 1197 c 0,27,28
 545 1197 545 1197 456 1096 c 0,29,30
 412 1045 412 1045 379 957.5 c 128,-1,31
 346 870 346 870 332 756 c 1,32,33
 267 703 267 703 144 692 c 1,34,35
 161 967 161 967 332.5 1140 c 128,-1,36
 504 1313 504 1313 753 1313 c 0,37,38
 997 1313 997 1313 997 850 c 0,39,40
 997 726 997 726 975 512.5 c 128,-1,41
 953 299 953 299 953 292 c 1,42,-1
 962 288 l 1,43,44
 1125 523 1125 523 1227.5 703.5 c 128,-1,45
 1330 884 1330 884 1391 1069 c 0,46,47
 1400 1096 1400 1096 1400 1116 c 0,48,49
 1400 1156 1400 1156 1367.5 1171 c 128,-1,50
 1335 1186 1335 1186 1271 1188 c 1,0,-1
EndSplineSet
EndChar

StartChar: W
Encoding: 87 87 58
Width: 1653
GlyphClass: 2
Flags: W
LayerCount: 2
Fore
SplineSet
1356 645 m 1,0,-1
 1365 237 l 1,1,-1
 1374 234 l 1,2,3
 1377 239 1377 239 1384.5 249 c 128,-1,4
 1392 259 1392 259 1422.5 304.5 c 128,-1,5
 1453 350 1453 350 1491.5 408 c 128,-1,6
 1530 466 1530 466 1595 574.5 c 128,-1,7
 1660 683 1660 683 1699 766 c 128,-1,8
 1738 849 1738 849 1769 946 c 128,-1,9
 1800 1043 1800 1043 1800 1116 c 0,10,11
 1800 1156 1800 1156 1767.5 1171 c 128,-1,12
 1735 1186 1735 1186 1671 1188 c 1,13,-1
 1667 1206 l 1,14,15
 1699 1232 1699 1232 1748.5 1253 c 128,-1,16
 1798 1274 1798 1274 1854 1274 c 0,17,18
 1973 1274 1973 1274 1973 1167 c 0,19,20
 1973 1086 1973 1086 1914 948 c 128,-1,21
 1855 810 1855 810 1772 672 c 0,22,23
 1610 405 1610 405 1506 272 c 2,24,-1
 1380 110 l 2,25,26
 1324 37 1324 37 1266 9 c 128,-1,27
 1208 -19 1208 -19 1113 -19 c 1,28,-1
 1106 16 l 1,29,30
 1172 63 1172 63 1172 296 c 1,31,-1
 1169 616 l 1,32,33
 1169 732 1169 732 1175 850 c 1,34,35
 1145 782 1145 782 1064 588 c 128,-1,36
 983 394 983 394 929.5 282 c 128,-1,37
 876 170 876 170 821 87 c 0,38,39
 788 37 788 37 710.5 11 c 128,-1,40
 633 -15 633 -15 556 -19 c 1,41,-1
 552 32 l 1,42,43
 588 98 588 98 623 322.5 c 128,-1,44
 658 547 658 547 658 757.5 c 128,-1,45
 658 968 658 968 620.5 1081 c 128,-1,46
 583 1194 583 1194 526.5 1194 c 128,-1,47
 470 1194 470 1194 417 1079.5 c 128,-1,48
 364 965 364 965 336 756 c 1,49,50
 315 729 315 729 258 710.5 c 128,-1,51
 201 692 201 692 148 692 c 1,52,53
 148 823 148 823 189 940.5 c 128,-1,54
 230 1058 230 1058 295 1136 c 128,-1,55
 360 1214 360 1214 440.5 1259.5 c 128,-1,56
 521 1305 521 1305 601 1305 c 0,57,58
 723 1305 723 1305 802 1192 c 128,-1,59
 881 1079 881 1079 881 850 c 0,60,61
 881 728 881 728 855 534 c 128,-1,62
 829 340 829 340 827 312 c 1,63,-1
 836 308 l 1,64,65
 909 441 909 441 1046 774.5 c 128,-1,66
 1183 1108 1183 1108 1222 1192 c 0,67,68
 1237 1224 1237 1224 1264 1247 c 128,-1,69
 1291 1270 1291 1270 1318.5 1281.5 c 128,-1,70
 1346 1293 1346 1293 1388 1299 c 0,71,72
 1444 1307 1444 1307 1528 1307 c 1,73,-1
 1535 1285 l 1,74,75
 1460 1208 1460 1208 1420 1104 c 0,76,77
 1356 939 1356 939 1356 645 c 1,0,-1
EndSplineSet
EndChar

StartChar: X
Encoding: 88 88 59
Width: 1100
GlyphClass: 2
Flags: W
LayerCount: 2
Fore
SplineSet
384.5 1309.5 m 128,-1,1
 462 1340 462 1340 539 1340 c 128,-1,2
 616 1340 616 1340 659.5 1318 c 128,-1,3
 703 1296 703 1296 727 1274 c 128,-1,4
 751 1252 751 1252 771.5 1184 c 128,-1,5
 792 1116 792 1116 798.5 1082.5 c 128,-1,6
 805 1049 805 1049 813.5 994 c 128,-1,7
 822 939 822 939 823 936 c 1,8,9
 937 1125 937 1125 994 1192 c 0,10,11
 1066 1275 1066 1275 1120 1307 c 0,12,13
 1194 1350 1194 1350 1270.5 1350 c 128,-1,14
 1347 1350 1347 1350 1436 1317 c 1,15,16
 1430 1276 1430 1276 1405 1239.5 c 128,-1,17
 1380 1203 1380 1203 1342 1184 c 1,18,19
 1263 1245 1263 1245 1203.5 1245 c 128,-1,20
 1144 1245 1144 1245 1091 1165 c 2,21,-1
 844 792 l 1,22,23
 889 460 889 460 918 341 c 0,24,25
 972 124 972 124 1055 124 c 0,26,27
 1120 124 1120 124 1218 205 c 1,28,-1
 1242 179 l 1,29,30
 1216 148 1216 148 1195 126 c 128,-1,31
 1174 104 1174 104 1137 74.5 c 128,-1,32
 1100 45 1100 45 1063 26 c 0,33,34
 972 -19 972 -19 862 -19 c 0,35,36
 786 -19 786 -19 743 49 c 0,37,38
 695 125 695 125 677 204 c 0,39,40
 650 321 650 321 630 459 c 1,41,42
 455 180 455 180 352 68 c 0,43,44
 240 -53 240 -53 144 -105 c 0,45,46
 27 -169 27 -169 -99 -169 c 0,47,48
 -180 -169 -180 -169 -224 -164 c 1,49,50
 -217 -116 -217 -116 -194 -67 c 128,-1,51
 -171 -18 -171 -18 -141 0 c 1,52,53
 -42 -30 -42 -30 5.5 -30 c 128,-1,54
 53 -30 53 -30 98 -12.5 c 128,-1,55
 143 5 143 5 181 31.5 c 128,-1,56
 219 58 219 58 261.5 103 c 128,-1,57
 304 148 304 148 336 189.5 c 128,-1,58
 368 231 368 231 408.5 292.5 c 128,-1,59
 449 354 449 354 476.5 399.5 c 128,-1,60
 504 445 504 445 544.5 512.5 c 128,-1,61
 585 580 585 580 610 620 c 1,62,63
 600 712 600 712 591.5 823.5 c 128,-1,64
 583 935 583 935 576 996 c 128,-1,65
 569 1057 569 1057 560 1096 c 128,-1,66
 551 1135 551 1135 537 1170 c 0,67,68
 510 1237 510 1237 454 1237 c 0,69,70
 276 1237 276 1237 269 883 c 1,71,72
 244 848 244 848 187.5 829 c 128,-1,73
 131 810 131 810 78 806 c 1,74,75
 108 1090 108 1090 254 1229 c 0,76,0
 307 1279 307 1279 384.5 1309.5 c 128,-1,1
EndSplineSet
EndChar

StartChar: Y
Encoding: 89 89 60
Width: 1106
GlyphClass: 2
Flags: W
LayerCount: 2
Fore
SplineSet
667 1322 m 0,0,1
 759 1322 759 1322 827.5 1286 c 128,-1,2
 896 1250 896 1250 936 1184 c 1,3,4
 1015 1058 1015 1058 1015 846 c 0,5,6
 1015 685 1015 685 994 529 c 1,7,-1
 997 528 l 1,8,9
 1302 894 1302 894 1302 1144 c 0,10,11
 1302 1178 1302 1178 1282 1191 c 128,-1,12
 1262 1204 1262 1204 1209 1204 c 0,13,14
 1198 1204 1198 1204 1191 1211.5 c 128,-1,15
 1184 1219 1184 1219 1184 1229 c 0,16,17
 1184 1257 1184 1257 1220 1292.5 c 128,-1,18
 1256 1328 1256 1328 1284 1328 c 0,19,20
 1366 1328 1366 1328 1418.5 1306.5 c 128,-1,21
 1471 1285 1471 1285 1471 1237 c 0,22,23
 1471 1060 1471 1060 1324 809.5 c 128,-1,24
 1177 559 1177 559 958 328 c 1,25,26
 888 25 888 25 740 -170 c 0,27,28
 666 -266 666 -266 569.5 -319.5 c 128,-1,29
 473 -373 473 -373 362 -373 c 0,30,31
 221 -373 221 -373 62 -284 c 1,32,33
 62 -238 62 -238 88 -190.5 c 128,-1,34
 114 -143 114 -143 140.5 -143 c 128,-1,35
 167 -143 167 -143 219.5 -177.5 c 128,-1,36
 272 -212 272 -212 331 -246.5 c 128,-1,37
 390 -281 390 -281 432 -281 c 0,38,39
 518 -281 518 -281 605 -116 c 128,-1,40
 692 49 692 49 745 285.5 c 128,-1,41
 798 522 798 522 798 730 c 0,42,43
 798 941 798 941 740 1072 c 0,44,45
 711 1139 711 1139 661.5 1176.5 c 128,-1,46
 612 1214 612 1214 548 1214 c 128,-1,47
 484 1214 484 1214 437 1181.5 c 128,-1,48
 390 1149 390 1149 362 1094 c 0,49,50
 307 983 307 983 307 836 c 1,51,52
 248 803 248 803 132 803 c 1,53,54
 132 1031 132 1031 282 1176.5 c 128,-1,55
 432 1322 432 1322 667 1322 c 0,0,1
EndSplineSet
EndChar

StartChar: Z
Encoding: 90 90 61
Width: 1143
GlyphClass: 2
Flags: W
LayerCount: 2
Fore
SplineSet
1206 1073 m 1,0,1
 1171 1058 1171 1058 1124 1058 c 128,-1,2
 1077 1058 1077 1058 1010.5 1085 c 128,-1,3
 944 1112 944 1112 875 1139.5 c 128,-1,4
 806 1167 806 1167 749 1167 c 0,5,6
 669 1167 669 1167 638 1102.5 c 128,-1,7
 607 1038 607 1038 607 881 c 1,8,9
 545 828 545 828 418 812 c 1,10,11
 418 1018 418 1018 530 1160 c 0,12,13
 586 1230 586 1230 677 1270.5 c 128,-1,14
 768 1311 768 1311 870 1311 c 128,-1,15
 972 1311 972 1311 1104 1287 c 128,-1,16
 1236 1263 1236 1263 1295 1263 c 0,17,18
 1408 1263 1408 1263 1493 1318 c 1,19,-1
 1525 1289 l 1,20,21
 1327 1028 1327 1028 1017.5 712.5 c 128,-1,22
 708 397 708 397 464 181 c 1,23,-1
 468 175 l 1,24,25
 592 173 592 173 754 73 c 0,26,27
 822 31 822 31 889 -11 c 0,28,29
 1049 -111 1049 -111 1165 -111 c 128,-1,30
 1281 -111 1281 -111 1344 -62 c 1,31,-1
 1375 -80 l 1,32,33
 1268 -340 1268 -340 1090 -340 c 0,34,35
 1020 -340 1020 -340 933.5 -300.5 c 128,-1,36
 847 -261 847 -261 766.5 -205 c 128,-1,37
 686 -149 686 -149 607 -93 c 0,38,39
 417 42 417 42 309 42 c 0,40,41
 272 42 272 42 214 30 c 1,42,-1
 193 59 l 1,43,44
 428 318 428 318 720.5 606.5 c 128,-1,45
 1013 895 1013 895 1211 1067 c 1,46,-1
 1206 1073 l 1,0,1
EndSplineSet
EndChar

StartChar: bracketleft
Encoding: 91 91 62
Width: 516
GlyphClass: 2
Flags: W
LayerCount: 2
Fore
SplineSet
422 1423 m 1,0,-1
 843 1423 l 1,1,-1
 807 1373 l 1,2,-1
 598 1373 l 1,3,4
 377 450 377 450 265 -98 c 1,5,-1
 505 -98 l 1,6,-1
 468 -151 l 1,7,-1
 71 -151 l 1,8,9
 211 528 211 528 422 1423 c 1,0,-1
EndSplineSet
EndChar

StartChar: backslash
Encoding: 92 92 63
Width: 885
GlyphClass: 2
Flags: W
LayerCount: 2
Fore
SplineSet
574 1474 m 1,0,-1
 809 -340 l 1,1,-1
 683 -340 l 1,2,-1
 447 1474 l 1,3,-1
 574 1474 l 1,0,-1
EndSplineSet
EndChar

StartChar: bracketright
Encoding: 93 93 64
Width: 664
GlyphClass: 2
Flags: W
LayerCount: 2
Fore
SplineSet
429 -151 m 1,0,-1
 8 -151 l 1,1,-1
 44 -101 l 1,2,-1
 253 -101 l 1,3,4
 474 822 474 822 586 1370 c 1,5,-1
 346 1370 l 1,6,-1
 383 1423 l 1,7,-1
 780 1423 l 1,8,9
 640 744 640 744 429 -151 c 1,0,-1
EndSplineSet
EndChar

StartChar: asciicircum
Encoding: 94 94 65
Width: 958
GlyphClass: 2
Flags: W
LayerCount: 2
Fore
SplineSet
552 1323 m 2,0,1
 563 1326 563 1326 596 1326 c 128,-1,2
 629 1326 629 1326 661 1310 c 1,3,4
 661 1251 661 1251 777.5 1055 c 128,-1,5
 894 859 894 859 950 810 c 1,6,-1
 919 775 l 1,7,8
 783 868 783 868 710 955 c 128,-1,9
 637 1042 637 1042 585 1175 c 1,10,11
 523 1059 523 1059 400 952 c 128,-1,12
 277 845 277 845 160 793 c 1,13,-1
 130 829 l 1,14,15
 201 867 201 867 355.5 1054 c 128,-1,16
 510 1241 510 1241 537 1318 c 1,17,-1
 552 1323 l 2,0,1
EndSplineSet
EndChar

StartChar: underscore
Encoding: 95 95 66
Width: 922
GlyphClass: 2
Flags: W
LayerCount: 2
Fore
SplineSet
61 -151 m 1,0,-1
 1075 -151 l 1,1,-1
 1005 -256 l 1,2,-1
 -13 -256 l 1,3,-1
 61 -151 l 1,0,-1
EndSplineSet
EndChar

StartChar: grave
Encoding: 96 96 67
Width: 442
GlyphClass: 2
Flags: W
LayerCount: 2
Fore
SplineSet
451 1271 m 1,0,-1
 592 1295 l 1,1,2
 618 1218 618 1218 675 1146.5 c 128,-1,3
 732 1075 732 1075 798 1038 c 1,4,-1
 765 1006 l 1,5,6
 658 1047 658 1047 570.5 1116.5 c 128,-1,7
 483 1186 483 1186 451 1271 c 1,0,-1
EndSplineSet
EndChar

StartChar: a
Encoding: 97 97 68
Width: 870
GlyphClass: 2
Flags: W
LayerCount: 2
Fore
SplineSet
828.5 89.5 m 128,-1,1
 703 -19 703 -19 625.5 -19 c 128,-1,2
 548 -19 548 -19 548 46 c 0,3,4
 548 128 548 128 651 454 c 1,5,-1
 640 458 l 1,6,7
 567 323 567 323 443 162 c 0,8,9
 382 82 382 82 320.5 28 c 128,-1,10
 259 -26 259 -26 222 -26 c 0,11,12
 153 -26 153 -26 153 105 c 0,13,14
 153 293 153 293 239 508 c 0,15,16
 308 680 308 680 427.5 774.5 c 128,-1,17
 547 869 547 869 742 869 c 0,18,19
 866 869 866 869 958 855 c 1,20,21
 885 535 885 535 744 107 c 1,22,-1
 747 104 l 1,23,24
 903 196 903 196 1003 329 c 1,25,-1
 1024 311 l 1,26,0
 954 198 954 198 828.5 89.5 c 128,-1,1
740 770 m 1,27,28
 720 780 720 780 652.5 780 c 128,-1,29
 585 780 585 780 543 764 c 128,-1,30
 501 748 501 748 472.5 711 c 128,-1,31
 444 674 444 674 426 627.5 c 128,-1,32
 408 581 408 581 390.5 508.5 c 128,-1,33
 373 436 373 436 358.5 321 c 128,-1,34
 344 206 344 206 344 150 c 1,35,36
 466 261 466 261 593.5 460.5 c 128,-1,37
 721 660 721 660 740 770 c 1,27,28
EndSplineSet
EndChar

StartChar: b
Encoding: 98 98 69
Width: 893
GlyphClass: 2
Flags: W
LayerCount: 2
Fore
SplineSet
809 621 m 0,0,1
 809 711 809 711 768 711 c 0,2,3
 722 711 722 711 645 613 c 128,-1,4
 568 515 568 515 501 370.5 c 128,-1,5
 434 226 434 226 419 109 c 1,6,7
 442 86 442 86 499 86 c 0,8,9
 574 86 574 86 646.5 164 c 128,-1,10
 719 242 719 242 764 367 c 128,-1,11
 809 492 809 492 809 621 c 0,0,1
823 859.5 m 128,-1,13
 883 898 883 898 928 898 c 0,14,15
 1020 898 1020 898 1020 742 c 0,16,17
 1020 650 1020 650 983 542.5 c 128,-1,18
 946 435 946 435 881.5 337.5 c 128,-1,19
 817 240 817 240 738 159 c 128,-1,20
 659 78 659 78 566 29.5 c 128,-1,21
 473 -19 473 -19 396.5 -19 c 128,-1,22
 320 -19 320 -19 280 13 c 128,-1,23
 240 45 240 45 240 74.5 c 128,-1,24
 240 104 240 104 262 190 c 128,-1,25
 284 276 284 276 340 495.5 c 128,-1,26
 396 715 396 715 452 970 c 0,27,28
 500 1187 500 1187 655 1332.5 c 128,-1,29
 810 1478 810 1478 1004 1478 c 0,30,31
 1084 1478 1084 1478 1120 1468 c 1,32,33
 1100 1381 1100 1381 1037 1335 c 1,34,35
 926 1372 926 1372 885 1372 c 128,-1,36
 844 1372 844 1372 814.5 1355 c 128,-1,37
 785 1338 785 1338 763 1305.5 c 128,-1,38
 741 1273 741 1273 722.5 1234 c 128,-1,39
 704 1195 704 1195 689 1142 c 0,40,41
 665 1056 665 1056 650 989.5 c 128,-1,42
 635 923 635 923 634 920 c 2,43,-1
 555 569 l 1,44,-1
 560 567 l 1,45,46
 599 648 599 648 711 766 c 0,47,12
 763 821 763 821 823 859.5 c 128,-1,13
EndSplineSet
EndChar

StartChar: c
Encoding: 99 99 70
Width: 700
GlyphClass: 2
Flags: W
LayerCount: 2
Fore
SplineSet
652 797 m 0,0,1
 589 797 589 797 525.5 693 c 128,-1,2
 462 589 462 589 424 452 c 128,-1,3
 386 315 386 315 386 210 c 0,4,5
 386 81 386 81 448 81 c 0,6,7
 512 81 512 81 608.5 144 c 128,-1,8
 705 207 705 207 779 302 c 1,9,-1
 803 281 l 1,10,11
 681 116 681 116 575.5 48.5 c 128,-1,12
 470 -19 470 -19 354 -19 c 0,13,14
 164 -19 164 -19 164 191 c 0,15,16
 164 275 164 275 194 373 c 128,-1,17
 224 471 224 471 279 562 c 128,-1,18
 334 653 334 653 403.5 728.5 c 128,-1,19
 473 804 473 804 559 849.5 c 128,-1,20
 645 895 645 895 739.5 895 c 128,-1,21
 834 895 834 895 891 859 c 1,22,23
 876 827 876 827 846 784.5 c 128,-1,24
 816 742 816 742 796 725 c 1,25,26
 760 761 760 761 727 779 c 128,-1,27
 694 797 694 797 652 797 c 0,0,1
EndSplineSet
EndChar

StartChar: d
Encoding: 100 100 71
Width: 897
GlyphClass: 2
Flags: W
LayerCount: 2
Fore
SplineSet
638 -17 m 0,0,1
 547 -17 547 -17 547 78 c 0,2,3
 547 120 547 120 559.5 173 c 128,-1,4
 572 226 572 226 601 313.5 c 128,-1,5
 630 401 630 401 640 435 c 1,6,-1
 629 439 l 1,7,8
 567 327 567 327 454 172 c 0,9,10
 394 91 394 91 332 36 c 128,-1,11
 270 -19 270 -19 227 -19 c 0,12,13
 153 -19 153 -19 153 145 c 0,14,15
 153 335 153 335 240 523 c 0,16,17
 284 618 284 618 344.5 694.5 c 128,-1,18
 405 771 405 771 490 818.5 c 128,-1,19
 575 866 575 866 670 866 c 0,20,21
 740 866 740 866 759 858 c 1,22,-1
 809 1049 l 2,23,24
 836 1155 836 1155 899.5 1240 c 128,-1,25
 963 1325 963 1325 1040 1375 c 0,26,27
 1200 1478 1200 1478 1345 1478 c 0,28,29
 1396 1478 1396 1478 1449 1467 c 1,30,31
 1447 1451 1447 1451 1416.5 1399.5 c 128,-1,32
 1386 1348 1386 1348 1367 1333 c 1,33,34
 1350 1345 1350 1345 1304 1359 c 128,-1,35
 1258 1373 1258 1373 1221.5 1373 c 128,-1,36
 1185 1373 1185 1373 1154 1356 c 128,-1,37
 1123 1339 1123 1339 1098 1299 c 128,-1,38
 1073 1259 1073 1259 1056 1225.5 c 128,-1,39
 1039 1192 1039 1192 1020 1124 c 0,40,41
 993 1030 993 1030 978.5 963.5 c 128,-1,42
 964 897 964 897 962.5 890.5 c 128,-1,43
 961 884 961 884 959 873.5 c 128,-1,44
 957 863 957 863 955 855 c 0,45,46
 893 580 893 580 847 418.5 c 128,-1,47
 801 257 801 257 744 112 c 1,48,-1
 748 108 l 1,49,50
 858 172 858 172 1000 329 c 1,51,-1
 1024 308 l 1,52,53
 901 158 901 158 804.5 70.5 c 128,-1,54
 708 -17 708 -17 638 -17 c 0,0,1
737 770 m 1,55,56
 717 780 717 780 646.5 780 c 128,-1,57
 576 780 576 780 514.5 732.5 c 128,-1,58
 453 685 453 685 416 606 c 0,59,60
 339 445 339 445 339 236 c 0,61,62
 339 201 339 201 344.5 186.5 c 128,-1,63
 350 172 350 172 364 172 c 0,64,65
 392 172 392 172 474.5 283.5 c 128,-1,66
 557 395 557 395 637 541 c 128,-1,67
 717 687 717 687 737 770 c 1,55,56
EndSplineSet
EndChar

StartChar: e
Encoding: 101 101 72
Width: 723
GlyphClass: 2
Flags: W
LayerCount: 2
Fore
SplineSet
669 824 m 0,0,1
 611 824 611 824 556 769 c 0,2,3
 452 663 452 663 402 443 c 1,4,5
 525 475 525 475 615 574 c 128,-1,6
 705 673 705 673 705 768 c 0,7,8
 705 824 705 824 669 824 c 0,0,1
563 847 m 128,-1,10
 655 894 655 894 740 894 c 128,-1,11
 825 894 825 894 861.5 866 c 128,-1,12
 898 838 898 838 898 773 c 128,-1,13
 898 708 898 708 852 643.5 c 128,-1,14
 806 579 806 579 730 532 c 0,15,16
 580 440 580 440 392 399 c 1,17,18
 364 291 364 291 364 193 c 0,19,20
 364 77 364 77 421 77 c 0,21,22
 503 77 503 77 634 176 c 1,23,24
 710 232 710 232 771 310 c 1,25,-1
 797 295 l 1,26,27
 688 147 688 147 567.5 65 c 128,-1,28
 447 -17 447 -17 324 -17 c 0,29,30
 231 -17 231 -17 187 33 c 128,-1,31
 143 83 143 83 143 169.5 c 128,-1,32
 143 256 143 256 175 356 c 128,-1,33
 207 456 207 456 265.5 550.5 c 128,-1,34
 324 645 324 645 397.5 722.5 c 128,-1,9
 471 800 471 800 563 847 c 128,-1,10
EndSplineSet
EndChar

StartChar: f
Encoding: 102 102 73
Width: 682
GlyphClass: 2
Flags: W
LayerCount: 2
Fore
SplineSet
1077 1478 m 0,0,1
 1173 1478 1173 1478 1249 1446 c 1,2,3
 1246 1412 1246 1412 1221.5 1369 c 128,-1,4
 1197 1326 1197 1326 1166 1302 c 1,5,6
 1012 1372 1012 1372 940 1372 c 0,7,8
 855 1372 855 1372 804 1286.5 c 128,-1,9
 753 1201 753 1201 712 1020 c 0,10,11
 690 923 690 923 669 866 c 1,12,-1
 963 879 l 1,13,14
 930 820 930 820 908 813 c 0,15,16
 876 804 876 804 652 787 c 1,17,-1
 495 131 l 2,18,19
 465 7 465 7 424 -81.5 c 128,-1,20
 383 -170 383 -170 319 -238 c 0,21,22
 192 -373 192 -373 -58 -373 c 0,23,24
 -123 -373 -123 -373 -199 -357 c 1,25,26
 -193 -307 -193 -307 -171.5 -266 c 128,-1,27
 -150 -225 -150 -225 -116 -207 c 1,28,29
 -69 -224 -69 -224 -2.5 -239.5 c 128,-1,30
 64 -255 64 -255 105 -255 c 0,31,32
 163 -255 163 -255 195 -206.5 c 128,-1,33
 227 -158 227 -158 258 -35 c 2,34,-1
 460 776 l 1,35,-1
 254 771 l 1,36,37
 274 830 274 830 318 855 c 1,38,39
 399 856 399 856 481 858 c 1,40,41
 484 873 484 873 512 990 c 0,42,43
 565 1210 565 1210 722.5 1344 c 128,-1,44
 880 1478 880 1478 1077 1478 c 0,0,1
EndSplineSet
EndChar

StartChar: g
Encoding: 103 103 74
Width: 836
GlyphClass: 2
Flags: W
LayerCount: 2
Fore
SplineSet
782 869 m 2,0,-1
 995 869 l 1,1,2
 968 760 968 760 912 514.5 c 128,-1,3
 856 269 856 269 821 131 c 0,4,5
 760 -110 760 -110 616.5 -241.5 c 128,-1,6
 473 -373 473 -373 246 -373 c 0,7,8
 171 -373 171 -373 87 -354 c 1,9,10
 123 -252 123 -252 173 -226 c 1,11,12
 178 -227 178 -227 204.5 -234 c 128,-1,13
 231 -241 231 -241 248 -245 c 128,-1,14
 265 -249 265 -249 290 -254 c 0,15,16
 339 -265 339 -265 385 -265 c 128,-1,17
 431 -265 431 -265 462.5 -256 c 128,-1,18
 494 -247 494 -247 519 -216.5 c 128,-1,19
 544 -186 544 -186 559 -144 c 128,-1,20
 574 -102 574 -102 596.5 -18 c 128,-1,21
 619 66 619 66 652.5 215 c 128,-1,22
 686 364 686 364 700 416 c 1,23,-1
 689 420 l 1,24,25
 673 379 673 379 620.5 305.5 c 128,-1,26
 568 232 568 232 504.5 159.5 c 128,-1,27
 441 87 441 87 372.5 34 c 128,-1,28
 304 -19 304 -19 263 -19 c 0,29,30
 196 -19 196 -19 196 101 c 128,-1,31
 196 221 196 221 219.5 331.5 c 128,-1,32
 243 442 243 442 292 539.5 c 128,-1,33
 341 637 341 637 409 710.5 c 128,-1,34
 477 784 477 784 573.5 826.5 c 128,-1,35
 670 869 670 869 782 869 c 2,0,-1
664 780 m 0,36,37
 600 780 600 780 549.5 736 c 128,-1,38
 499 692 499 692 470 629 c 128,-1,39
 441 566 441 566 422 490 c 0,40,41
 390 361 390 361 390 259 c 0,42,43
 390 185 390 185 426 185 c 0,44,45
 467 185 467 185 549.5 297 c 128,-1,46
 632 409 632 409 710.5 565 c 128,-1,47
 789 721 789 721 789 770 c 0,48,49
 789 774 789 774 747.5 777 c 128,-1,50
 706 780 706 780 664 780 c 0,36,37
EndSplineSet
EndChar

StartChar: h
Encoding: 104 104 75
Width: 907
GlyphClass: 2
Flags: W
LayerCount: 2
Fore
SplineSet
665 -19 m 0,0,1
 592 -19 592 -19 592 33 c 0,2,3
 592 98 592 98 672.5 351.5 c 128,-1,4
 753 605 753 605 753 646.5 c 128,-1,5
 753 688 753 688 736 688 c 0,6,7
 702 688 702 688 615.5 569 c 128,-1,8
 529 450 529 450 436 280.5 c 128,-1,9
 343 111 343 111 292 -25 c 1,10,11
 240 -14 240 -14 217.5 28.5 c 128,-1,12
 195 71 195 71 195 122 c 128,-1,13
 195 173 195 173 211.5 255.5 c 128,-1,14
 228 338 228 338 259 456.5 c 128,-1,15
 290 575 290 575 292 582 c 2,16,-1
 385 970 l 2,17,18
 437 1188 437 1188 590.5 1333 c 128,-1,19
 744 1478 744 1478 937 1478 c 0,20,21
 1017 1478 1017 1478 1053 1468 c 1,22,23
 1033 1381 1033 1381 970 1335 c 1,24,25
 859 1372 859 1372 812 1372 c 0,26,27
 720 1372 720 1372 656 1218 c 0,28,29
 621 1133 621 1133 562 895 c 2,30,-1
 446 424 l 1,31,-1
 453 421 l 1,32,33
 475 469 475 469 525.5 545 c 128,-1,34
 576 621 576 621 641.5 701 c 128,-1,35
 707 781 707 781 782 838 c 128,-1,36
 857 895 857 895 913 895 c 0,37,38
 986 895 986 895 986 809 c 0,39,40
 986 754 986 754 962 655.5 c 128,-1,41
 938 557 938 557 911 475 c 128,-1,42
 884 393 884 393 842 270 c 128,-1,43
 800 147 800 147 786 103 c 1,44,-1
 792 93 l 1,45,46
 851 117 851 117 931.5 183 c 128,-1,47
 1012 249 1012 249 1066 329 c 1,48,-1
 1085 311 l 1,49,50
 1024 210 1024 210 889.5 95.5 c 128,-1,51
 755 -19 755 -19 665 -19 c 0,0,1
EndSplineSet
EndChar

StartChar: i
Encoding: 105 105 76
Width: 473
GlyphClass: 2
Flags: W
LayerCount: 2
Fore
SplineSet
453 1138 m 0,0,1
 453 1219 453 1219 498 1273 c 128,-1,2
 543 1327 543 1327 626 1327 c 1,3,4
 653 1290 653 1290 653 1228.5 c 128,-1,5
 653 1167 653 1167 600.5 1119.5 c 128,-1,6
 548 1072 548 1072 460 1072 c 1,7,8
 453 1105 453 1105 453 1138 c 0,0,1
196 40 m 1,9,-1
 197 46 l 1,10,11
 210 177 210 177 271.5 411 c 128,-1,12
 333 645 333 645 353 780 c 1,13,-1
 347 782 l 1,14,15
 323 776 323 776 306 764 c 128,-1,16
 289 752 289 752 281 746 c 128,-1,17
 273 740 273 740 260.5 727 c 128,-1,18
 248 714 248 714 242.5 708 c 128,-1,19
 237 702 237 702 223 686.5 c 128,-1,20
 209 671 209 671 205 667 c 1,21,-1
 191 679 l 1,22,23
 341 894 341 894 475 894 c 0,24,25
 518 894 518 894 537 876 c 128,-1,26
 556 858 556 858 556 817 c 0,27,28
 556 772 556 772 545 726 c 0,29,30
 502 542 502 542 458 370.5 c 128,-1,31
 414 199 414 199 393 103 c 1,32,-1
 396 100 l 1,33,34
 450 115 450 115 536.5 194 c 128,-1,35
 623 273 623 273 674 351 c 1,36,-1
 688 329 l 1,37,38
 636 227 636 227 502.5 104 c 128,-1,39
 369 -19 369 -19 295 -19 c 0,40,41
 196 -19 196 -19 196 36 c 2,42,-1
 196 40 l 1,9,-1
EndSplineSet
EndChar

StartChar: j
Encoding: 106 106 77
Width: 449
GlyphClass: 2
Flags: W
LayerCount: 2
Fore
SplineSet
390 777 m 1,0,1
 390 782 390 782 381.5 782 c 128,-1,2
 373 782 373 782 363.5 778.5 c 128,-1,3
 354 775 354 775 342 766.5 c 128,-1,4
 330 758 330 758 322 751.5 c 128,-1,5
 314 745 314 745 299.5 731 c 128,-1,6
 285 717 285 717 280 710 c 0,7,8
 257 684 257 684 240 667 c 1,9,-1
 226 679 l 1,10,11
 376 894 376 894 510 894 c 0,12,13
 553 894 553 894 572 876 c 128,-1,14
 591 858 591 858 591 817 c 0,15,16
 591 777 591 777 580 735 c 0,17,18
 565 677 565 677 544 602 c 1,19,-1
 431 140 l 2,20,21
 401 16 401 16 358.5 -74 c 128,-1,22
 316 -164 316 -164 252 -234 c 1,23,24
 122 -373 122 -373 -128 -373 c 0,25,26
 -193 -373 -193 -373 -269 -357 c 1,27,28
 -263 -307 -263 -307 -241.5 -266 c 128,-1,29
 -220 -225 -220 -225 -186 -207 c 1,30,31
 -139 -224 -139 -224 -72.5 -239.5 c 128,-1,32
 -6 -255 -6 -255 35 -255 c 0,33,34
 93 -255 93 -255 125 -206.5 c 128,-1,35
 157 -158 157 -158 188 -35 c 2,36,-1
 390 777 l 1,0,1
489 1138 m 0,37,38
 489 1219 489 1219 534 1273 c 128,-1,39
 579 1327 579 1327 662 1327 c 1,40,41
 689 1290 689 1290 689 1228.5 c 128,-1,42
 689 1167 689 1167 636.5 1119.5 c 128,-1,43
 584 1072 584 1072 496 1072 c 1,44,45
 489 1105 489 1105 489 1138 c 0,37,38
EndSplineSet
EndChar

StartChar: k
Encoding: 107 107 78
Width: 883
GlyphClass: 2
Flags: W
LayerCount: 2
Fore
SplineSet
785 -318 m 0,0,1
 763 -290 763 -290 743.5 -259.5 c 128,-1,2
 724 -229 724 -229 704 -178.5 c 128,-1,3
 684 -128 684 -128 668.5 -88 c 128,-1,4
 653 -48 653 -48 635 17 c 128,-1,5
 617 82 617 82 605 123.5 c 128,-1,6
 593 165 593 165 576.5 236.5 c 128,-1,7
 560 308 560 308 551.5 343.5 c 128,-1,8
 543 379 543 379 528 448 c 1,9,10
 627 488 627 488 706 547 c 0,11,12
 751 580 751 580 778 621.5 c 128,-1,13
 805 663 805 663 805 707 c 0,14,15
 805 759 805 759 755 759 c 0,16,17
 681 759 681 759 599 672.5 c 128,-1,18
 517 586 517 586 479 483 c 1,19,20
 434 365 434 365 384.5 188 c 128,-1,21
 335 11 335 11 326 -17 c 1,22,23
 255 -17 255 -17 220.5 13.5 c 128,-1,24
 186 44 186 44 186 98 c 0,25,26
 186 126 186 126 196 168 c 2,27,-1
 417 1047 l 2,28,29
 435 1120 435 1120 482.5 1195 c 128,-1,30
 530 1270 530 1270 597.5 1333.5 c 128,-1,31
 665 1397 665 1397 755.5 1437.5 c 128,-1,32
 846 1478 846 1478 936.5 1478 c 128,-1,33
 1027 1478 1027 1478 1064 1468 c 1,34,35
 1046 1386 1046 1386 981 1335 c 1,36,37
 870 1372 870 1372 828.5 1372 c 128,-1,38
 787 1372 787 1372 757 1356 c 128,-1,39
 727 1340 727 1340 703 1302 c 128,-1,40
 679 1264 679 1264 663.5 1235.5 c 128,-1,41
 648 1207 648 1207 631 1147 c 0,42,43
 609 1070 609 1070 598.5 1020 c 128,-1,44
 588 970 588 970 587 966 c 2,45,-1
 518 647 l 1,46,-1
 521 646 l 1,47,48
 568 728 568 728 671 812.5 c 128,-1,49
 774 897 774 897 868 897 c 0,50,51
 919 897 919 897 955.5 870.5 c 128,-1,52
 992 844 992 844 992 787 c 0,53,54
 992 710 992 710 946 640.5 c 128,-1,55
 900 571 900 571 834.5 529 c 128,-1,56
 769 487 769 487 699 472 c 1,57,58
 703 456 703 456 714 408 c 128,-1,59
 725 360 725 360 734 321 c 128,-1,60
 743 282 743 282 758 223 c 128,-1,61
 773 164 773 164 787 116.5 c 128,-1,62
 801 69 801 69 818.5 14.5 c 128,-1,63
 836 -40 836 -40 853.5 -80.5 c 128,-1,64
 871 -121 871 -121 890 -156 c 0,65,66
 929 -227 929 -227 969 -227 c 0,67,68
 993 -227 993 -227 1044 -171 c 128,-1,69
 1095 -115 1095 -115 1138 -37 c 1,70,-1
 1168 -54 l 1,71,72
 1094 -202 1094 -202 1015.5 -287.5 c 128,-1,73
 937 -373 937 -373 882 -373 c 128,-1,74
 827 -373 827 -373 785 -318 c 0,0,1
EndSplineSet
EndChar

StartChar: l
Encoding: 108 108 79
Width: 541
GlyphClass: 2
Flags: W
LayerCount: 2
Fore
SplineSet
355.5 14 m 128,-1,1
 299 -20 299 -20 258.5 -20 c 128,-1,2
 218 -20 218 -20 198 -1.5 c 128,-1,3
 178 17 178 17 178 63 c 0,4,5
 178 140 178 140 413 1053 c 0,6,7
 439 1154 439 1154 516 1251.5 c 128,-1,8
 593 1349 593 1349 704.5 1413.5 c 128,-1,9
 816 1478 816 1478 926 1478 c 0,10,11
 1012 1478 1012 1478 1056 1468 c 1,12,13
 1056 1443 1056 1443 1027 1399.5 c 128,-1,14
 998 1356 998 1356 973 1335 c 1,15,16
 949 1347 949 1347 906 1359 c 128,-1,17
 863 1371 863 1371 824.5 1371 c 128,-1,18
 786 1371 786 1371 749 1345.5 c 128,-1,19
 712 1320 712 1320 687 1279.5 c 128,-1,20
 662 1239 662 1239 641 1180 c 0,21,22
 599 1061 599 1061 571 920 c 1,23,24
 557 857 557 857 526.5 718.5 c 128,-1,25
 496 580 496 580 476 492 c 0,26,27
 420 246 420 246 378 127 c 1,28,-1
 383 123 l 1,29,30
 438 161 438 161 472 186 c 0,31,32
 565 256 565 256 647 347 c 1,33,-1
 666 328 l 1,34,35
 577 207 577 207 469 103 c 0,36,0
 412 48 412 48 355.5 14 c 128,-1,1
EndSplineSet
EndChar

StartChar: m
Encoding: 109 109 80
Width: 1288
GlyphClass: 2
Flags: W
LayerCount: 2
Fore
SplineSet
1049 -19 m 0,0,1
 979 -19 979 -19 979 28 c 0,2,3
 979 115 979 115 1060 370 c 0,4,5
 1067 393 1067 393 1094 464 c 0,6,7
 1158 628 1158 628 1158 672 c 0,8,9
 1158 692 1158 692 1146 692 c 0,10,11
 1116 692 1116 692 1030.5 574 c 128,-1,12
 945 456 945 456 848.5 284.5 c 128,-1,13
 752 113 752 113 695 -27 c 1,14,15
 622 11 622 11 622 117 c 0,16,17
 622 181 622 181 687 401 c 128,-1,18
 752 621 752 621 752 666 c 0,19,20
 752 692 752 692 739 692 c 0,21,22
 711 692 711 692 625 576 c 128,-1,23
 539 460 539 460 440.5 287.5 c 128,-1,24
 342 115 342 115 283 -27 c 1,25,26
 242 -7 242 -7 220.5 32.5 c 128,-1,27
 199 72 199 72 199 143 c 128,-1,28
 199 214 199 214 274 467.5 c 128,-1,29
 349 721 349 721 354 743 c 1,30,-1
 349 748 l 1,31,-1
 216 687 l 1,32,-1
 205 699 l 1,33,34
 251 758 251 758 358.5 826.5 c 128,-1,35
 466 895 466 895 524 895 c 0,36,37
 564 895 564 895 564 858 c 0,38,39
 564 852 564 852 560 832 c 2,40,-1
 463 426 l 1,41,-1
 472 424 l 1,42,43
 530 524 530 524 607 627.5 c 128,-1,44
 684 731 684 731 769.5 812.5 c 128,-1,45
 855 894 855 894 905 894 c 0,46,47
 973 894 973 894 973 783.5 c 128,-1,48
 973 673 973 673 903 476 c 1,49,-1
 907 475 l 1,50,51
 925 498 925 498 967 555 c 128,-1,52
 1009 612 1009 612 1037 649.5 c 128,-1,53
 1065 687 1065 687 1107.5 737.5 c 128,-1,54
 1150 788 1150 788 1182 818 c 0,55,56
 1261 894 1261 894 1313 894 c 0,57,58
 1375 894 1375 894 1375 800 c 0,59,60
 1375 666 1375 666 1237 292 c 0,61,62
 1183 145 1183 145 1173 104 c 1,63,-1
 1176 103 l 1,64,65
 1250 119 1250 119 1331.5 181.5 c 128,-1,66
 1413 244 1413 244 1476 330 c 1,67,-1
 1498 311 l 1,68,69
 1423 193 1423 193 1280 87 c 128,-1,70
 1137 -19 1137 -19 1049 -19 c 0,0,1
EndSplineSet
EndChar

StartChar: n
Encoding: 110 110 81
Width: 946
GlyphClass: 2
Flags: W
LayerCount: 2
Fore
SplineSet
687 -19 m 0,0,1
 614 -19 614 -19 614 33 c 0,2,3
 614 78 614 78 626 125 c 128,-1,4
 638 172 638 172 641 183 c 128,-1,5
 644 194 644 194 652 220 c 128,-1,6
 660 246 660 246 663 255.5 c 128,-1,7
 666 265 666 265 675 295.5 c 128,-1,8
 684 326 684 326 694 357 c 128,-1,9
 704 388 704 388 734 472 c 0,10,11
 793 641 793 641 793 672.5 c 128,-1,12
 793 704 793 704 776 704 c 0,13,14
 732 704 732 704 643 591.5 c 128,-1,15
 554 479 554 479 460 305.5 c 128,-1,16
 366 132 366 132 314 -25 c 1,17,18
 262 -14 262 -14 239.5 28.5 c 128,-1,19
 217 71 217 71 217 124 c 0,20,21
 217 252 217 252 342 667 c 0,22,23
 358 722 358 722 363 743 c 1,24,-1
 358 748 l 1,25,-1
 226 687 l 1,26,-1
 213 699 l 1,27,28
 260 757 260 757 368 826.5 c 128,-1,29
 476 896 476 896 532 896 c 0,30,31
 570 896 570 896 570 853 c 0,32,33
 570 840 570 840 567 828 c 2,34,-1
 468 424 l 1,35,-1
 475 421 l 1,36,37
 599 620 599 620 644 676.5 c 128,-1,38
 689 733 689 733 730 778.5 c 128,-1,39
 771 824 771 824 804 850 c 0,40,41
 882 911 882 911 947.5 911 c 128,-1,42
 1013 911 1013 911 1013 817 c 0,43,44
 1013 725 1013 725 953 540 c 0,45,46
 902 384 902 384 882 332 c 1,47,48
 824 164 824 164 808 103 c 1,49,-1
 814 93 l 1,50,51
 873 117 873 117 953.5 183 c 128,-1,52
 1034 249 1034 249 1088 329 c 1,53,-1
 1107 311 l 1,54,55
 1046 210 1046 210 911.5 95.5 c 128,-1,56
 777 -19 777 -19 687 -19 c 0,0,1
EndSplineSet
EndChar

StartChar: o
Encoding: 111 111 82
Width: 782
GlyphClass: 2
Flags: W
LayerCount: 2
Fore
SplineSet
683 890 m 0,0,1
 812 890 812 890 865 826.5 c 128,-1,2
 918 763 918 763 918 643 c 128,-1,3
 918 523 918 523 866.5 404 c 128,-1,4
 815 285 815 285 734 193 c 128,-1,5
 653 101 653 101 545 43 c 128,-1,6
 437 -15 437 -15 331.5 -15 c 128,-1,7
 226 -15 226 -15 174 42.5 c 128,-1,8
 122 100 122 100 122 227 c 0,9,10
 122 325 122 325 169.5 441.5 c 128,-1,11
 217 558 217 558 292.5 657.5 c 128,-1,12
 368 757 368 757 473 823.5 c 128,-1,13
 578 890 578 890 683 890 c 0,0,1
615 820 m 0,14,15
 543 820 543 820 477 733.5 c 128,-1,16
 411 647 411 647 371.5 514.5 c 128,-1,17
 332 382 332 382 332 249 c 0,18,19
 332 166 332 166 357 114 c 128,-1,20
 382 62 382 62 421.5 62 c 128,-1,21
 461 62 461 62 500.5 88.5 c 128,-1,22
 540 115 540 115 577 164.5 c 128,-1,23
 614 214 614 214 644 278 c 0,24,25
 711 419 711 419 711 594 c 0,26,27
 711 820 711 820 615 820 c 0,14,15
EndSplineSet
EndChar

StartChar: p
Encoding: 112 112 83
Width: 909
GlyphClass: 2
Flags: W
LayerCount: 2
Fore
SplineSet
411 777 m 1,0,1
 411 782 411 782 402.5 782 c 128,-1,2
 394 782 394 782 384.5 778.5 c 128,-1,3
 375 775 375 775 363 766.5 c 128,-1,4
 351 758 351 758 343 751.5 c 128,-1,5
 335 745 335 745 320.5 731 c 128,-1,6
 306 717 306 717 300 710 c 0,7,8
 278 684 278 684 261 667 c 1,9,-1
 247 679 l 1,10,11
 397 894 397 894 531 894 c 0,12,13
 574 894 574 894 593 876 c 128,-1,14
 612 858 612 858 612 817 c 0,15,16
 612 777 612 777 601 735 c 0,17,18
 586 677 586 677 565 602 c 1,19,-1
 557 568 l 1,20,-1
 561 567 l 1,21,22
 600 648 600 648 712 766 c 0,23,24
 764 821 764 821 824 859.5 c 128,-1,25
 884 898 884 898 928 898 c 0,26,27
 1021 898 1021 898 1021 742 c 0,28,29
 1021 623 1021 623 981.5 490 c 128,-1,30
 942 357 942 357 875.5 243.5 c 128,-1,31
 809 130 809 130 711 55.5 c 128,-1,32
 613 -19 613 -19 507 -19 c 0,33,34
 465 -19 465 -19 415 14 c 1,35,36
 352 -172 352 -172 234 -270 c 0,37,38
 109 -373 109 -373 -107 -373 c 0,39,40
 -172 -373 -172 -373 -248 -357 c 1,41,42
 -242 -307 -242 -307 -220.5 -266 c 128,-1,43
 -199 -225 -199 -225 -165 -207 c 1,44,45
 -118 -224 -118 -224 -51.5 -239.5 c 128,-1,46
 15 -255 15 -255 56 -255 c 0,47,48
 114 -255 114 -255 146 -206.5 c 128,-1,49
 178 -158 178 -158 209 -35 c 2,50,-1
 411 777 l 1,0,1
810 621 m 0,51,52
 810 711 810 711 769 711 c 0,53,54
 723 711 723 711 646 613 c 128,-1,55
 569 515 569 515 502 370.5 c 128,-1,56
 435 226 435 226 420 109 c 1,57,58
 443 86 443 86 500 86 c 0,59,60
 575 86 575 86 647.5 164 c 128,-1,61
 720 242 720 242 765 367 c 128,-1,62
 810 492 810 492 810 621 c 0,51,52
EndSplineSet
EndChar

StartChar: q
Encoding: 113 113 84
Width: 836
GlyphClass: 2
Flags: W
LayerCount: 2
Fore
SplineSet
339.5 28 m 128,-1,1
 278 -26 278 -26 242 -26 c 0,2,3
 172 -26 172 -26 172 105 c 0,4,5
 172 293 172 293 258 508 c 0,6,7
 327 680 327 680 446.5 774.5 c 128,-1,8
 566 869 566 869 761 869 c 0,9,10
 885 869 885 869 977 855 c 1,11,12
 907 560 907 560 762 98 c 0,13,14
 738 21 738 21 723.5 -22.5 c 128,-1,15
 709 -66 709 -66 672.5 -141 c 128,-1,16
 636 -216 636 -216 598 -258 c 1,17,-1
 605 -266 l 1,18,19
 713 -213 713 -213 739 -196 c 1,20,-1
 763 -244 l 1,21,-1
 272 -504 l 1,22,-1
 254 -450 l 1,23,24
 351 -411 351 -411 398 -354 c 0,25,26
 448 -294 448 -294 466 -240 c 128,-1,27
 484 -186 484 -186 492.5 -153.5 c 128,-1,28
 501 -121 501 -121 513.5 -71 c 128,-1,29
 526 -21 526 -21 537 14 c 2,30,-1
 670 454 l 1,31,-1
 659 458 l 1,32,33
 586 323 586 323 462 162 c 0,34,0
 401 82 401 82 339.5 28 c 128,-1,1
759 770 m 1,35,36
 739 780 739 780 671.5 780 c 128,-1,37
 604 780 604 780 562 764 c 128,-1,38
 520 748 520 748 491.5 711 c 128,-1,39
 463 674 463 674 445 627.5 c 128,-1,40
 427 581 427 581 409.5 508.5 c 128,-1,41
 392 436 392 436 377.5 321 c 128,-1,42
 363 206 363 206 363 150 c 1,43,44
 485 261 485 261 612.5 460.5 c 128,-1,45
 740 660 740 660 759 770 c 1,35,36
EndSplineSet
EndChar

StartChar: r
Encoding: 114 114 85
Width: 645
GlyphClass: 2
Flags: W
LayerCount: 2
Fore
SplineSet
835 904 m 0,0,1
 877 904 877 904 909 900 c 1,2,3
 893 797 893 797 857 737 c 1,4,5
 726 737 726 737 636 639 c 0,6,7
 589 588 589 588 551 528 c 128,-1,8
 513 468 513 468 474 373 c 0,9,10
 411 217 411 217 336 -24 c 1,11,12
 282 -12 282 -12 243.5 27.5 c 128,-1,13
 205 67 205 67 205 122 c 0,14,15
 205 202 205 202 276 454.5 c 128,-1,16
 347 707 347 707 352 775 c 1,17,-1
 347 779 l 1,18,-1
 206 688 l 1,19,-1
 195 699 l 1,20,21
 195 703 195 703 214 723 c 128,-1,22
 233 743 233 743 269.5 772 c 128,-1,23
 306 801 306 801 350 828.5 c 128,-1,24
 394 856 394 856 452.5 875.5 c 128,-1,25
 511 895 511 895 566 895 c 1,26,27
 561 877 561 877 473 526 c 1,28,-1
 487 524 l 1,29,30
 698 904 698 904 835 904 c 0,0,1
EndSplineSet
EndChar

StartChar: s
Encoding: 115 115 86
Width: 664
GlyphClass: 2
Flags: W
LayerCount: 2
Fore
SplineSet
349.5 821 m 128,-1,1
 448 894 448 894 593.5 894 c 128,-1,2
 739 894 739 894 831 837 c 1,3,4
 792 737 792 737 740 693 c 1,5,6
 708 756 708 756 668.5 793.5 c 128,-1,7
 629 831 629 831 573 831 c 128,-1,8
 517 831 517 831 484 796.5 c 128,-1,9
 451 762 451 762 451 702 c 0,10,11
 451 643 451 643 554 554 c 0,12,13
 597 517 597 517 640 476.5 c 128,-1,14
 683 436 683 436 713 382.5 c 128,-1,15
 743 329 743 329 743 267 c 128,-1,16
 743 205 743 205 712.5 149.5 c 128,-1,17
 682 94 682 94 633 60 c 0,18,19
 530 -13 530 -13 405 -13 c 0,20,21
 209 -13 209 -13 111 88 c 1,22,23
 135 188 135 188 211 235 c 1,24,25
 304 54 304 54 420 54 c 0,26,27
 481 54 481 54 514 90.5 c 128,-1,28
 547 127 547 127 547 195 c 0,29,30
 547 266 547 266 442 356 c 0,31,32
 399 394 399 394 355.5 434 c 128,-1,33
 312 474 312 474 281.5 524 c 128,-1,34
 251 574 251 574 251 626 c 0,35,0
 251 748 251 748 349.5 821 c 128,-1,1
EndSplineSet
EndChar

StartChar: t
Encoding: 116 116 87
Width: 639
GlyphClass: 2
Flags: W
LayerCount: 2
Fore
SplineSet
275.5 -4 m 128,-1,1
 260 11 260 11 260 45.5 c 128,-1,2
 260 80 260 80 288.5 227 c 128,-1,3
 317 374 317 374 357 560 c 128,-1,4
 397 746 397 746 407 800 c 1,5,6
 355 798 355 798 244 788 c 1,7,8
 255 826 255 826 309 861 c 1,9,-1
 418 874 l 1,10,-1
 430 932 l 2,11,12
 439 973 439 973 503 998 c 128,-1,13
 567 1023 567 1023 641 1023 c 1,14,-1
 617 879 l 1,15,-1
 874 879 l 1,16,17
 872 860 872 860 858 837.5 c 128,-1,18
 844 815 844 815 821 801 c 1,19,-1
 599 801 l 1,20,-1
 454 103 l 1,21,-1
 459 100 l 1,22,23
 620 196 620 196 717 329 c 1,24,-1
 737 311 l 1,25,26
 674 205 674 205 545.5 93 c 128,-1,27
 417 -19 417 -19 333 -19 c 0,28,0
 291 -19 291 -19 275.5 -4 c 128,-1,1
EndSplineSet
EndChar

StartChar: u
Encoding: 117 117 88
Width: 942
GlyphClass: 2
Flags: W
LayerCount: 2
Fore
SplineSet
715 -19 m 0,0,1
 643 -19 643 -19 643 43 c 0,2,3
 643 83 643 83 677.5 208.5 c 128,-1,4
 712 334 712 334 748 441 c 1,5,-1
 738 445 l 1,6,7
 717 393 717 393 666.5 315 c 128,-1,8
 616 237 616 237 555.5 162 c 128,-1,9
 495 87 495 87 430.5 34 c 128,-1,10
 366 -19 366 -19 328.5 -19 c 128,-1,11
 291 -19 291 -19 274.5 11 c 128,-1,12
 258 41 258 41 258 96.5 c 128,-1,13
 258 152 258 152 264 199.5 c 128,-1,14
 270 247 270 247 276 283.5 c 128,-1,15
 282 320 282 320 299.5 390 c 128,-1,16
 317 460 317 460 326.5 494.5 c 128,-1,17
 336 529 336 529 363 625.5 c 128,-1,18
 390 722 390 722 401 763 c 1,19,-1
 395 766 l 1,20,-1
 285 694 l 1,21,-1
 272 708 l 1,22,23
 512 900 512 900 580 900 c 0,24,25
 614 900 614 900 614 858 c 128,-1,26
 614 816 614 816 589.5 734.5 c 128,-1,27
 565 653 565 653 536 570.5 c 128,-1,28
 507 488 507 488 482.5 385 c 128,-1,29
 458 282 458 282 458 207 c 0,30,31
 458 176 458 176 473 176 c 0,32,33
 500 176 500 176 568 266.5 c 128,-1,34
 636 357 636 357 704.5 472.5 c 128,-1,35
 773 588 773 588 796.5 638.5 c 128,-1,36
 820 689 820 689 836.5 730.5 c 128,-1,37
 853 772 853 772 862 792 c 0,38,39
 902 887 902 887 1055 892 c 1,40,41
 1029 691 1029 691 837 102 c 1,42,-1
 842 97 l 1,43,44
 999 188 999 188 1099 329 c 1,45,-1
 1120 311 l 1,46,47
 1057 210 1057 210 936 98 c 0,48,49
 880 47 880 47 820 14 c 128,-1,50
 760 -19 760 -19 715 -19 c 0,0,1
EndSplineSet
EndChar

StartChar: v
Encoding: 118 118 89
Width: 885
GlyphClass: 2
Flags: W
LayerCount: 2
Fore
SplineSet
542 894 m 0,0,1
 614 894 614 894 614 824 c 0,2,3
 614 720 614 720 578.5 525 c 128,-1,4
 543 330 543 330 543 223 c 0,5,6
 543 180 543 180 553.5 149.5 c 128,-1,7
 564 119 564 119 577 119 c 0,8,9
 583 119 583 119 623.5 158.5 c 128,-1,10
 664 198 664 198 719.5 262 c 128,-1,11
 775 326 775 326 828.5 398.5 c 128,-1,12
 882 471 882 471 919.5 547.5 c 128,-1,13
 957 624 957 624 957 677 c 0,14,15
 957 699 957 699 940 719.5 c 128,-1,16
 923 740 923 740 902.5 753.5 c 128,-1,17
 882 767 882 767 865 790.5 c 128,-1,18
 848 814 848 814 848 843.5 c 128,-1,19
 848 873 848 873 860 887 c 128,-1,20
 872 901 872 901 900 901 c 0,21,22
 959 901 959 901 1009.5 876 c 128,-1,23
 1060 851 1060 851 1060 803 c 0,24,25
 1060 684 1060 684 987 535 c 128,-1,26
 914 386 914 386 812.5 266 c 128,-1,27
 711 146 711 146 598 63.5 c 128,-1,28
 485 -19 485 -19 409 -19 c 0,29,30
 345 -19 345 -19 345 131 c 0,31,32
 345 229 345 229 379 456.5 c 128,-1,33
 413 684 413 684 413 725 c 128,-1,34
 413 766 413 766 411 775 c 1,35,-1
 403 783 l 1,36,-1
 243 697 l 1,37,-1
 228 709 l 1,38,39
 265 751 265 751 305 787 c 128,-1,40
 345 823 345 823 412.5 858.5 c 128,-1,41
 480 894 480 894 542 894 c 0,0,1
EndSplineSet
EndChar

StartChar: w
Encoding: 119 119 90
Width: 1358
GlyphClass: 2
Flags: W
LayerCount: 2
Fore
SplineSet
1000 893 m 0,0,1
 1072 893 1072 893 1072 823 c 0,2,3
 1072 718 1072 718 1034 507.5 c 128,-1,4
 996 297 996 297 996 189 c 0,5,6
 996 137 996 137 1002.5 111 c 128,-1,7
 1009 85 1009 85 1030 85 c 0,8,9
 1067 85 1067 85 1125 135.5 c 128,-1,10
 1183 186 1183 186 1239.5 263.5 c 128,-1,11
 1296 341 1296 341 1337 450 c 128,-1,12
 1378 559 1378 559 1378 661 c 0,13,14
 1378 694 1378 694 1335 730 c 0,15,16
 1317 745 1317 745 1299 760 c 0,17,18
 1256 798 1256 798 1256 842 c 0,19,20
 1256 872 1256 872 1268 886 c 128,-1,21
 1280 900 1280 900 1308 900 c 0,22,23
 1367 900 1367 900 1417.5 875 c 128,-1,24
 1468 850 1468 850 1468 802 c 0,25,26
 1468 675 1468 675 1430 547 c 128,-1,27
 1392 419 1392 419 1330.5 318.5 c 128,-1,28
 1269 218 1269 218 1195.5 139 c 128,-1,29
 1122 60 1122 60 1047 17.5 c 128,-1,30
 972 -25 972 -25 909.5 -25 c 128,-1,31
 847 -25 847 -25 819 11.5 c 128,-1,32
 791 48 791 48 791 131 c 0,33,34
 791 168 791 168 792 187 c 1,35,36
 703 89 703 89 608.5 32 c 128,-1,37
 514 -25 514 -25 446.5 -25 c 128,-1,38
 379 -25 379 -25 351 11.5 c 128,-1,39
 323 48 323 48 323 147 c 128,-1,40
 323 246 323 246 359.5 460 c 128,-1,41
 396 674 396 674 401 774 c 1,42,-1
 393 782 l 1,43,-1
 233 696 l 1,44,-1
 218 708 l 1,45,46
 255 750 255 750 295 786 c 128,-1,47
 335 822 335 822 402.5 857.5 c 128,-1,48
 470 893 470 893 532 893 c 0,49,50
 604 893 604 893 604 823 c 0,51,52
 604 718 604 718 566 507.5 c 128,-1,53
 528 297 528 297 528 189 c 0,54,55
 528 137 528 137 534.5 111 c 128,-1,56
 541 85 541 85 562 85 c 0,57,58
 599 85 599 85 666.5 135.5 c 128,-1,59
 734 186 734 186 798 265 c 1,60,61
 805 344 805 344 834.5 540.5 c 128,-1,62
 864 737 864 737 869 834 c 1,63,64
 872 840 872 840 885 852.5 c 128,-1,65
 898 865 898 865 912 872 c 1,66,67
 948 893 948 893 1000 893 c 0,0,1
EndSplineSet
EndChar

StartChar: x
Encoding: 120 120 91
Width: 836
GlyphClass: 2
Flags: W
LayerCount: 2
Fore
SplineSet
898 767 m 0,0,1
 840 767 840 767 803 709 c 0,2,3
 702 552 702 552 669 488 c 1,4,5
 742 62 742 62 794 -99 c 128,-1,6
 846 -260 846 -260 908 -260 c 0,7,8
 938 -260 938 -260 978.5 -219.5 c 128,-1,9
 1019 -179 1019 -179 1089 -89 c 1,10,-1
 1120 -117 l 1,11,12
 1061 -223 1061 -223 964.5 -300.5 c 128,-1,13
 868 -378 868 -378 783 -378 c 0,14,15
 673 -378 673 -378 625 -228 c 0,16,17
 584 -100 584 -100 511 251 c 1,18,19
 509 248 509 248 475 201.5 c 128,-1,20
 441 155 441 155 413.5 123 c 128,-1,21
 386 91 386 91 345 54 c 0,22,23
 260 -21 260 -21 154 -21 c 0,24,25
 113 -21 113 -21 84 -14 c 1,26,27
 98 81 98 81 141 117 c 1,28,29
 240 117 240 117 304 141 c 128,-1,30
 368 165 368 165 414 221 c 128,-1,31
 460 277 460 277 494 333 c 1,32,33
 448 560 448 560 414 751 c 1,34,35
 312 695 312 695 274 667 c 1,36,-1
 259 698 l 1,37,38
 318 754 318 754 405.5 817 c 128,-1,39
 493 880 493 880 543 880 c 0,40,41
 607 880 607 880 626 752 c 2,42,-1
 652 585 l 1,43,44
 684 642 684 642 703.5 675 c 128,-1,45
 723 708 723 708 757 751.5 c 128,-1,46
 791 795 791 795 822.5 818 c 128,-1,47
 854 841 854 841 900 858 c 128,-1,48
 946 875 946 875 988.5 875 c 128,-1,49
 1031 875 1031 875 1064 864 c 1,50,51
 1029 779 1029 779 984 739 c 1,52,53
 939 767 939 767 898 767 c 0,0,1
EndSplineSet
EndChar

StartChar: y
Encoding: 121 121 92
Width: 797
GlyphClass: 2
Flags: W
LayerCount: 2
Fore
SplineSet
380.5 34 m 128,-1,1
 316 -19 316 -19 278.5 -19 c 128,-1,2
 241 -19 241 -19 224.5 11 c 128,-1,3
 208 41 208 41 208 96.5 c 128,-1,4
 208 152 208 152 214 199.5 c 128,-1,5
 220 247 220 247 226 283.5 c 128,-1,6
 232 320 232 320 249.5 390 c 128,-1,7
 267 460 267 460 276.5 494.5 c 128,-1,8
 286 529 286 529 313 625.5 c 128,-1,9
 340 722 340 722 351 763 c 1,10,-1
 345 766 l 1,11,-1
 235 694 l 1,12,-1
 222 708 l 1,13,14
 462 900 462 900 530 900 c 0,15,16
 564 900 564 900 564 858 c 128,-1,17
 564 816 564 816 539.5 734.5 c 128,-1,18
 515 653 515 653 486 570.5 c 128,-1,19
 457 488 457 488 432.5 385 c 128,-1,20
 408 282 408 282 408 207 c 0,21,22
 408 176 408 176 423 176 c 0,23,24
 450 176 450 176 518 266.5 c 128,-1,25
 586 357 586 357 654.5 472.5 c 128,-1,26
 723 588 723 588 746.5 638.5 c 128,-1,27
 770 689 770 689 786.5 730 c 128,-1,28
 803 771 803 771 812 792 c 0,29,30
 852 887 852 887 1005 892 c 1,31,32
 974 718 974 718 805 140 c 0,33,34
 776 40 776 40 745 -33.5 c 128,-1,35
 714 -107 714 -107 667.5 -174 c 128,-1,36
 621 -241 621 -241 564 -282 c 0,37,38
 440 -373 440 -373 246 -373 c 0,39,40
 181 -373 181 -373 105 -357 c 1,41,42
 111 -307 111 -307 132.5 -266 c 128,-1,43
 154 -225 154 -225 188 -207 c 1,44,45
 235 -224 235 -224 301.5 -239.5 c 128,-1,46
 368 -255 368 -255 409 -255 c 0,47,48
 467 -255 467 -255 499 -206.5 c 128,-1,49
 531 -158 531 -158 562 -35 c 0,50,51
 633 254 633 254 698 441 c 1,52,-1
 688 445 l 1,53,54
 667 393 667 393 616.5 315 c 128,-1,55
 566 237 566 237 505.5 162 c 128,-1,0
 445 87 445 87 380.5 34 c 128,-1,1
EndSplineSet
EndChar

StartChar: z
Encoding: 122 122 93
Width: 811
GlyphClass: 2
Flags: W
LayerCount: 2
Fore
SplineSet
462 900 m 0,0,1
 514 900 514 900 606 869 c 128,-1,2
 698 838 698 838 766 838 c 0,3,4
 866 838 866 838 926 906 c 1,5,-1
 956 888 l 1,6,7
 867 764 867 764 748 636.5 c 128,-1,8
 629 509 629 509 483 367.5 c 128,-1,9
 337 226 337 226 269 153 c 1,10,-1
 274 149 l 1,11,12
 342 173 342 173 430 173 c 0,13,14
 474 173 474 173 575 158.5 c 128,-1,15
 676 144 676 144 727 144 c 0,16,17
 848 144 848 144 918 209 c 1,18,-1
 940 203 l 1,19,20
 921 90 921 90 857.5 35.5 c 128,-1,21
 794 -19 794 -19 710 -19 c 128,-1,22
 626 -19 626 -19 479 22.5 c 128,-1,23
 332 64 332 64 294 64 c 0,24,25
 206 64 206 64 105 0 c 1,26,-1
 87 17 l 1,27,28
 176 130 176 130 371.5 334 c 128,-1,29
 567 538 567 538 747 715 c 1,30,-1
 743 718 l 1,31,32
 679 680 679 680 615 680 c 0,33,34
 587 680 587 680 520.5 691.5 c 128,-1,35
 454 703 454 703 408 703 c 0,36,37
 309 703 309 703 267 643 c 1,38,-1
 246 658 l 1,39,40
 274 793 274 793 327.5 846.5 c 128,-1,41
 381 900 381 900 462 900 c 0,0,1
EndSplineSet
EndChar

StartChar: braceleft
Encoding: 123 123 94
Width: 516
GlyphClass: 2
Flags: W
LayerCount: 2
Fore
SplineSet
483.5 324.5 m 128,-1,1
 441 205 441 205 407.5 101 c 128,-1,2
 374 -3 374 -3 374 -62.5 c 128,-1,3
 374 -122 374 -122 397 -149 c 128,-1,4
 420 -176 420 -176 476 -177 c 1,5,-1
 444 -224 l 1,6,7
 317 -205 317 -205 253 -150.5 c 128,-1,8
 189 -96 189 -96 189 -17 c 0,9,10
 189 44 189 44 215 120.5 c 128,-1,11
 241 197 241 197 272 259 c 128,-1,12
 303 321 303 321 329 402 c 128,-1,13
 355 483 355 483 355 542 c 0,14,15
 355 665 355 665 282 665 c 2,16,-1
 238 665 l 1,17,-1
 267 728 l 1,18,-1
 307 728 l 2,19,20
 346 728 346 728 370 762 c 1,21,22
 384 780 384 780 394 796 c 128,-1,23
 404 812 404 812 414.5 844.5 c 128,-1,24
 425 877 425 877 431 896 c 128,-1,25
 437 915 437 915 445.5 956.5 c 128,-1,26
 454 998 454 998 457.5 1014.5 c 128,-1,27
 461 1031 461 1031 470.5 1083 c 128,-1,28
 480 1135 480 1135 489 1174.5 c 128,-1,29
 498 1214 498 1214 516.5 1270 c 128,-1,30
 535 1326 535 1326 556.5 1362.5 c 128,-1,31
 578 1399 578 1399 613.5 1440 c 128,-1,32
 649 1481 649 1481 693 1504 c 0,33,34
 797 1560 797 1560 940 1560 c 1,35,-1
 952 1526 l 1,36,37
 876 1517 876 1517 823.5 1472 c 128,-1,38
 771 1427 771 1427 743.5 1361 c 128,-1,39
 716 1295 716 1295 695.5 1216.5 c 128,-1,40
 675 1138 675 1138 653.5 1056.5 c 128,-1,41
 632 975 632 975 603 903.5 c 128,-1,42
 574 832 574 832 518.5 775.5 c 128,-1,43
 463 719 463 719 383 696 c 1,44,-1
 382 693 l 1,45,46
 450 676 450 676 488 628 c 128,-1,47
 526 580 526 580 526 512 c 128,-1,0
 526 444 526 444 483.5 324.5 c 128,-1,1
EndSplineSet
EndChar

StartChar: bar
Encoding: 124 124 95
Width: 1065
GlyphClass: 2
Flags: W
LayerCount: 2
Fore
SplineSet
954 1474 m 1,0,-1
 580 -340 l 1,1,-1
 454 -340 l 1,2,-1
 827 1474 l 1,3,-1
 954 1474 l 1,0,-1
EndSplineSet
EndChar

StartChar: braceright
Encoding: 125 125 96
Width: 442
GlyphClass: 2
Flags: W
LayerCount: 2
Fore
SplineSet
382 722 m 128,-1,1
 344 770 344 770 344 834.5 c 128,-1,2
 344 899 344 899 368 979.5 c 128,-1,3
 392 1060 392 1060 420 1125.5 c 128,-1,4
 448 1191 448 1191 472 1274 c 128,-1,5
 496 1357 496 1357 496 1414.5 c 128,-1,6
 496 1472 496 1472 473 1499 c 128,-1,7
 450 1526 450 1526 394 1527 c 1,8,-1
 426 1574 l 1,9,10
 552 1555 552 1555 616 1501.5 c 128,-1,11
 680 1448 680 1448 680 1369 c 0,12,13
 680 1307 680 1307 654 1229.5 c 128,-1,14
 628 1152 628 1152 597.5 1089.5 c 128,-1,15
 567 1027 567 1027 541 946 c 128,-1,16
 515 865 515 865 515 806 c 0,17,18
 515 685 515 685 588 685 c 2,19,-1
 612 685 l 1,20,-1
 583 622 l 1,21,-1
 563 622 l 2,22,23
 524 622 524 622 500 589 c 0,24,25
 486 571 486 571 475.5 554 c 128,-1,26
 465 537 465 537 455 506 c 128,-1,27
 445 475 445 475 438.5 454 c 128,-1,28
 432 433 432 433 423.5 393.5 c 128,-1,29
 415 354 415 354 411.5 335 c 128,-1,30
 408 316 408 316 398 263 c 128,-1,31
 388 210 388 210 380.5 175 c 128,-1,32
 373 140 373 140 354.5 80.5 c 128,-1,33
 336 21 336 21 316.5 -12.5 c 128,-1,34
 297 -46 297 -46 262 -89.5 c 128,-1,35
 227 -133 227 -133 184 -156 c 0,36,37
 82 -210 82 -210 -59 -210 c 1,38,-1
 -71 -176 l 1,39,40
 5 -167 5 -167 56.5 -122 c 128,-1,41
 108 -77 108 -77 135 -11 c 128,-1,42
 162 55 162 55 181 133.5 c 128,-1,43
 200 212 200 212 220.5 293.5 c 128,-1,44
 241 375 241 375 269 446.5 c 128,-1,45
 297 518 297 518 352 574.5 c 128,-1,46
 407 631 407 631 487 654 c 1,47,-1
 488 657 l 1,48,0
 420 674 420 674 382 722 c 128,-1,1
EndSplineSet
EndChar

StartChar: asciitilde
Encoding: 126 126 97
Width: 958
GlyphClass: 2
Flags: W
LayerCount: 2
Fore
SplineSet
560 743 m 0,0,1
 622 743 622 743 716 716.5 c 128,-1,2
 810 690 810 690 913 663 c 128,-1,3
 1016 636 1016 636 1100 636 c 0,4,5
 1149 636 1149 636 1205 661 c 0,6,7
 1223 669 1223 669 1254.5 686 c 128,-1,8
 1286 703 1286 703 1296 708 c 1,9,-1
 1326 669 l 1,10,11
 1254 585 1254 585 1185.5 546.5 c 128,-1,12
 1117 508 1117 508 1035 508 c 128,-1,13
 953 508 953 508 856.5 534 c 128,-1,14
 760 560 760 560 670 585.5 c 128,-1,15
 580 611 580 611 513 611 c 0,16,17
 367 611 367 611 224 508 c 1,18,-1
 196 562 l 1,19,20
 292 650 292 650 377.5 696.5 c 128,-1,21
 463 743 463 743 560 743 c 0,0,1
EndSplineSet
EndChar

StartChar: exclamdown
Encoding: 161 161 99
Width: 573
GlyphClass: 2
Flags: W
LayerCount: 2
Fore
SplineSet
513 533 m 1,0,-1
 598 533 l 1,1,2
 461 30 461 30 325 -541 c 1,3,-1
 106 -584 l 1,4,-1
 513 533 l 1,0,-1
649 900 m 0,5,6
 688 900 688 900 715 867.5 c 128,-1,7
 742 835 742 835 742 786.5 c 128,-1,8
 742 738 742 738 697.5 686 c 128,-1,9
 653 634 653 634 605.5 634 c 128,-1,10
 558 634 558 634 530 667 c 128,-1,11
 502 700 502 700 502 750.5 c 128,-1,12
 502 801 502 801 547 850.5 c 128,-1,13
 592 900 592 900 649 900 c 0,5,6
EndSplineSet
EndChar

StartChar: cent
Encoding: 162 162 100
Width: 811
GlyphClass: 2
Flags: W
LayerCount: 2
Fore
SplineSet
413 -18 m 0,0,1
 330 -18 330 -18 281.5 31 c 128,-1,2
 233 80 233 80 233 179 c 0,3,4
 233 312 233 312 296.5 452 c 128,-1,5
 360 592 360 592 469.5 705 c 128,-1,6
 579 818 579 818 708 873 c 1,7,-1
 756 1074 l 1,8,-1
 830 1074 l 1,9,-1
 788 892 l 1,10,11
 808 894 808 894 820 894 c 0,12,13
 880 894 880 894 910 880.5 c 128,-1,14
 940 867 940 867 971 834 c 1,15,16
 967 810 967 810 933.5 771 c 128,-1,17
 900 732 900 732 853 710 c 1,18,19
 821 775 821 775 763 789 c 1,20,-1
 603 104 l 1,21,22
 676 130 676 130 751.5 184.5 c 128,-1,23
 827 239 827 239 885 312 c 1,24,-1
 902 293 l 1,25,26
 846 212 846 212 762 137 c 128,-1,27
 678 62 678 62 584 21 c 1,28,-1
 535 -188 l 1,29,-1
 461 -188 l 1,30,-1
 504 -6 l 1,31,32
 453 -18 453 -18 413 -18 c 0,0,1
507 85 m 0,33,34
 519 85 519 85 525 86 c 1,35,-1
 688 784 l 1,36,37
 632 767 632 767 577 673.5 c 128,-1,38
 522 580 522 580 488 449.5 c 128,-1,39
 454 319 454 319 454 202 c 128,-1,40
 454 85 454 85 507 85 c 0,33,34
EndSplineSet
EndChar

StartChar: sterling
Encoding: 163 163 101
Width: 961
GlyphClass: 2
Flags: W
LayerCount: 2
Fore
SplineSet
781 -164 m 0,0,1
 677 -164 677 -164 558 -104 c 0,2,3
 507 -78 507 -78 456 -53 c 0,4,5
 334 7 334 7 224 7 c 0,6,7
 193 7 193 7 64 -5 c 1,8,-1
 66 29 l 1,9,10
 253 53 253 53 346 200 c 1,11,12
 394 274 394 274 424.5 367.5 c 128,-1,13
 455 461 455 461 477 590 c 1,14,-1
 272 590 l 1,15,16
 303 647 303 647 350 670 c 1,17,-1
 488 670 l 1,18,-1
 509 799 l 1,19,20
 556 1079 556 1079 707 1210 c 0,21,22
 762 1257 762 1257 842 1285.5 c 128,-1,23
 922 1314 922 1314 1001.5 1314 c 128,-1,24
 1081 1314 1081 1314 1145.5 1299 c 128,-1,25
 1210 1284 1210 1284 1241 1263 c 1,26,27
 1215 1169 1215 1169 1164 1120 c 1,28,29
 1115 1150 1115 1150 1086 1166.5 c 128,-1,30
 1057 1183 1057 1183 1008 1201.5 c 128,-1,31
 959 1220 959 1220 921 1220 c 0,32,33
 855 1220 855 1220 817 1151 c 128,-1,34
 779 1082 779 1082 755 945 c 2,35,-1
 707 670 l 1,36,-1
 808 670 l 2,37,38
 887 670 887 670 947 686 c 1,39,-1
 955 676 l 1,40,41
 907 626 907 626 877 608 c 128,-1,42
 847 590 847 590 811 590 c 2,43,-1
 691 590 l 1,44,45
 631 288 631 288 495 159 c 0,46,47
 440 107 440 107 369 76 c 1,48,-1
 370 73 l 1,49,50
 401 81 401 81 467 81 c 128,-1,51
 533 81 533 81 617.5 55 c 128,-1,52
 702 29 702 29 773 3.5 c 128,-1,53
 844 -22 844 -22 901 -22 c 128,-1,54
 958 -22 958 -22 987 0 c 128,-1,55
 1016 22 1016 22 1030 79 c 1,56,-1
 1060 81 l 1,57,58
 1030 -164 1030 -164 781 -164 c 0,0,1
EndSplineSet
EndChar

StartChar: currency
Encoding: 164 164 102
Width: 1229
GlyphClass: 2
Flags: W
LayerCount: 2
Fore
SplineSet
389 423.5 m 128,-1,1
 370 480 370 480 370 551.5 c 128,-1,2
 370 623 370 623 387 679.5 c 128,-1,3
 404 736 404 736 455 801 c 1,4,-1
 362 893 l 1,5,-1
 433 965 l 1,6,-1
 526 872 l 1,7,8
 642 961 642 961 777 961 c 128,-1,9
 912 961 912 961 1031 872 c 1,10,-1
 1123 965 l 1,11,-1
 1192 893 l 1,12,-1
 1101 801 l 1,13,14
 1149 737 1149 737 1169.5 679 c 128,-1,15
 1190 621 1190 621 1190 550 c 128,-1,16
 1190 479 1190 479 1169.5 421.5 c 128,-1,17
 1149 364 1149 364 1101 303 c 1,18,-1
 1192 211 l 1,19,-1
 1123 139 l 1,20,-1
 1031 231 l 1,21,22
 916 139 916 139 780 139 c 128,-1,23
 644 139 644 139 526 231 c 1,24,-1
 433 139 l 1,25,-1
 362 211 l 1,26,-1
 455 303 l 1,27,0
 408 367 408 367 389 423.5 c 128,-1,1
991.5 762.5 m 128,-1,29
 903 851 903 851 780.5 851 c 128,-1,30
 658 851 658 851 569 763 c 128,-1,31
 480 675 480 675 480 550 c 128,-1,32
 480 425 480 425 568.5 336.5 c 128,-1,33
 657 248 657 248 780 248 c 128,-1,34
 903 248 903 248 991.5 337 c 128,-1,35
 1080 426 1080 426 1080 550 c 128,-1,28
 1080 674 1080 674 991.5 762.5 c 128,-1,29
EndSplineSet
EndChar

StartChar: yen
Encoding: 165 165 103
Width: 1401
GlyphClass: 2
Flags: W
LayerCount: 2
Fore
SplineSet
664 1322 m 0,0,1
 756 1322 756 1322 824.5 1286 c 128,-1,2
 893 1250 893 1250 934 1184 c 0,3,4
 1012 1058 1012 1058 1012 846 c 0,5,6
 1012 685 1012 685 991 529 c 1,7,-1
 994 528 l 1,8,9
 1299 894 1299 894 1299 1144 c 0,10,11
 1299 1178 1299 1178 1279 1191 c 128,-1,12
 1259 1204 1259 1204 1206 1204 c 0,13,14
 1195 1204 1195 1204 1188 1211.5 c 128,-1,15
 1181 1219 1181 1219 1181 1229 c 0,16,17
 1181 1257 1181 1257 1217 1292.5 c 128,-1,18
 1253 1328 1253 1328 1281 1328 c 0,19,20
 1363 1328 1363 1328 1415.5 1306.5 c 128,-1,21
 1468 1285 1468 1285 1468 1237 c 0,22,23
 1468 1012 1468 1012 1233 670 c 1,24,-1
 1383 670 l 2,25,26
 1462 670 1462 670 1520 686 c 1,27,-1
 1529 676 l 1,28,29
 1487 626 1487 626 1460 608 c 128,-1,30
 1433 590 1433 590 1397 590 c 2,31,-1
 1176 590 l 1,32,33
 1119 514 1119 514 1056 440 c 1,34,-1
 1275 440 l 2,35,36
 1354 440 1354 440 1412 456 c 1,37,-1
 1421 446 l 1,38,39
 1379 396 1379 396 1351 378 c 128,-1,40
 1323 360 1323 360 1287 360 c 2,41,-1
 985 360 l 1,42,-1
 955 328 l 1,43,44
 885 25 885 25 736 -170 c 0,45,46
 663 -266 663 -266 566.5 -319.5 c 128,-1,47
 470 -373 470 -373 359 -373 c 0,48,49
 218 -373 218 -373 59 -284 c 1,50,51
 59 -238 59 -238 85 -190.5 c 128,-1,52
 111 -143 111 -143 137.5 -143 c 128,-1,53
 164 -143 164 -143 216.5 -177.5 c 128,-1,54
 269 -212 269 -212 328 -246.5 c 128,-1,55
 387 -281 387 -281 429 -281 c 0,56,57
 492 -281 492 -281 557 -189 c 128,-1,58
 622 -97 622 -97 673 47 c 128,-1,59
 724 191 724 191 757 360 c 1,60,-1
 388 360 l 1,61,62
 412 412 412 412 467 440 c 1,63,-1
 770 440 l 1,64,65
 782 513 782 513 788 590 c 1,66,-1
 468 590 l 1,67,68
 492 642 492 642 547 670 c 1,69,-1
 793 670 l 1,70,71
 795 710 795 710 795 730 c 0,72,73
 795 941 795 941 738 1072 c 0,74,75
 708 1139 708 1139 658.5 1176.5 c 128,-1,76
 609 1214 609 1214 545 1214 c 128,-1,77
 481 1214 481 1214 434 1181.5 c 128,-1,78
 387 1149 387 1149 360 1094 c 0,79,80
 304 983 304 983 304 836 c 1,81,82
 245 803 245 803 129 803 c 1,83,84
 129 1031 129 1031 279 1176.5 c 128,-1,85
 429 1322 429 1322 664 1322 c 0,0,1
EndSplineSet
EndChar

StartChar: brokenbar
Encoding: 166 166 104
Width: 1065
GlyphClass: 2
Flags: W
LayerCount: 2
Fore
SplineSet
580 -340 m 1,0,-1
 454 -340 l 1,1,-1
 606 400 l 1,2,-1
 732 400 l 1,3,-1
 580 -340 l 1,0,-1
954 1474 m 1,4,-1
 818 819 l 1,5,-1
 690 819 l 1,6,-1
 827 1474 l 1,7,-1
 954 1474 l 1,4,-1
EndSplineSet
EndChar

StartChar: section
Encoding: 167 167 105
Width: 774
GlyphClass: 2
Flags: W
LayerCount: 2
Fore
SplineSet
132.5 -227.5 m 128,-1,1
 176 -248 176 -248 218.5 -248 c 128,-1,2
 261 -248 261 -248 295 -221.5 c 128,-1,3
 329 -195 329 -195 346 -151 c 0,4,5
 377 -67 377 -67 377 39 c 128,-1,6
 377 145 377 145 328 372 c 0,7,8
 277 607 277 607 277 733 c 128,-1,9
 277 859 277 859 319.5 975 c 128,-1,10
 362 1091 362 1091 436 1184.5 c 128,-1,11
 510 1278 510 1278 621.5 1336 c 128,-1,12
 733 1394 733 1394 861 1394 c 0,13,14
 911 1394 911 1394 968.5 1375 c 128,-1,15
 1026 1356 1026 1356 1066 1325 c 1,16,17
 1026 1242 1026 1242 953 1221 c 1,18,19
 925 1247 925 1247 876 1269 c 128,-1,20
 827 1291 827 1291 788 1291 c 0,21,22
 731 1291 731 1291 696.5 1244.5 c 128,-1,23
 662 1198 662 1198 662 1119.5 c 128,-1,24
 662 1041 662 1041 671 982 c 128,-1,25
 680 923 680 923 714 775 c 0,26,27
 768 544 768 544 768 393 c 0,28,29
 768 42 768 42 542 -180 c 0,30,31
 366 -353 366 -353 152 -353 c 0,32,33
 102 -353 102 -353 44.5 -334 c 128,-1,34
 -13 -315 -13 -315 -53 -284 c 1,35,36
 -38 -251 -38 -251 -9 -221.5 c 128,-1,37
 20 -192 20 -192 60 -181 c 1,38,0
 89 -207 89 -207 132.5 -227.5 c 128,-1,1
535 1029 m 0,39,40
 535 1083 535 1083 543 1142 c 1,41,42
 476 1057 476 1057 447 965 c 128,-1,43
 418 873 418 873 418 758.5 c 128,-1,44
 418 644 418 644 462 418 c 128,-1,45
 506 192 506 192 506 69 c 0,46,47
 506 -6 506 -6 485 -90 c 1,48,49
 562 3 562 3 594.5 108 c 128,-1,50
 627 213 627 213 627 346.5 c 128,-1,51
 627 480 627 480 586 685 c 1,52,-1
 576 728 l 1,53,54
 535 917 535 917 535 1029 c 0,39,40
EndSplineSet
EndChar

StartChar: dieresis
Encoding: 168 168 106
Width: 735
GlyphClass: 2
Flags: W
LayerCount: 2
Fore
SplineSet
540 1151 m 1,0,-1
 633 1247 l 1,1,2
 704 1199 704 1199 733 1147 c 1,3,4
 707 1100 707 1100 638 1042 c 1,5,6
 557 1108 557 1108 540 1151 c 1,0,-1
814 1151 m 1,7,-1
 907 1247 l 1,8,9
 977 1201 977 1201 1007 1147 c 1,10,11
 980 1099 980 1099 913 1042 c 1,12,13
 833 1106 833 1106 814 1151 c 1,7,-1
EndSplineSet
EndChar

StartChar: copyright
Encoding: 169 169 107
Width: 1516
GlyphClass: 2
Flags: W
LayerCount: 2
Fore
SplineSet
994 1268 m 0,0,1
 1095 1268 1095 1268 1184 1237 c 128,-1,2
 1273 1206 1273 1206 1337.5 1152.5 c 128,-1,3
 1402 1099 1402 1099 1448 1028 c 1,4,5
 1542 887 1542 887 1542 717 c 0,6,7
 1542 506 1542 506 1459.5 344.5 c 128,-1,8
 1377 183 1377 183 1219 92 c 128,-1,9
 1061 1 1061 1 849 1 c 0,10,11
 734 1 734 1 631.5 49.5 c 128,-1,12
 529 98 529 98 460 176.5 c 128,-1,13
 391 255 391 255 351.5 353.5 c 128,-1,14
 312 452 312 452 312 551 c 0,15,16
 312 861 312 861 482 1060 c 0,17,18
 565 1158 565 1158 696.5 1213 c 128,-1,19
 828 1268 828 1268 994 1268 c 0,0,1
1146 1100 m 128,-1,21
 1054 1145 1054 1145 935 1145 c 128,-1,22
 816 1145 816 1145 715.5 1103 c 128,-1,23
 615 1061 615 1061 554 990 c 0,24,25
 431 847 431 847 431 648 c 0,26,27
 431 550 431 550 463 457 c 128,-1,28
 495 364 495 364 553 289.5 c 128,-1,29
 611 215 611 215 701.5 169.5 c 128,-1,30
 792 124 792 124 910.5 124 c 128,-1,31
 1029 124 1029 124 1131 166 c 128,-1,32
 1233 208 1233 208 1294 279 c 0,33,34
 1420 424 1420 424 1420 622 c 0,35,36
 1420 720 1420 720 1387.5 813 c 128,-1,37
 1355 906 1355 906 1296.5 980.5 c 128,-1,20
 1238 1055 1238 1055 1146 1100 c 128,-1,21
825 988 m 0,38,39
 892 1011 892 1011 966.5 1011 c 128,-1,40
 1041 1011 1041 1011 1110.5 987 c 128,-1,41
 1180 963 1180 963 1202 932 c 1,42,-1
 1202 790 l 1,43,-1
 1135 790 l 1,44,45
 1130 839 1130 839 1089 880.5 c 128,-1,46
 1048 922 1048 922 966 922 c 0,47,48
 863 922 863 922 801.5 844.5 c 128,-1,49
 740 767 740 767 740 647 c 128,-1,50
 740 527 740 527 802.5 439 c 128,-1,51
 865 351 865 351 979 351 c 0,52,53
 1055 351 1055 351 1104 396 c 0,54,55
 1141 430 1141 430 1170 475 c 1,56,-1
 1232 475 l 1,57,-1
 1201 329 l 1,58,59
 1178 306 1178 306 1099.5 284 c 128,-1,60
 1021 262 1021 262 951 262 c 128,-1,61
 881 262 881 262 812.5 284 c 128,-1,62
 744 306 744 306 689 351.5 c 128,-1,63
 634 397 634 397 603 473 c 128,-1,64
 572 549 572 549 572 650 c 0,65,66
 572 752 572 752 634 844 c 0,67,68
 705 948 705 948 825 988 c 0,38,39
EndSplineSet
EndChar

StartChar: ordfeminine
Encoding: 170 170 108
Width: 578
GlyphClass: 2
Flags: W
LayerCount: 2
Fore
SplineSet
730.5 824 m 128,-1,1
 640 748 640 748 584.5 748 c 128,-1,2
 529 748 529 748 529 793 c 0,3,4
 529 853 529 853 603 1078 c 1,5,-1
 595 1081 l 1,6,7
 508 925 508 925 394 808 c 0,8,9
 330 743 330 743 294 743 c 0,10,11
 246 743 246 743 246 834 c 0,12,13
 246 964 246 964 307 1116 c 1,14,15
 357 1236 357 1236 443 1302 c 128,-1,16
 529 1368 529 1368 668 1368 c 0,17,18
 759 1368 759 1368 823 1358 c 1,19,20
 773 1139 773 1139 670 836 c 1,21,-1
 672 834 l 1,22,23
 786 900 786 900 856 991 c 1,24,-1
 871 978 l 1,25,0
 821 900 821 900 730.5 824 c 128,-1,1
598 1306 m 0,26,27
 516 1306 516 1306 478 1262 c 0,28,29
 419 1192 419 1192 393 986 c 0,30,31
 383 906 383 906 383 866 c 1,32,33
 470 943 470 943 562 1082.5 c 128,-1,34
 654 1222 654 1222 667 1299 c 1,35,36
 651 1306 651 1306 598 1306 c 0,26,27
EndSplineSet
EndChar

StartChar: guillemotleft
Encoding: 171 171 109
Width: 700
GlyphClass: 2
Flags: W
LayerCount: 2
Fore
SplineSet
764 130 m 1,0,-1
 650 12 l 1,1,2
 609 96 609 96 528 203 c 128,-1,3
 447 310 447 310 341 405 c 1,4,5
 467 499 467 499 569.5 605.5 c 128,-1,6
 672 712 672 712 734 799 c 1,7,-1
 811 656 l 1,8,9
 770 610 770 610 676.5 532.5 c 128,-1,10
 583 455 583 455 504 402 c 1,11,12
 574 344 574 344 653 261.5 c 128,-1,13
 732 179 732 179 764 130 c 1,0,-1
455 130 m 1,14,-1
 341 12 l 1,15,16
 300 96 300 96 219 203 c 128,-1,17
 138 310 138 310 32 405 c 1,18,19
 158 499 158 499 260.5 605.5 c 128,-1,20
 363 712 363 712 425 799 c 1,21,-1
 502 656 l 1,22,23
 461 611 461 611 367.5 533.5 c 128,-1,24
 274 456 274 456 195 402 c 1,25,26
 265 344 265 344 344 261.5 c 128,-1,27
 423 179 423 179 455 130 c 1,14,-1
EndSplineSet
EndChar

StartChar: logicalnot
Encoding: 172 172 110
Width: 1229
GlyphClass: 2
Flags: W
LayerCount: 2
Fore
SplineSet
299 674 m 1,0,-1
 1231 674 l 1,1,-1
 1162 110 l 1,2,-1
 1015 110 l 1,3,-1
 1069 548 l 1,4,-1
 241 548 l 1,5,-1
 299 674 l 1,0,-1
EndSplineSet
EndChar

StartChar: uni00AD
Encoding: 173 173 111
Width: 590
GlyphClass: 2
Flags: W
LayerCount: 2
Fore
SplineSet
228 533 m 1,0,1
 521 533 521 533 730 560 c 1,2,-1
 657 456 l 1,3,4
 449 431 449 431 160 431 c 1,5,-1
 228 533 l 1,0,1
EndSplineSet
EndChar

StartChar: registered
Encoding: 174 174 112
Width: 1516
GlyphClass: 2
Flags: W
LayerCount: 2
Fore
SplineSet
858 1268 m 0,0,1
 959 1268 959 1268 1047.5 1237 c 128,-1,2
 1136 1206 1136 1206 1200.5 1152.5 c 128,-1,3
 1265 1099 1265 1099 1312 1028 c 0,4,5
 1405 889 1405 889 1405 717 c 0,6,7
 1405 506 1405 506 1323 344.5 c 128,-1,8
 1241 183 1241 183 1083.5 92 c 128,-1,9
 926 1 926 1 714 1 c 0,10,11
 598 1 598 1 495.5 49.5 c 128,-1,12
 393 98 393 98 324 176.5 c 128,-1,13
 255 255 255 255 215 353.5 c 128,-1,14
 175 452 175 452 175 551 c 0,15,16
 175 861 175 861 346 1060 c 0,17,18
 429 1158 429 1158 560.5 1213 c 128,-1,19
 692 1268 692 1268 858 1268 c 0,0,1
733 341 m 2,20,21
 737 341 737 341 757 339 c 1,22,-1
 757 271 l 1,23,-1
 489 271 l 1,24,-1
 489 336 l 1,25,26
 524 342 524 342 551 349 c 1,27,-1
 551 918 l 1,28,29
 540 922 540 922 489 931 c 1,30,-1
 489 997 l 1,31,-1
 586 997 l 2,32,33
 660 997 660 997 728.5 1005 c 128,-1,34
 797 1013 797 1013 838.5 1013 c 128,-1,35
 880 1013 880 1013 922 1002 c 128,-1,36
 964 991 964 991 1002 967 c 128,-1,37
 1040 943 1040 943 1062.5 898 c 128,-1,38
 1085 853 1085 853 1085 792 c 0,39,40
 1085 624 1085 624 908 584 c 1,41,-1
 926 555 l 1,42,-1
 925 555 l 1,43,44
 970 490 970 490 995.5 455.5 c 128,-1,45
 1021 421 1021 421 1063.5 375 c 128,-1,46
 1106 329 1106 329 1148 299 c 1,47,-1
 1095 223 l 1,48,49
 1187 292 1187 292 1234.5 398 c 128,-1,50
 1282 504 1282 504 1282 612.5 c 128,-1,51
 1282 721 1282 721 1250 813.5 c 128,-1,52
 1218 906 1218 906 1159.5 980.5 c 128,-1,53
 1101 1055 1101 1055 1009.5 1100 c 128,-1,54
 918 1145 918 1145 799 1145 c 128,-1,55
 680 1145 680 1145 579.5 1103 c 128,-1,56
 479 1061 479 1061 418 990 c 0,57,58
 295 845 295 845 295 646 c 0,59,60
 295 547 295 547 326.5 454.5 c 128,-1,61
 358 362 358 362 416 288 c 128,-1,62
 474 214 474 214 564.5 169 c 128,-1,63
 655 124 655 124 764 124 c 0,64,65
 959 124 959 124 1092 220 c 1,66,67
 900 343 900 343 709 621 c 1,68,-1
 709 346 l 1,69,-1
 733 341 l 2,20,21
771 646 m 0,70,71
 854 646 854 646 893.5 692.5 c 128,-1,72
 933 739 933 739 933 801.5 c 128,-1,73
 933 864 933 864 897.5 891 c 128,-1,74
 862 918 862 918 812.5 918 c 128,-1,75
 763 918 763 918 709 905 c 1,76,-1
 709 633 l 1,77,-1
 731 654 l 1,78,79
 754 646 754 646 771 646 c 0,70,71
EndSplineSet
EndChar

StartChar: macron
Encoding: 175 175 113
Width: 842
GlyphClass: 2
Flags: W
LayerCount: 2
Fore
SplineSet
435 1184 m 1,0,-1
 928 1184 l 1,1,-1
 837 1074 l 1,2,-1
 348 1074 l 1,3,-1
 435 1184 l 1,0,-1
EndSplineSet
EndChar

StartChar: degree
Encoding: 176 176 114
Width: 819
GlyphClass: 2
Flags: W
LayerCount: 2
Fore
SplineSet
497 1237.5 m 128,-1,1
 580 1314 580 1314 701.5 1314 c 128,-1,2
 823 1314 823 1314 902 1245 c 128,-1,3
 981 1176 981 1176 981 1053.5 c 128,-1,4
 981 931 981 931 897.5 852.5 c 128,-1,5
 814 774 814 774 684 774 c 0,6,7
 574 774 574 774 494 844 c 128,-1,8
 414 914 414 914 414 1037.5 c 128,-1,0
 414 1161 414 1161 497 1237.5 c 128,-1,1
804 1184 m 128,-1,10
 763 1238 763 1238 697 1238 c 128,-1,11
 631 1238 631 1238 590 1185.5 c 128,-1,12
 549 1133 549 1133 549 1042 c 128,-1,13
 549 951 549 951 591 899 c 128,-1,14
 633 847 633 847 696 847 c 128,-1,15
 759 847 759 847 802 898 c 128,-1,16
 845 949 845 949 845 1039.5 c 128,-1,9
 845 1130 845 1130 804 1184 c 128,-1,10
EndSplineSet
EndChar

StartChar: plusminus
Encoding: 177 177 115
Width: 1124
GlyphClass: 2
Flags: W
LayerCount: 2
Fore
SplineSet
822 1219 m 1,0,-1
 770 793 l 1,1,-1
 1208 793 l 1,2,-1
 1151 669 l 1,3,-1
 763 669 l 1,4,-1
 714 273 l 1,5,-1
 580 229 l 1,6,-1
 634 669 l 1,7,-1
 205 669 l 1,8,-1
 262 793 l 1,9,-1
 641 793 l 1,10,-1
 688 1175 l 1,11,-1
 822 1219 l 1,0,-1
262 125 m 1,12,-1
 1208 125 l 1,13,-1
 1150 1 l 1,14,-1
 204 1 l 1,15,-1
 262 125 l 1,12,-1
EndSplineSet
EndChar

StartChar: twosuperior
Encoding: 178 178 116
Width: 512
GlyphClass: 2
Flags: W
LayerCount: 2
Fore
SplineSet
502 1202 m 1,0,1
 464 1164 464 1164 418 1164 c 128,-1,2
 372 1164 372 1164 352.5 1184 c 128,-1,3
 333 1204 333 1204 333 1236 c 0,4,5
 333 1306 333 1306 407 1375.5 c 128,-1,6
 481 1445 481 1445 590 1445 c 0,7,8
 662 1445 662 1445 701 1409.5 c 128,-1,9
 740 1374 740 1374 740 1314 c 0,10,11
 740 1196 740 1196 613 1084 c 0,12,13
 561 1039 561 1039 486 984.5 c 128,-1,14
 411 930 411 930 389 913 c 1,15,-1
 588 913 l 2,16,17
 620 913 620 913 639 923 c 128,-1,18
 658 933 658 933 688 969 c 1,19,-1
 711 959 l 1,20,21
 697 928 697 928 669.5 873 c 128,-1,22
 642 818 642 818 632 795 c 1,23,24
 567 807 567 807 514 807 c 2,25,-1
 231 807 l 1,26,-1
 229 841 l 1,27,28
 244 854 244 854 292.5 894 c 128,-1,29
 341 934 341 934 363.5 954 c 128,-1,30
 386 974 386 974 427.5 1012.5 c 128,-1,31
 469 1051 469 1051 490.5 1078.5 c 128,-1,32
 512 1106 512 1106 537 1142 c 0,33,34
 584 1210 584 1210 584 1279.5 c 128,-1,35
 584 1349 584 1349 517 1349 c 0,36,37
 457 1349 457 1349 418.5 1312 c 128,-1,38
 380 1275 380 1275 380 1236.5 c 128,-1,39
 380 1198 380 1198 419 1198 c 0,40,41
 454 1198 454 1198 487 1222 c 1,42,-1
 502 1202 l 1,0,1
EndSplineSet
EndChar

StartChar: threesuperior
Encoding: 179 179 117
Width: 537
GlyphClass: 2
Flags: W
LayerCount: 2
Fore
SplineSet
560 1440 m 0,0,1
 630 1440 630 1440 672 1410 c 128,-1,2
 714 1380 714 1380 714 1323.5 c 128,-1,3
 714 1267 714 1267 674 1230 c 128,-1,4
 634 1193 634 1193 558 1155 c 1,5,6
 677 1126 677 1126 677 1036 c 0,7,8
 677 927 677 927 581.5 860 c 128,-1,9
 486 793 486 793 366 793 c 0,10,11
 283 793 283 793 209 832 c 1,12,13
 224 893 224 893 273 936 c 1,14,15
 347 886 347 886 367 880 c 1,16,17
 406 866 406 866 433 866 c 0,18,19
 483 866 483 866 505.5 908 c 128,-1,20
 528 950 528 950 528 1009 c 0,21,22
 528 1104 528 1104 381 1104 c 1,23,-1
 383 1127 l 1,24,25
 556 1177 556 1177 556 1290 c 0,26,27
 556 1320 556 1320 536 1337.5 c 128,-1,28
 516 1355 516 1355 481 1355 c 128,-1,29
 446 1355 446 1355 420 1343.5 c 128,-1,30
 394 1332 394 1332 352 1302 c 1,31,-1
 330 1326 l 1,32,33
 431 1440 431 1440 560 1440 c 0,0,1
EndSplineSet
EndChar

StartChar: acute
Encoding: 180 180 118
Width: 590
GlyphClass: 2
Flags: W
LayerCount: 2
Fore
SplineSet
673 1296 m 1,0,-1
 809 1272 l 1,1,2
 777 1182 777 1182 688.5 1113.5 c 128,-1,3
 600 1045 600 1045 492 1004 c 1,4,-1
 459 1036 l 1,5,6
 613 1134 613 1134 673 1296 c 1,0,-1
EndSplineSet
EndChar

StartChar: paragraph
Encoding: 182 182 119
Width: 922
GlyphClass: 2
Flags: W
LayerCount: 2
Fore
SplineSet
18 598 m 0,0,1
 18 702 18 702 54.5 800 c 128,-1,2
 91 898 91 898 153 963 c 128,-1,3
 215 1028 215 1028 301 1071 c 0,4,5
 463 1152 463 1152 675.5 1152 c 128,-1,6
 888 1152 888 1152 1052 1105 c 1,7,8
 1038 1031 1038 1031 1034 1031 c 1,9,10
 976 1051 976 1051 911 1062 c 1,11,12
 897 996 897 996 800 602 c 2,13,-1
 721 280 l 1,14,15
 816 285 816 285 870 294 c 1,16,-1
 850 220 l 1,17,18
 789 209 789 209 702 201 c 1,19,-1
 687 140 l 2,20,21
 657 16 657 16 614.5 -74 c 128,-1,22
 572 -164 572 -164 508 -234 c 1,23,24
 378 -373 378 -373 128 -373 c 0,25,26
 63 -373 63 -373 -13 -357 c 1,27,28
 -7 -307 -7 -307 14.5 -266 c 128,-1,29
 36 -225 36 -225 70 -207 c 1,30,31
 117 -224 117 -224 183.5 -239.5 c 128,-1,32
 250 -255 250 -255 291 -255 c 0,33,34
 349 -255 349 -255 381 -206.5 c 128,-1,35
 413 -158 413 -158 444 -35 c 1,36,37
 465 54 465 54 501 194 c 1,38,39
 242 204 242 204 118 320 c 0,40,41
 18 413 18 413 18 598 c 0,0,1
347 569 m 0,42,43
 347 337 347 337 524 289 c 1,44,-1
 721 1077 l 1,45,46
 544 1065 544 1065 445.5 926.5 c 128,-1,47
 347 788 347 788 347 569 c 0,42,43
EndSplineSet
EndChar

StartChar: periodcentered
Encoding: 183 183 120
Width: 444
GlyphClass: 2
Flags: W
LayerCount: 2
Fore
SplineSet
423 861 m 0,0,1
 462 861 462 861 488.5 829 c 128,-1,2
 515 797 515 797 515 748 c 128,-1,3
 515 699 515 699 471 647 c 128,-1,4
 427 595 427 595 379 595 c 128,-1,5
 331 595 331 595 303 628 c 128,-1,6
 275 661 275 661 275 711.5 c 128,-1,7
 275 762 275 762 320.5 811.5 c 128,-1,8
 366 861 366 861 423 861 c 0,0,1
EndSplineSet
EndChar

StartChar: cedilla
Encoding: 184 184 121
Width: 627
GlyphClass: 2
Flags: W
LayerCount: 2
Fore
SplineSet
535 -259 m 0,0,1
 535 -336 535 -336 468 -386 c 128,-1,2
 401 -436 401 -436 300 -436 c 0,3,4
 246 -436 246 -436 199 -416 c 128,-1,5
 152 -396 152 -396 126 -357 c 1,6,-1
 207 -282 l 1,7,8
 250 -324 250 -324 288 -346.5 c 128,-1,9
 326 -369 326 -369 360 -369 c 0,10,11
 423 -369 423 -369 423 -326 c 0,12,13
 423 -234 423 -234 195 -167 c 1,14,-1
 442 40 l 1,15,-1
 474 12 l 1,16,-1
 350 -94 l 1,17,18
 535 -137 535 -137 535 -259 c 0,0,1
EndSplineSet
EndChar

StartChar: onesuperior
Encoding: 185 185 122
Width: 537
GlyphClass: 2
Flags: W
LayerCount: 2
Fore
SplineSet
530 923 m 0,0,1
 530 855 530 855 663 839 c 1,2,-1
 648 800 l 1,3,4
 523 810 523 810 400 810 c 128,-1,5
 277 810 277 810 180 795 c 1,6,-1
 187 827 l 1,7,8
 272 846 272 846 304.5 870.5 c 128,-1,9
 337 895 337 895 351 961 c 0,10,11
 357 989 357 989 388.5 1123 c 128,-1,12
 420 1257 420 1257 432 1313 c 1,13,-1
 307 1290 l 1,14,-1
 298 1320 l 1,15,16
 427 1381 427 1381 599 1459 c 1,17,-1
 654 1445 l 1,18,19
 613 1336 613 1336 571.5 1174 c 128,-1,20
 530 1012 530 1012 530 923 c 0,0,1
EndSplineSet
EndChar

StartChar: ordmasculine
Encoding: 186 186 123
Width: 553
GlyphClass: 2
Flags: W
LayerCount: 2
Fore
SplineSet
498 1292 m 128,-1,1
 592 1370 592 1370 686.5 1370 c 128,-1,2
 781 1370 781 1370 818.5 1325.5 c 128,-1,3
 856 1281 856 1281 856 1182.5 c 128,-1,4
 856 1084 856 1084 796 976 c 128,-1,5
 736 868 736 868 638.5 799.5 c 128,-1,6
 541 731 541 731 441 731 c 0,7,8
 367 731 367 731 330.5 772 c 128,-1,9
 294 813 294 813 294 904.5 c 128,-1,10
 294 996 294 996 349 1105 c 128,-1,0
 404 1214 404 1214 498 1292 c 128,-1,1
642 1321 m 0,11,12
 591 1321 591 1321 544 1260 c 128,-1,13
 497 1199 497 1199 469.5 1105.5 c 128,-1,14
 442 1012 442 1012 442 936 c 128,-1,15
 442 860 442 860 459.5 823 c 128,-1,16
 477 786 477 786 508 786 c 0,17,18
 551 786 551 786 597 835 c 128,-1,19
 643 884 643 884 676 973 c 128,-1,20
 709 1062 709 1062 709 1161 c 0,21,22
 709 1321 709 1321 642 1321 c 0,11,12
EndSplineSet
EndChar

StartChar: guillemotright
Encoding: 187 187 124
Width: 774
GlyphClass: 2
Flags: W
LayerCount: 2
Fore
SplineSet
121 677 m 1,0,-1
 235 795 l 1,1,2
 276 711 276 711 357 604 c 128,-1,3
 438 497 438 497 544 401 c 1,4,5
 418 308 418 308 315.5 201.5 c 128,-1,6
 213 95 213 95 151 8 c 1,7,-1
 74 151 l 1,8,9
 116 196 116 196 209.5 273.5 c 128,-1,10
 303 351 303 351 381 404 c 1,11,12
 312 462 312 462 232.5 545 c 128,-1,13
 153 628 153 628 121 677 c 1,0,-1
430 677 m 1,14,-1
 544 795 l 1,15,16
 585 711 585 711 666 604 c 128,-1,17
 747 497 747 497 853 401 c 1,18,19
 727 308 727 308 624.5 201.5 c 128,-1,20
 522 95 522 95 460 8 c 1,21,-1
 383 151 l 1,22,23
 424 196 424 196 517.5 273.5 c 128,-1,24
 611 351 611 351 690 404 c 1,25,26
 621 462 621 462 541.5 545 c 128,-1,27
 462 628 462 628 430 677 c 1,14,-1
EndSplineSet
EndChar

StartChar: onequarter
Encoding: 188 188 125
Width: 1434
GlyphClass: 2
Flags: W
LayerCount: 2
Fore
SplineSet
1044 165 m 2,0,1
 924 165 924 165 828 159 c 1,2,-1
 823 186 l 1,3,4
 835 199 835 199 905 268 c 128,-1,5
 975 337 975 337 1025.5 388.5 c 128,-1,6
 1076 440 1076 440 1131.5 504.5 c 128,-1,7
 1187 569 1187 569 1206 605 c 1,8,9
 1266 646 1266 646 1336 665 c 1,10,-1
 1370 647 l 1,11,12
 1334 531 1334 531 1259 233 c 1,13,14
 1321 233 1321 233 1369 247 c 1,15,-1
 1379 229 l 1,16,17
 1325 163 1325 163 1240 163 c 1,18,-1
 1204 9 l 1,19,-1
 1051 -10 l 1,20,-1
 1096 165 l 1,21,-1
 1044 165 l 2,0,1
1112 233 m 1,22,-1
 1181 474 l 1,23,-1
 950 233 l 1,24,-1
 1112 233 l 1,22,-1
599 923 m 0,25,26
 599 855 599 855 732 839 c 1,27,-1
 717 800 l 1,28,29
 592 810 592 810 469 810 c 128,-1,30
 346 810 346 810 249 795 c 1,31,-1
 256 827 l 1,32,33
 341 846 341 846 373.5 870.5 c 128,-1,34
 406 895 406 895 420 961 c 0,35,36
 426 989 426 989 457.5 1123 c 128,-1,37
 489 1257 489 1257 501 1313 c 1,38,-1
 376 1290 l 1,39,-1
 367 1320 l 1,40,41
 496 1381 496 1381 668 1459 c 1,42,-1
 723 1445 l 1,43,44
 682 1336 682 1336 640.5 1174 c 128,-1,45
 599 1012 599 1012 599 923 c 0,25,26
1717 1474 m 1,46,-1
 323 0 l 1,47,-1
 184 0 l 1,48,-1
 1577 1474 l 1,49,-1
 1717 1474 l 1,46,-1
EndSplineSet
EndChar

StartChar: onehalf
Encoding: 189 189 126
Width: 1434
GlyphClass: 2
Flags: W
LayerCount: 2
Fore
SplineSet
1198 395 m 1,0,1
 1160 357 1160 357 1114 357 c 0,2,3
 1029 357 1029 357 1029 428 c 128,-1,4
 1029 499 1029 499 1103 568.5 c 128,-1,5
 1177 638 1177 638 1286 638 c 0,6,7
 1358 638 1358 638 1397 602.5 c 128,-1,8
 1436 567 1436 567 1436 507 c 0,9,10
 1436 389 1436 389 1309 277 c 0,11,12
 1257 232 1257 232 1182 177.5 c 128,-1,13
 1107 123 1107 123 1085 106 c 1,14,-1
 1284 106 l 2,15,16
 1316 106 1316 106 1335 116 c 128,-1,17
 1354 126 1354 126 1384 162 c 1,18,-1
 1407 152 l 1,19,20
 1393 121 1393 121 1365.5 66 c 128,-1,21
 1338 11 1338 11 1328 -12 c 1,22,23
 1263 0 1263 0 1210 0 c 2,24,-1
 927 0 l 1,25,-1
 925 34 l 1,26,27
 940 47 940 47 988.5 87 c 128,-1,28
 1037 127 1037 127 1059.5 147 c 128,-1,29
 1082 167 1082 167 1123.5 205.5 c 128,-1,30
 1165 244 1165 244 1186.5 271.5 c 128,-1,31
 1208 299 1208 299 1233 335 c 0,32,33
 1280 403 1280 403 1280 472.5 c 128,-1,34
 1280 542 1280 542 1213 542 c 0,35,36
 1153 542 1153 542 1114.5 505 c 128,-1,37
 1076 468 1076 468 1076 429.5 c 128,-1,38
 1076 391 1076 391 1115 391 c 0,39,40
 1150 391 1150 391 1183 415 c 1,41,-1
 1198 395 l 1,0,1
599 923 m 0,42,43
 599 855 599 855 732 839 c 1,44,-1
 717 800 l 1,45,46
 592 810 592 810 469 810 c 128,-1,47
 346 810 346 810 249 795 c 1,48,-1
 256 827 l 1,49,50
 341 846 341 846 373.5 870.5 c 128,-1,51
 406 895 406 895 420 961 c 0,52,53
 426 989 426 989 457.5 1123 c 128,-1,54
 489 1257 489 1257 501 1313 c 1,55,-1
 376 1290 l 1,56,-1
 367 1320 l 1,57,58
 496 1381 496 1381 668 1459 c 1,59,-1
 723 1445 l 1,60,61
 682 1336 682 1336 640.5 1174 c 128,-1,62
 599 1012 599 1012 599 923 c 0,42,43
1709 1474 m 1,63,-1
 315 0 l 1,64,-1
 176 0 l 1,65,-1
 1569 1474 l 1,66,-1
 1709 1474 l 1,63,-1
EndSplineSet
EndChar

StartChar: threequarters
Encoding: 190 190 127
Width: 1434
GlyphClass: 2
Flags: W
LayerCount: 2
Fore
SplineSet
1044 165 m 2,0,1
 924 165 924 165 828 159 c 1,2,-1
 823 186 l 1,3,4
 835 199 835 199 905 268 c 128,-1,5
 975 337 975 337 1025.5 388.5 c 128,-1,6
 1076 440 1076 440 1131.5 504.5 c 128,-1,7
 1187 569 1187 569 1206 605 c 1,8,9
 1266 646 1266 646 1336 665 c 1,10,-1
 1370 647 l 1,11,12
 1334 531 1334 531 1259 233 c 1,13,14
 1321 233 1321 233 1369 247 c 1,15,-1
 1379 229 l 1,16,17
 1325 163 1325 163 1240 163 c 1,18,-1
 1204 9 l 1,19,-1
 1051 -10 l 1,20,-1
 1096 165 l 1,21,-1
 1044 165 l 2,0,1
1112 233 m 1,22,-1
 1181 474 l 1,23,-1
 950 233 l 1,24,-1
 1112 233 l 1,22,-1
612 1440 m 0,25,26
 682 1440 682 1440 724 1410 c 128,-1,27
 766 1380 766 1380 766 1323.5 c 128,-1,28
 766 1267 766 1267 726 1230 c 128,-1,29
 686 1193 686 1193 610 1155 c 1,30,31
 729 1126 729 1126 729 1036 c 0,32,33
 729 927 729 927 633.5 860 c 128,-1,34
 538 793 538 793 418 793 c 0,35,36
 335 793 335 793 261 832 c 1,37,38
 276 893 276 893 325 936 c 1,39,40
 399 886 399 886 419 880 c 1,41,42
 458 866 458 866 485 866 c 0,43,44
 535 866 535 866 557.5 908 c 128,-1,45
 580 950 580 950 580 1009 c 0,46,47
 580 1104 580 1104 433 1104 c 1,48,-1
 435 1127 l 1,49,50
 608 1177 608 1177 608 1290 c 0,51,52
 608 1320 608 1320 588 1337.5 c 128,-1,53
 568 1355 568 1355 533 1355 c 128,-1,54
 498 1355 498 1355 472 1343.5 c 128,-1,55
 446 1332 446 1332 404 1302 c 1,56,-1
 382 1326 l 1,57,58
 483 1440 483 1440 612 1440 c 0,25,26
1671 1474 m 1,59,-1
 277 0 l 1,60,-1
 138 0 l 1,61,-1
 1531 1474 l 1,62,-1
 1671 1474 l 1,59,-1
EndSplineSet
EndChar

StartChar: questiondown
Encoding: 191 191 128
Width: 801
GlyphClass: 2
Flags: W
LayerCount: 2
Fore
SplineSet
729 511 m 1,0,1
 771 474 771 474 771 416.5 c 128,-1,2
 771 359 771 359 746 306.5 c 128,-1,3
 721 254 721 254 681 208.5 c 128,-1,4
 641 163 641 163 593 116.5 c 128,-1,5
 545 70 545 70 496.5 20 c 128,-1,6
 448 -30 448 -30 408 -82.5 c 128,-1,7
 368 -135 368 -135 343 -200.5 c 128,-1,8
 318 -266 318 -266 318 -339.5 c 128,-1,9
 318 -413 318 -413 353.5 -456.5 c 128,-1,10
 389 -500 389 -500 458 -500 c 0,11,12
 549 -500 549 -500 634 -430 c 0,13,14
 671 -399 671 -399 724 -346 c 1,15,-1
 747 -361 l 1,16,17
 670 -479 670 -479 568 -556 c 128,-1,18
 466 -633 466 -633 340.5 -633 c 128,-1,19
 215 -633 215 -633 146.5 -568.5 c 128,-1,20
 78 -504 78 -504 78 -389 c 0,21,22
 78 -302 78 -302 112.5 -223.5 c 128,-1,23
 147 -145 147 -145 202 -86 c 128,-1,24
 257 -27 257 -27 323.5 26 c 128,-1,25
 390 79 390 79 456.5 126 c 128,-1,26
 523 173 523 173 578 218 c 0,27,28
 702 319 702 319 702 418 c 0,29,30
 702 452 702 452 676 492 c 1,31,-1
 729 511 l 1,0,1
801 909 m 0,32,33
 840 909 840 909 866.5 877 c 128,-1,34
 893 845 893 845 893 796 c 128,-1,35
 893 747 893 747 849 695 c 128,-1,36
 805 643 805 643 757 643 c 128,-1,37
 709 643 709 643 681.5 676 c 128,-1,38
 654 709 654 709 654 759.5 c 128,-1,39
 654 810 654 810 698.5 859.5 c 128,-1,40
 743 909 743 909 801 909 c 0,32,33
EndSplineSet
EndChar

StartChar: Agrave
Encoding: 192 192 129
Width: 1217
GlyphClass: 2
Flags: W
LayerCount: 2
Fore
SplineSet
885 1664 m 1,0,-1
 1026 1688 l 1,1,2
 1052 1611 1052 1611 1109 1539.5 c 128,-1,3
 1166 1468 1166 1468 1232 1431 c 1,4,-1
 1199 1399 l 1,5,6
 1092 1440 1092 1440 1004.5 1509.5 c 128,-1,7
 917 1579 917 1579 885 1664 c 1,0,-1
948 1207 m 1,8,-1
 789 1212 l 1,9,10
 729 1212 729 1212 685.5 1205 c 128,-1,11
 642 1198 642 1198 597.5 1176.5 c 128,-1,12
 553 1155 553 1155 522 1117 c 0,13,14
 455 1035 455 1035 424 857 c 0,15,16
 417 819 417 819 414 769 c 1,17,18
 384 739 384 739 316.5 716.5 c 128,-1,19
 249 694 249 694 204 691 c 1,20,21
 204 997 204 997 379 1162.5 c 128,-1,22
 554 1328 554 1328 881 1328 c 0,23,24
 975 1328 975 1328 1104 1326 c 128,-1,25
 1233 1324 1233 1324 1262 1324 c 1,26,27
 1231 1273 1231 1273 1196.5 1102 c 128,-1,28
 1162 931 1162 931 1142 736 c 0,29,30
 1106 379 1106 379 1106 281 c 128,-1,31
 1106 183 1106 183 1121.5 146 c 128,-1,32
 1137 109 1137 109 1171 109 c 0,33,34
 1195 109 1195 109 1225.5 121 c 128,-1,35
 1256 133 1256 133 1277.5 142 c 128,-1,36
 1299 151 1299 151 1311 156 c 1,37,-1
 1327 130 l 1,38,39
 1270 81 1270 81 1192 30.5 c 128,-1,40
 1114 -20 1114 -20 1082 -20 c 0,41,42
 964 -20 964 -20 921 39 c 128,-1,43
 878 98 878 98 878 226 c 0,44,45
 878 317 878 317 893 477 c 1,46,-1
 645 477 l 1,47,48
 458 146 458 146 331 0 c 0,49,50
 237 -109 237 -109 127 -129 c 0,51,52
 78 -138 78 -138 -2 -138 c 2,53,-1
 -109 -138 l 1,54,55
 -96 -95 -96 -95 -63.5 -44.5 c 128,-1,56
 -31 6 -31 6 2 23 c 1,57,58
 80 4 80 4 125 4 c 128,-1,59
 170 4 170 4 219 37.5 c 128,-1,60
 268 71 268 71 326.5 159.5 c 128,-1,61
 385 248 385 248 617.5 654.5 c 128,-1,62
 850 1061 850 1061 948 1207 c 1,8,-1
970 1036 m 1,63,64
 945 998 945 998 843 823 c 128,-1,65
 741 648 741 648 693 562 c 1,66,-1
 901 562 l 1,67,68
 910 651 910 651 937 817.5 c 128,-1,69
 964 984 964 984 970 1036 c 1,63,64
EndSplineSet
EndChar

StartChar: Aacute
Encoding: 193 193 130
Width: 1217
GlyphClass: 2
Flags: W
LayerCount: 2
Fore
SplineSet
948 1207 m 1,0,-1
 789 1212 l 1,1,2
 729 1212 729 1212 685.5 1205 c 128,-1,3
 642 1198 642 1198 597.5 1176.5 c 128,-1,4
 553 1155 553 1155 522 1117 c 0,5,6
 455 1035 455 1035 424 857 c 0,7,8
 417 819 417 819 414 769 c 1,9,10
 384 739 384 739 316.5 716.5 c 128,-1,11
 249 694 249 694 204 691 c 1,12,13
 204 997 204 997 379 1162.5 c 128,-1,14
 554 1328 554 1328 881 1328 c 0,15,16
 975 1328 975 1328 1104 1326 c 128,-1,17
 1233 1324 1233 1324 1262 1324 c 1,18,19
 1231 1273 1231 1273 1196.5 1102 c 128,-1,20
 1162 931 1162 931 1142 736 c 0,21,22
 1106 379 1106 379 1106 281 c 128,-1,23
 1106 183 1106 183 1121.5 146 c 128,-1,24
 1137 109 1137 109 1171 109 c 0,25,26
 1195 109 1195 109 1225.5 121 c 128,-1,27
 1256 133 1256 133 1277.5 142 c 128,-1,28
 1299 151 1299 151 1311 156 c 1,29,-1
 1327 130 l 1,30,31
 1270 81 1270 81 1192 30.5 c 128,-1,32
 1114 -20 1114 -20 1082 -20 c 0,33,34
 964 -20 964 -20 921 39 c 128,-1,35
 878 98 878 98 878 226 c 0,36,37
 878 317 878 317 893 477 c 1,38,-1
 645 477 l 1,39,40
 458 146 458 146 331 0 c 0,41,42
 237 -109 237 -109 127 -129 c 0,43,44
 78 -138 78 -138 -2 -138 c 2,45,-1
 -109 -138 l 1,46,47
 -96 -95 -96 -95 -63.5 -44.5 c 128,-1,48
 -31 6 -31 6 2 23 c 1,49,50
 80 4 80 4 125 4 c 128,-1,51
 170 4 170 4 219 37.5 c 128,-1,52
 268 71 268 71 326.5 159.5 c 128,-1,53
 385 248 385 248 617.5 654.5 c 128,-1,54
 850 1061 850 1061 948 1207 c 1,0,-1
970 1036 m 1,55,56
 945 998 945 998 843 823 c 128,-1,57
 741 648 741 648 693 562 c 1,58,-1
 901 562 l 1,59,60
 910 651 910 651 937 817.5 c 128,-1,61
 964 984 964 984 970 1036 c 1,55,56
1256 1688 m 1,62,-1
 1392 1664 l 1,63,64
 1360 1574 1360 1574 1271.5 1505.5 c 128,-1,65
 1183 1437 1183 1437 1075 1396 c 1,66,-1
 1042 1428 l 1,67,68
 1196 1526 1196 1526 1256 1688 c 1,62,-1
EndSplineSet
EndChar

StartChar: Acircumflex
Encoding: 194 194 131
Width: 1217
GlyphClass: 2
Flags: W
LayerCount: 2
Fore
SplineSet
1141 1674 m 2,0,1
 1152 1677 1152 1677 1185 1677 c 128,-1,2
 1218 1677 1218 1677 1250 1661 c 1,3,4
 1250 1548 1250 1548 1363 1450 c 1,5,-1
 1332 1415 l 1,6,7
 1211 1465 1211 1465 1161 1541 c 1,8,9
 1086 1463 1086 1463 941 1415 c 1,10,-1
 911 1451 l 1,11,12
 1081 1542 1081 1542 1126 1669 c 1,13,-1
 1141 1674 l 2,0,1
948 1207 m 1,14,-1
 789 1212 l 1,15,16
 729 1212 729 1212 685.5 1205 c 128,-1,17
 642 1198 642 1198 597.5 1176.5 c 128,-1,18
 553 1155 553 1155 522 1117 c 0,19,20
 455 1035 455 1035 424 857 c 0,21,22
 417 819 417 819 414 769 c 1,23,24
 384 739 384 739 316.5 716.5 c 128,-1,25
 249 694 249 694 204 691 c 1,26,27
 204 997 204 997 379 1162.5 c 128,-1,28
 554 1328 554 1328 881 1328 c 0,29,30
 975 1328 975 1328 1104 1326 c 128,-1,31
 1233 1324 1233 1324 1262 1324 c 1,32,33
 1231 1273 1231 1273 1196.5 1102 c 128,-1,34
 1162 931 1162 931 1142 736 c 0,35,36
 1106 379 1106 379 1106 281 c 128,-1,37
 1106 183 1106 183 1121.5 146 c 128,-1,38
 1137 109 1137 109 1171 109 c 0,39,40
 1195 109 1195 109 1225.5 121 c 128,-1,41
 1256 133 1256 133 1277.5 142 c 128,-1,42
 1299 151 1299 151 1311 156 c 1,43,-1
 1327 130 l 1,44,45
 1270 81 1270 81 1192 30.5 c 128,-1,46
 1114 -20 1114 -20 1082 -20 c 0,47,48
 964 -20 964 -20 921 39 c 128,-1,49
 878 98 878 98 878 226 c 0,50,51
 878 317 878 317 893 477 c 1,52,-1
 645 477 l 1,53,54
 458 146 458 146 331 0 c 0,55,56
 237 -109 237 -109 127 -129 c 0,57,58
 78 -138 78 -138 -2 -138 c 2,59,-1
 -109 -138 l 1,60,61
 -96 -95 -96 -95 -63.5 -44.5 c 128,-1,62
 -31 6 -31 6 2 23 c 1,63,64
 80 4 80 4 125 4 c 128,-1,65
 170 4 170 4 219 37.5 c 128,-1,66
 268 71 268 71 326.5 159.5 c 128,-1,67
 385 248 385 248 617.5 654.5 c 128,-1,68
 850 1061 850 1061 948 1207 c 1,14,-1
970 1036 m 1,69,70
 945 998 945 998 843 823 c 128,-1,71
 741 648 741 648 693 562 c 1,72,-1
 901 562 l 1,73,74
 910 651 910 651 937 817.5 c 128,-1,75
 964 984 964 984 970 1036 c 1,69,70
EndSplineSet
EndChar

StartChar: Atilde
Encoding: 195 195 132
Width: 1217
GlyphClass: 2
Flags: W
LayerCount: 2
Fore
SplineSet
948 1207 m 1,0,-1
 789 1212 l 1,1,2
 729 1212 729 1212 685.5 1205 c 128,-1,3
 642 1198 642 1198 597.5 1176.5 c 128,-1,4
 553 1155 553 1155 522 1117 c 0,5,6
 455 1035 455 1035 424 857 c 0,7,8
 417 819 417 819 414 769 c 1,9,10
 384 739 384 739 316.5 716.5 c 128,-1,11
 249 694 249 694 204 691 c 1,12,13
 204 997 204 997 379 1162.5 c 128,-1,14
 554 1328 554 1328 881 1328 c 0,15,16
 975 1328 975 1328 1104 1326 c 128,-1,17
 1233 1324 1233 1324 1262 1324 c 1,18,19
 1231 1273 1231 1273 1196.5 1102 c 128,-1,20
 1162 931 1162 931 1142 736 c 0,21,22
 1106 379 1106 379 1106 281 c 128,-1,23
 1106 183 1106 183 1121.5 146 c 128,-1,24
 1137 109 1137 109 1171 109 c 0,25,26
 1195 109 1195 109 1225.5 121 c 128,-1,27
 1256 133 1256 133 1277.5 142 c 128,-1,28
 1299 151 1299 151 1311 156 c 1,29,-1
 1327 130 l 1,30,31
 1270 81 1270 81 1192 30.5 c 128,-1,32
 1114 -20 1114 -20 1082 -20 c 0,33,34
 964 -20 964 -20 921 39 c 128,-1,35
 878 98 878 98 878 226 c 0,36,37
 878 317 878 317 893 477 c 1,38,-1
 645 477 l 1,39,40
 458 146 458 146 331 0 c 0,41,42
 237 -109 237 -109 127 -129 c 0,43,44
 78 -138 78 -138 -2 -138 c 2,45,-1
 -109 -138 l 1,46,47
 -96 -95 -96 -95 -63.5 -44.5 c 128,-1,48
 -31 6 -31 6 2 23 c 1,49,50
 80 4 80 4 125 4 c 128,-1,51
 170 4 170 4 219 37.5 c 128,-1,52
 268 71 268 71 326.5 159.5 c 128,-1,53
 385 248 385 248 617.5 654.5 c 128,-1,54
 850 1061 850 1061 948 1207 c 1,0,-1
970 1036 m 1,55,56
 945 998 945 998 843 823 c 128,-1,57
 741 648 741 648 693 562 c 1,58,-1
 901 562 l 1,59,60
 910 651 910 651 937 817.5 c 128,-1,61
 964 984 964 984 970 1036 c 1,55,56
1095 1470 m 128,-1,63
 1012 1498 1012 1498 977 1498 c 128,-1,64
 942 1498 942 1498 902.5 1480 c 128,-1,65
 863 1462 863 1462 836 1438 c 1,66,-1
 816 1468 l 1,67,68
 864 1523 864 1523 905.5 1559 c 128,-1,69
 947 1595 947 1595 996 1617 c 1,70,71
 1030 1617 1030 1617 1114 1590.5 c 128,-1,72
 1198 1564 1198 1564 1227 1564 c 0,73,74
 1312 1564 1312 1564 1379 1611 c 1,75,-1
 1404 1588 l 1,76,77
 1303 1469 1303 1469 1212 1442 c 1,78,62
 1178 1442 1178 1442 1095 1470 c 128,-1,63
EndSplineSet
EndChar

StartChar: Adieresis
Encoding: 196 196 133
Width: 1217
GlyphClass: 2
Flags: W
LayerCount: 2
Fore
SplineSet
948 1207 m 1,0,-1
 789 1212 l 1,1,2
 729 1212 729 1212 685.5 1205 c 128,-1,3
 642 1198 642 1198 597.5 1176.5 c 128,-1,4
 553 1155 553 1155 522 1117 c 0,5,6
 455 1035 455 1035 424 857 c 0,7,8
 417 819 417 819 414 769 c 1,9,10
 384 739 384 739 316.5 716.5 c 128,-1,11
 249 694 249 694 204 691 c 1,12,13
 204 997 204 997 379 1162.5 c 128,-1,14
 554 1328 554 1328 881 1328 c 0,15,16
 975 1328 975 1328 1104 1326 c 128,-1,17
 1233 1324 1233 1324 1262 1324 c 1,18,19
 1231 1273 1231 1273 1196.5 1102 c 128,-1,20
 1162 931 1162 931 1142 736 c 0,21,22
 1106 379 1106 379 1106 281 c 128,-1,23
 1106 183 1106 183 1121.5 146 c 128,-1,24
 1137 109 1137 109 1171 109 c 0,25,26
 1195 109 1195 109 1225.5 121 c 128,-1,27
 1256 133 1256 133 1277.5 142 c 128,-1,28
 1299 151 1299 151 1311 156 c 1,29,-1
 1327 130 l 1,30,31
 1270 81 1270 81 1192 30.5 c 128,-1,32
 1114 -20 1114 -20 1082 -20 c 0,33,34
 964 -20 964 -20 921 39 c 128,-1,35
 878 98 878 98 878 226 c 0,36,37
 878 317 878 317 893 477 c 1,38,-1
 645 477 l 1,39,40
 458 146 458 146 331 0 c 0,41,42
 237 -109 237 -109 127 -129 c 0,43,44
 78 -138 78 -138 -2 -138 c 2,45,-1
 -109 -138 l 1,46,47
 -96 -95 -96 -95 -63.5 -44.5 c 128,-1,48
 -31 6 -31 6 2 23 c 1,49,50
 80 4 80 4 125 4 c 128,-1,51
 170 4 170 4 219 37.5 c 128,-1,52
 268 71 268 71 326.5 159.5 c 128,-1,53
 385 248 385 248 617.5 654.5 c 128,-1,54
 850 1061 850 1061 948 1207 c 1,0,-1
970 1036 m 1,55,56
 945 998 945 998 843 823 c 128,-1,57
 741 648 741 648 693 562 c 1,58,-1
 901 562 l 1,59,60
 910 651 910 651 937 817.5 c 128,-1,61
 964 984 964 984 970 1036 c 1,55,56
900 1501 m 1,62,-1
 993 1597 l 1,63,64
 1064 1549 1064 1549 1093 1497 c 1,65,66
 1067 1450 1067 1450 998 1392 c 1,67,68
 917 1458 917 1458 900 1501 c 1,62,-1
1174 1501 m 1,69,-1
 1267 1597 l 1,70,71
 1337 1551 1337 1551 1367 1497 c 1,72,73
 1340 1449 1340 1449 1273 1392 c 1,74,75
 1193 1456 1193 1456 1174 1501 c 1,69,-1
EndSplineSet
EndChar

StartChar: Aring
Encoding: 197 197 134
Width: 1217
GlyphClass: 2
Flags: W
LayerCount: 2
Fore
SplineSet
948 1207 m 1,0,-1
 789 1212 l 1,1,2
 729 1212 729 1212 685.5 1205 c 128,-1,3
 642 1198 642 1198 597.5 1176.5 c 128,-1,4
 553 1155 553 1155 522 1117 c 0,5,6
 455 1035 455 1035 424 857 c 0,7,8
 417 819 417 819 414 769 c 1,9,10
 384 739 384 739 316.5 716.5 c 128,-1,11
 249 694 249 694 204 691 c 1,12,13
 204 997 204 997 379 1162.5 c 128,-1,14
 554 1328 554 1328 881 1328 c 0,15,16
 975 1328 975 1328 1104 1326 c 128,-1,17
 1233 1324 1233 1324 1262 1324 c 1,18,19
 1231 1273 1231 1273 1196.5 1102 c 128,-1,20
 1162 931 1162 931 1142 736 c 0,21,22
 1106 379 1106 379 1106 281 c 128,-1,23
 1106 183 1106 183 1121.5 146 c 128,-1,24
 1137 109 1137 109 1171 109 c 0,25,26
 1195 109 1195 109 1225.5 121 c 128,-1,27
 1256 133 1256 133 1277.5 142 c 128,-1,28
 1299 151 1299 151 1311 156 c 1,29,-1
 1327 130 l 1,30,31
 1270 81 1270 81 1192 30.5 c 128,-1,32
 1114 -20 1114 -20 1082 -20 c 0,33,34
 964 -20 964 -20 921 39 c 128,-1,35
 878 98 878 98 878 226 c 0,36,37
 878 317 878 317 893 477 c 1,38,-1
 645 477 l 1,39,40
 458 146 458 146 331 0 c 0,41,42
 237 -109 237 -109 127 -129 c 0,43,44
 78 -138 78 -138 -2 -138 c 2,45,-1
 -109 -138 l 1,46,47
 -96 -95 -96 -95 -63.5 -44.5 c 128,-1,48
 -31 6 -31 6 2 23 c 1,49,50
 80 4 80 4 125 4 c 128,-1,51
 170 4 170 4 219 37.5 c 128,-1,52
 268 71 268 71 326.5 159.5 c 128,-1,53
 385 248 385 248 617.5 654.5 c 128,-1,54
 850 1061 850 1061 948 1207 c 1,0,-1
970 1036 m 1,55,56
 945 998 945 998 843 823 c 128,-1,57
 741 648 741 648 693 562 c 1,58,-1
 901 562 l 1,59,60
 910 651 910 651 937 817.5 c 128,-1,61
 964 984 964 984 970 1036 c 1,55,56
1042.5 1588.5 m 128,-1,63
 1091 1629 1091 1629 1159 1629 c 128,-1,64
 1227 1629 1227 1629 1258.5 1603.5 c 128,-1,65
 1290 1578 1290 1578 1290 1535 c 0,66,67
 1290 1476 1290 1476 1237.5 1436.5 c 128,-1,68
 1185 1397 1185 1397 1121 1397 c 0,69,70
 994 1397 994 1397 994 1491 c 0,71,62
 994 1548 994 1548 1042.5 1588.5 c 128,-1,63
1153 1596 m 0,72,73
 1126 1596 1126 1596 1110 1565.5 c 128,-1,74
 1094 1535 1094 1535 1094 1493 c 0,75,76
 1094 1429 1094 1429 1131 1429 c 0,77,78
 1159 1429 1159 1429 1175 1458 c 128,-1,79
 1191 1487 1191 1487 1191 1529 c 0,80,81
 1191 1596 1191 1596 1153 1596 c 0,72,73
EndSplineSet
EndChar

StartChar: AE
Encoding: 198 198 135
Width: 1436
GlyphClass: 2
Flags: W
LayerCount: 2
Fore
SplineSet
991 1208 m 1,0,-1
 809 1212 l 1,1,2
 749 1212 749 1212 705.5 1205 c 128,-1,3
 662 1198 662 1198 617.5 1176.5 c 128,-1,4
 573 1155 573 1155 542 1117 c 0,5,6
 475 1035 475 1035 444 857 c 0,7,8
 437 819 437 819 434 769 c 1,9,10
 404 739 404 739 336.5 716.5 c 128,-1,11
 269 694 269 694 224 691 c 1,12,13
 224 997 224 997 399 1162.5 c 128,-1,14
 574 1328 574 1328 901 1328 c 0,15,16
 949 1328 949 1328 1181.5 1326 c 128,-1,17
 1414 1324 1414 1324 1811 1323 c 1,18,19
 1795 1262 1795 1262 1768.5 1232 c 128,-1,20
 1742 1202 1742 1202 1681 1202 c 0,21,22
 1643 1202 1643 1202 1534.5 1207.5 c 128,-1,23
 1426 1213 1426 1213 1363 1213 c 1,24,25
 1350 1189 1350 1189 1340 1154 c 2,26,-1
 1240 772 l 1,27,28
 1408 766 1408 766 1417 766 c 0,29,30
 1498 766 1498 766 1568 791 c 1,31,-1
 1583 776 l 1,32,33
 1493 661 1493 661 1395 661 c 0,34,35
 1319 661 1319 661 1211 664 c 1,36,37
 1138 387 1138 387 1117 323 c 0,38,39
 1073 188 1073 188 1014 119 c 1,40,-1
 1017 112 l 1,41,-1
 1341 112 l 2,42,43
 1515 112 1515 112 1647 222 c 1,44,-1
 1664 199 l 1,45,46
 1634 149 1634 149 1609.5 118 c 128,-1,47
 1585 87 1585 87 1550 58 c 0,48,49
 1480 0 1480 0 1361 0 c 2,50,-1
 655 0 l 1,51,-1
 647 40 l 1,52,53
 710 59 710 59 761 107 c 0,54,55
 850 191 850 191 879 306 c 2,56,-1
 922 474 l 1,57,-1
 663 474 l 1,58,59
 611 384 611 384 536.5 279.5 c 128,-1,60
 462 175 462 175 421 115.5 c 128,-1,61
 380 56 380 56 331 -0.5 c 128,-1,62
 282 -57 282 -57 229 -88.5 c 128,-1,63
 176 -120 176 -120 127 -129 c 128,-1,64
 78 -138 78 -138 -2 -138 c 2,65,-1
 -109 -138 l 1,66,67
 -96 -95 -96 -95 -63.5 -44.5 c 128,-1,68
 -31 6 -31 6 2 23 c 1,69,70
 80 4 80 4 125 4 c 128,-1,71
 170 4 170 4 219 37.5 c 128,-1,72
 268 71 268 71 325.5 158 c 128,-1,73
 383 245 383 245 637.5 653 c 128,-1,74
 892 1061 892 1061 991 1208 c 1,0,-1
1055 1116 m 0,75,76
 783 679 783 679 712 558 c 1,77,-1
 943 558 l 1,78,79
 1096 1149 1096 1149 1145 1212 c 1,80,81
 1094 1178 1094 1178 1055 1116 c 0,75,76
EndSplineSet
EndChar

StartChar: Ccedilla
Encoding: 199 199 136
Width: 1008
GlyphClass: 2
Flags: W
LayerCount: 2
Fore
SplineSet
829 864 m 1,0,1
 878 771 878 771 950 771 c 128,-1,2
 1022 771 1022 771 1080 847.5 c 128,-1,3
 1138 924 1138 924 1138 1006 c 128,-1,4
 1138 1088 1138 1088 1100.5 1136.5 c 128,-1,5
 1063 1185 1063 1185 980 1185 c 0,6,7
 879 1185 879 1185 788 1111.5 c 128,-1,8
 697 1038 697 1038 636 923.5 c 128,-1,9
 575 809 575 809 539.5 673.5 c 128,-1,10
 504 538 504 538 504 423 c 128,-1,11
 504 308 504 308 527 229.5 c 128,-1,12
 550 151 550 151 603 102 c 128,-1,13
 656 53 656 53 734 53 c 0,14,15
 872 53 872 53 1009 209 c 1,16,-1
 1035 175 l 1,17,18
 941 46 941 46 824 -24.5 c 128,-1,19
 707 -95 707 -95 587 -95 c 2,20,-1
 585 -95 l 1,21,-1
 461 -201 l 1,22,23
 646 -244 646 -244 646 -366 c 0,24,25
 646 -443 646 -443 579 -493 c 128,-1,26
 512 -543 512 -543 411 -543 c 0,27,28
 357 -543 357 -543 310 -523 c 128,-1,29
 263 -503 263 -503 237 -464 c 1,30,-1
 318 -389 l 1,31,32
 361 -431 361 -431 399 -453.5 c 128,-1,33
 437 -476 437 -476 471 -476 c 0,34,35
 534 -476 534 -476 534 -433 c 0,36,37
 534 -341 534 -341 306 -274 c 1,38,-1
 525 -90 l 1,39,40
 409 -70 409 -70 336.5 23 c 128,-1,41
 264 116 264 116 264 274 c 128,-1,42
 264 432 264 432 299 581.5 c 128,-1,43
 334 731 334 731 402.5 862.5 c 128,-1,44
 471 994 471 994 563.5 1095 c 128,-1,45
 656 1196 656 1196 779 1255 c 128,-1,46
 902 1314 902 1314 1032.5 1314 c 128,-1,47
 1163 1314 1163 1314 1225 1251 c 128,-1,48
 1287 1188 1287 1188 1287 1097 c 128,-1,49
 1287 1006 1287 1006 1245.5 920.5 c 128,-1,50
 1204 835 1204 835 1127 776 c 128,-1,51
 1050 717 1050 717 960 717 c 0,52,53
 843 717 843 717 802 852 c 1,54,-1
 829 864 l 1,0,1
EndSplineSet
EndChar

StartChar: Egrave
Encoding: 200 200 137
Width: 1167
GlyphClass: 2
Flags: W
LayerCount: 2
Fore
SplineSet
894 1664 m 1,0,-1
 1035 1688 l 1,1,2
 1061 1611 1061 1611 1118 1539.5 c 128,-1,3
 1175 1468 1175 1468 1241 1431 c 1,4,-1
 1208 1399 l 1,5,6
 1101 1440 1101 1440 1013.5 1509.5 c 128,-1,7
 926 1579 926 1579 894 1664 c 1,0,-1
1026 661 m 1,8,-1
 762 664 l 1,9,10
 689 387 689 387 668 323 c 0,11,12
 624 188 624 188 565 119 c 1,13,-1
 568 112 l 1,14,-1
 972 112 l 2,15,16
 1146 112 1146 112 1278 222 c 1,17,-1
 1295 199 l 1,18,19
 1265 149 1265 149 1240.5 118 c 128,-1,20
 1216 87 1216 87 1180 58 c 0,21,22
 1111 0 1111 0 992 0 c 2,23,-1
 206 0 l 1,24,-1
 198 40 l 1,25,26
 261 59 261 59 312 107 c 0,27,28
 401 191 401 191 430 306 c 1,29,30
 462 425 462 425 494 554 c 128,-1,31
 526 683 526 683 546.5 759.5 c 128,-1,32
 567 836 567 836 579 877.5 c 128,-1,33
 591 919 591 919 607.5 972.5 c 128,-1,34
 624 1026 624 1026 636 1055.5 c 128,-1,35
 648 1085 648 1085 663 1116 c 0,36,37
 689 1172 689 1172 721 1195 c 1,38,-1
 624 1195 l 2,39,40
 494 1195 494 1195 425 1101 c 128,-1,41
 356 1007 356 1007 356 816 c 1,42,43
 325 766 325 766 268 725.5 c 128,-1,44
 211 685 211 685 168 685 c 1,45,46
 168 986 168 986 337.5 1145.5 c 128,-1,47
 507 1305 507 1305 824 1305 c 2,48,-1
 1438 1305 l 1,49,50
 1422 1244 1422 1244 1395.5 1214 c 128,-1,51
 1369 1184 1369 1184 1308 1184 c 0,52,53
 1204 1184 1204 1184 1078.5 1189.5 c 128,-1,54
 953 1195 953 1195 910 1195 c 1,55,56
 897 1171 897 1171 887 1136 c 2,57,-1
 791 772 l 1,58,-1
 816 772 l 1,59,-1
 1035 766 l 1,60,61
 1127 766 1127 766 1199 791 c 1,62,-1
 1214 776 l 1,63,64
 1124 661 1124 661 1026 661 c 1,8,-1
EndSplineSet
EndChar

StartChar: Eacute
Encoding: 201 201 138
Width: 1167
GlyphClass: 2
Flags: W
LayerCount: 2
Fore
SplineSet
1195 1688 m 1,0,-1
 1331 1664 l 1,1,2
 1299 1574 1299 1574 1210.5 1505.5 c 128,-1,3
 1122 1437 1122 1437 1014 1396 c 1,4,-1
 981 1428 l 1,5,6
 1135 1526 1135 1526 1195 1688 c 1,0,-1
1026 661 m 1,7,-1
 762 664 l 1,8,9
 689 387 689 387 668 323 c 0,10,11
 624 188 624 188 565 119 c 1,12,-1
 568 112 l 1,13,-1
 972 112 l 2,14,15
 1146 112 1146 112 1278 222 c 1,16,-1
 1295 199 l 1,17,18
 1265 149 1265 149 1240.5 118 c 128,-1,19
 1216 87 1216 87 1180 58 c 0,20,21
 1111 0 1111 0 992 0 c 2,22,-1
 206 0 l 1,23,-1
 198 40 l 1,24,25
 261 59 261 59 312 107 c 0,26,27
 401 191 401 191 430 306 c 1,28,29
 462 425 462 425 494 554 c 128,-1,30
 526 683 526 683 546.5 759.5 c 128,-1,31
 567 836 567 836 579 877.5 c 128,-1,32
 591 919 591 919 607.5 972.5 c 128,-1,33
 624 1026 624 1026 636 1055.5 c 128,-1,34
 648 1085 648 1085 663 1116 c 0,35,36
 689 1172 689 1172 721 1195 c 1,37,-1
 624 1195 l 2,38,39
 494 1195 494 1195 425 1101 c 128,-1,40
 356 1007 356 1007 356 816 c 1,41,42
 325 766 325 766 268 725.5 c 128,-1,43
 211 685 211 685 168 685 c 1,44,45
 168 986 168 986 337.5 1145.5 c 128,-1,46
 507 1305 507 1305 824 1305 c 2,47,-1
 1438 1305 l 1,48,49
 1422 1244 1422 1244 1395.5 1214 c 128,-1,50
 1369 1184 1369 1184 1308 1184 c 0,51,52
 1204 1184 1204 1184 1078.5 1189.5 c 128,-1,53
 953 1195 953 1195 910 1195 c 1,54,55
 897 1171 897 1171 887 1136 c 2,56,-1
 791 772 l 1,57,-1
 816 772 l 1,58,-1
 1035 766 l 1,59,60
 1127 766 1127 766 1199 791 c 1,61,-1
 1214 776 l 1,62,63
 1124 661 1124 661 1026 661 c 1,7,-1
EndSplineSet
EndChar

StartChar: Ecircumflex
Encoding: 202 202 139
Width: 1167
GlyphClass: 2
Flags: W
LayerCount: 2
Fore
SplineSet
1113 1674 m 2,0,1
 1124 1677 1124 1677 1157 1677 c 128,-1,2
 1190 1677 1190 1677 1222 1661 c 1,3,4
 1222 1548 1222 1548 1335 1450 c 1,5,-1
 1304 1415 l 1,6,7
 1183 1465 1183 1465 1133 1541 c 1,8,9
 1058 1463 1058 1463 913 1415 c 1,10,-1
 883 1451 l 1,11,12
 1053 1542 1053 1542 1098 1669 c 1,13,-1
 1113 1674 l 2,0,1
1026 661 m 1,14,-1
 762 664 l 1,15,16
 689 387 689 387 668 323 c 0,17,18
 624 188 624 188 565 119 c 1,19,-1
 568 112 l 1,20,-1
 972 112 l 2,21,22
 1146 112 1146 112 1278 222 c 1,23,-1
 1295 199 l 1,24,25
 1265 149 1265 149 1240.5 118 c 128,-1,26
 1216 87 1216 87 1180 58 c 0,27,28
 1111 0 1111 0 992 0 c 2,29,-1
 206 0 l 1,30,-1
 198 40 l 1,31,32
 261 59 261 59 312 107 c 0,33,34
 401 191 401 191 430 306 c 1,35,36
 462 425 462 425 494 554 c 128,-1,37
 526 683 526 683 546.5 759.5 c 128,-1,38
 567 836 567 836 579 877.5 c 128,-1,39
 591 919 591 919 607.5 972.5 c 128,-1,40
 624 1026 624 1026 636 1055.5 c 128,-1,41
 648 1085 648 1085 663 1116 c 0,42,43
 689 1172 689 1172 721 1195 c 1,44,-1
 624 1195 l 2,45,46
 494 1195 494 1195 425 1101 c 128,-1,47
 356 1007 356 1007 356 816 c 1,48,49
 325 766 325 766 268 725.5 c 128,-1,50
 211 685 211 685 168 685 c 1,51,52
 168 986 168 986 337.5 1145.5 c 128,-1,53
 507 1305 507 1305 824 1305 c 2,54,-1
 1438 1305 l 1,55,56
 1422 1244 1422 1244 1395.5 1214 c 128,-1,57
 1369 1184 1369 1184 1308 1184 c 0,58,59
 1204 1184 1204 1184 1078.5 1189.5 c 128,-1,60
 953 1195 953 1195 910 1195 c 1,61,62
 897 1171 897 1171 887 1136 c 2,63,-1
 791 772 l 1,64,-1
 816 772 l 1,65,-1
 1035 766 l 1,66,67
 1127 766 1127 766 1199 791 c 1,68,-1
 1214 776 l 1,69,70
 1124 661 1124 661 1026 661 c 1,14,-1
EndSplineSet
EndChar

StartChar: Edieresis
Encoding: 203 203 140
Width: 1167
GlyphClass: 2
Flags: W
LayerCount: 2
Fore
SplineSet
887 1501 m 1,0,-1
 980 1597 l 1,1,2
 1051 1549 1051 1549 1080 1497 c 1,3,4
 1054 1450 1054 1450 985 1392 c 1,5,6
 904 1458 904 1458 887 1501 c 1,0,-1
1161 1501 m 1,7,-1
 1254 1597 l 1,8,9
 1324 1551 1324 1551 1354 1497 c 1,10,11
 1327 1449 1327 1449 1260 1392 c 1,12,13
 1180 1456 1180 1456 1161 1501 c 1,7,-1
1026 661 m 1,14,-1
 762 664 l 1,15,16
 689 387 689 387 668 323 c 0,17,18
 624 188 624 188 565 119 c 1,19,-1
 568 112 l 1,20,-1
 972 112 l 2,21,22
 1146 112 1146 112 1278 222 c 1,23,-1
 1295 199 l 1,24,25
 1265 149 1265 149 1240.5 118 c 128,-1,26
 1216 87 1216 87 1180 58 c 0,27,28
 1111 0 1111 0 992 0 c 2,29,-1
 206 0 l 1,30,-1
 198 40 l 1,31,32
 261 59 261 59 312 107 c 0,33,34
 401 191 401 191 430 306 c 1,35,36
 462 425 462 425 494 554 c 128,-1,37
 526 683 526 683 546.5 759.5 c 128,-1,38
 567 836 567 836 579 877.5 c 128,-1,39
 591 919 591 919 607.5 972.5 c 128,-1,40
 624 1026 624 1026 636 1055.5 c 128,-1,41
 648 1085 648 1085 663 1116 c 0,42,43
 689 1172 689 1172 721 1195 c 1,44,-1
 624 1195 l 2,45,46
 494 1195 494 1195 425 1101 c 128,-1,47
 356 1007 356 1007 356 816 c 1,48,49
 325 766 325 766 268 725.5 c 128,-1,50
 211 685 211 685 168 685 c 1,51,52
 168 986 168 986 337.5 1145.5 c 128,-1,53
 507 1305 507 1305 824 1305 c 2,54,-1
 1438 1305 l 1,55,56
 1422 1244 1422 1244 1395.5 1214 c 128,-1,57
 1369 1184 1369 1184 1308 1184 c 0,58,59
 1204 1184 1204 1184 1078.5 1189.5 c 128,-1,60
 953 1195 953 1195 910 1195 c 1,61,62
 897 1171 897 1171 887 1136 c 2,63,-1
 791 772 l 1,64,-1
 816 772 l 1,65,-1
 1035 766 l 1,66,67
 1127 766 1127 766 1199 791 c 1,68,-1
 1214 776 l 1,69,70
 1124 661 1124 661 1026 661 c 1,14,-1
EndSplineSet
EndChar

StartChar: Igrave
Encoding: 204 204 141
Width: 774
GlyphClass: 2
Flags: W
LayerCount: 2
Fore
SplineSet
726 1314 m 2,0,-1
 1053 1314 l 1,1,-1
 1049 1285 l 1,2,3
 1007 1254 1007 1254 984 1197.5 c 128,-1,4
 961 1141 961 1141 942 1041 c 2,5,-1
 820 384 l 2,6,7
 782 180 782 180 676.5 80.5 c 128,-1,8
 571 -19 571 -19 390 -19 c 2,9,-1
 205 -19 l 1,10,11
 214 85 214 85 264 134 c 1,12,13
 275 131 275 131 316.5 117 c 128,-1,14
 358 103 358 103 380 96 c 0,15,16
 448 75 448 75 488.5 75 c 128,-1,17
 529 75 529 75 547.5 107.5 c 128,-1,18
 566 140 566 140 580 217 c 2,19,-1
 686 810 l 2,20,21
 717 984 717 984 748.5 1067 c 128,-1,22
 780 1150 780 1150 844 1206 c 1,23,-1
 846 1216 l 1,24,-1
 621 1216 l 2,25,26
 482 1216 482 1216 428.5 1153 c 128,-1,27
 375 1090 375 1090 358 909 c 2,28,-1
 348 799 l 1,29,30
 325 775 325 775 276 759.5 c 128,-1,31
 227 744 227 744 174 744 c 1,32,33
 173 752 173 752 173 768 c 0,34,35
 173 862 173 862 203.5 948 c 128,-1,36
 234 1034 234 1034 287.5 1099.5 c 128,-1,37
 341 1165 341 1165 410 1214 c 0,38,39
 552 1314 552 1314 726 1314 c 2,0,-1
705 1664 m 1,40,-1
 846 1688 l 1,41,42
 872 1611 872 1611 929 1539.5 c 128,-1,43
 986 1468 986 1468 1052 1431 c 1,44,-1
 1019 1399 l 1,45,46
 912 1440 912 1440 824.5 1509.5 c 128,-1,47
 737 1579 737 1579 705 1664 c 1,40,-1
EndSplineSet
EndChar

StartChar: Iacute
Encoding: 205 205 142
Width: 774
GlyphClass: 2
Flags: W
LayerCount: 2
Fore
SplineSet
726 1314 m 2,0,-1
 1053 1314 l 1,1,-1
 1049 1285 l 1,2,3
 1007 1254 1007 1254 984 1197.5 c 128,-1,4
 961 1141 961 1141 942 1041 c 2,5,-1
 820 384 l 2,6,7
 782 180 782 180 676.5 80.5 c 128,-1,8
 571 -19 571 -19 390 -19 c 2,9,-1
 205 -19 l 1,10,11
 214 85 214 85 264 134 c 1,12,13
 275 131 275 131 316.5 117 c 128,-1,14
 358 103 358 103 380 96 c 0,15,16
 448 75 448 75 488.5 75 c 128,-1,17
 529 75 529 75 547.5 107.5 c 128,-1,18
 566 140 566 140 580 217 c 2,19,-1
 686 810 l 2,20,21
 717 984 717 984 748.5 1067 c 128,-1,22
 780 1150 780 1150 844 1206 c 1,23,-1
 846 1216 l 1,24,-1
 621 1216 l 2,25,26
 482 1216 482 1216 428.5 1153 c 128,-1,27
 375 1090 375 1090 358 909 c 2,28,-1
 348 799 l 1,29,30
 325 775 325 775 276 759.5 c 128,-1,31
 227 744 227 744 174 744 c 1,32,33
 173 752 173 752 173 768 c 0,34,35
 173 862 173 862 203.5 948 c 128,-1,36
 234 1034 234 1034 287.5 1099.5 c 128,-1,37
 341 1165 341 1165 410 1214 c 0,38,39
 552 1314 552 1314 726 1314 c 2,0,-1
1026 1688 m 1,40,-1
 1162 1664 l 1,41,42
 1130 1574 1130 1574 1041.5 1505.5 c 128,-1,43
 953 1437 953 1437 845 1396 c 1,44,-1
 812 1428 l 1,45,46
 966 1526 966 1526 1026 1688 c 1,40,-1
EndSplineSet
EndChar

StartChar: Icircumflex
Encoding: 206 206 143
Width: 774
GlyphClass: 2
Flags: W
LayerCount: 2
Fore
SplineSet
726 1314 m 2,0,-1
 1053 1314 l 1,1,-1
 1049 1285 l 1,2,3
 1007 1254 1007 1254 984 1197.5 c 128,-1,4
 961 1141 961 1141 942 1041 c 2,5,-1
 820 384 l 2,6,7
 782 180 782 180 676.5 80.5 c 128,-1,8
 571 -19 571 -19 390 -19 c 2,9,-1
 205 -19 l 1,10,11
 214 85 214 85 264 134 c 1,12,13
 275 131 275 131 316.5 117 c 128,-1,14
 358 103 358 103 380 96 c 0,15,16
 448 75 448 75 488.5 75 c 128,-1,17
 529 75 529 75 547.5 107.5 c 128,-1,18
 566 140 566 140 580 217 c 2,19,-1
 686 810 l 2,20,21
 717 984 717 984 748.5 1067 c 128,-1,22
 780 1150 780 1150 844 1206 c 1,23,-1
 846 1216 l 1,24,-1
 621 1216 l 2,25,26
 482 1216 482 1216 428.5 1153 c 128,-1,27
 375 1090 375 1090 358 909 c 2,28,-1
 348 799 l 1,29,30
 325 775 325 775 276 759.5 c 128,-1,31
 227 744 227 744 174 744 c 1,32,33
 173 752 173 752 173 768 c 0,34,35
 173 862 173 862 203.5 948 c 128,-1,36
 234 1034 234 1034 287.5 1099.5 c 128,-1,37
 341 1165 341 1165 410 1214 c 0,38,39
 552 1314 552 1314 726 1314 c 2,0,-1
931 1674 m 2,40,41
 942 1677 942 1677 975 1677 c 128,-1,42
 1008 1677 1008 1677 1040 1661 c 1,43,44
 1040 1548 1040 1548 1153 1450 c 1,45,-1
 1122 1415 l 1,46,47
 1001 1465 1001 1465 951 1541 c 1,48,49
 876 1463 876 1463 731 1415 c 1,50,-1
 701 1451 l 1,51,52
 871 1542 871 1542 916 1669 c 1,53,-1
 931 1674 l 2,40,41
EndSplineSet
EndChar

StartChar: Idieresis
Encoding: 207 207 144
Width: 774
GlyphClass: 2
Flags: W
LayerCount: 2
Fore
SplineSet
726 1314 m 2,0,-1
 1053 1314 l 1,1,-1
 1049 1285 l 1,2,3
 1007 1254 1007 1254 984 1197.5 c 128,-1,4
 961 1141 961 1141 942 1041 c 2,5,-1
 820 384 l 2,6,7
 782 180 782 180 676.5 80.5 c 128,-1,8
 571 -19 571 -19 390 -19 c 2,9,-1
 205 -19 l 1,10,11
 214 85 214 85 264 134 c 1,12,13
 275 131 275 131 316.5 117 c 128,-1,14
 358 103 358 103 380 96 c 0,15,16
 448 75 448 75 488.5 75 c 128,-1,17
 529 75 529 75 547.5 107.5 c 128,-1,18
 566 140 566 140 580 217 c 2,19,-1
 686 810 l 2,20,21
 717 984 717 984 748.5 1067 c 128,-1,22
 780 1150 780 1150 844 1206 c 1,23,-1
 846 1216 l 1,24,-1
 621 1216 l 2,25,26
 482 1216 482 1216 428.5 1153 c 128,-1,27
 375 1090 375 1090 358 909 c 2,28,-1
 348 799 l 1,29,30
 325 775 325 775 276 759.5 c 128,-1,31
 227 744 227 744 174 744 c 1,32,33
 173 752 173 752 173 768 c 0,34,35
 173 862 173 862 203.5 948 c 128,-1,36
 234 1034 234 1034 287.5 1099.5 c 128,-1,37
 341 1165 341 1165 410 1214 c 0,38,39
 552 1314 552 1314 726 1314 c 2,0,-1
698 1501 m 1,40,-1
 791 1597 l 1,41,42
 862 1549 862 1549 891 1497 c 1,43,44
 865 1450 865 1450 796 1392 c 1,45,46
 715 1458 715 1458 698 1501 c 1,40,-1
972 1501 m 1,47,-1
 1065 1597 l 1,48,49
 1135 1551 1135 1551 1165 1497 c 1,50,51
 1138 1449 1138 1449 1071 1392 c 1,52,53
 991 1456 991 1456 972 1501 c 1,47,-1
EndSplineSet
EndChar

StartChar: Eth
Encoding: 208 208 145
Width: 1364
GlyphClass: 2
Flags: W
LayerCount: 2
Fore
SplineSet
475 643 m 1,0,-1
 559 642 l 1,1,2
 577 723 577 723 627 953 c 0,3,4
 639 1006 639 1006 670 1043 c 128,-1,5
 701 1080 701 1080 742 1097 c 0,6,7
 815 1128 815 1128 886 1128 c 1,8,-1
 892 1100 l 1,9,10
 859 1077 859 1077 836 978 c 0,11,12
 816 890 816 890 797.5 780 c 128,-1,13
 779 670 779 670 773 636 c 1,14,-1
 936 636 l 1,15,16
 936 609 936 609 918.5 587 c 128,-1,17
 901 565 901 565 877 565 c 2,18,-1
 760 565 l 1,19,20
 725 385 725 385 679.5 272 c 128,-1,21
 634 159 634 159 562 133 c 1,22,-1
 568 120 l 1,23,-1
 736 120 l 2,24,25
 851 120 851 120 961 187 c 128,-1,26
 1071 254 1071 254 1148 357.5 c 128,-1,27
 1225 461 1225 461 1272 588 c 128,-1,28
 1319 715 1319 715 1319 833 c 0,29,30
 1319 1001 1319 1001 1220 1110 c 0,31,32
 1171 1164 1171 1164 1088 1195 c 128,-1,33
 1005 1226 1005 1226 896 1226 c 0,34,35
 689 1226 689 1226 574 1102 c 128,-1,36
 459 978 459 978 434 720 c 1,37,38
 419 692 419 692 344 668.5 c 128,-1,39
 269 645 269 645 221 642 c 1,40,41
 244 873 244 873 374 1046 c 0,42,43
 442 1136 442 1136 533 1203 c 128,-1,44
 624 1270 624 1270 750.5 1309 c 128,-1,45
 877 1348 877 1348 1015.5 1348 c 128,-1,46
 1154 1348 1154 1348 1252.5 1313 c 128,-1,47
 1351 1278 1351 1278 1410 1216 c 0,48,49
 1527 1095 1527 1095 1527 903 c 0,50,51
 1527 785 1527 785 1484 658.5 c 128,-1,52
 1441 532 1441 532 1359 415 c 128,-1,53
 1277 298 1277 298 1169 205 c 128,-1,54
 1061 112 1061 112 919.5 56 c 128,-1,55
 778 0 778 0 629 0 c 2,56,-1
 264 0 l 1,57,-1
 256 32 l 1,58,59
 367 54 367 54 426 172 c 0,60,61
 454 229 454 229 478 315 c 128,-1,62
 502 401 502 401 542 568 c 1,63,-1
 422 568 l 1,64,-1
 446 643 l 1,65,-1
 475 643 l 1,0,-1
EndSplineSet
EndChar

StartChar: Ntilde
Encoding: 209 209 146
Width: 1364
GlyphClass: 2
Flags: W
LayerCount: 2
Fore
SplineSet
592 1189 m 1,0,-1
 568 1190 l 1,1,2
 438 1190 438 1190 358.5 1070.5 c 128,-1,3
 279 951 279 951 279 761 c 1,4,5
 230 691 230 691 120 691 c 1,6,7
 120 868 120 868 192 1005 c 128,-1,8
 264 1142 264 1142 408.5 1222.5 c 128,-1,9
 553 1303 553 1303 751 1303 c 1,10,-1
 945 1300 l 2,11,12
 959 1300 959 1300 964 1301 c 1,13,14
 963 1292 963 1292 963 1272 c 1,15,16
 974 1171 974 1171 1002.5 1035 c 128,-1,17
 1031 899 1031 899 1052.5 814.5 c 128,-1,18
 1074 730 1074 730 1122.5 550.5 c 128,-1,19
 1171 371 1171 371 1182 329 c 1,20,-1
 1188 329 l 1,21,22
 1298 770 1298 770 1388 1053 c 0,23,24
 1431 1187 1431 1187 1524 1282 c 0,25,26
 1573 1332 1573 1332 1644.5 1361 c 128,-1,27
 1716 1390 1716 1390 1802 1390 c 0,28,29
 1842 1390 1842 1390 1893 1382 c 1,30,31
 1893 1282 1893 1282 1847 1240 c 1,32,33
 1762 1279 1762 1279 1697 1279 c 128,-1,34
 1632 1279 1632 1279 1588.5 1225.5 c 128,-1,35
 1545 1172 1545 1172 1506 1057.5 c 128,-1,36
 1467 943 1467 943 1362.5 556 c 128,-1,37
 1258 169 1258 169 1192 -17 c 1,38,39
 1169 -24 1169 -24 1106.5 -24 c 128,-1,40
 1044 -24 1044 -24 1031 -17 c 1,41,42
 998 114 998 114 935.5 318.5 c 128,-1,43
 873 523 873 523 826 701.5 c 128,-1,44
 779 880 779 880 753 1058 c 1,45,-1
 747 1059 l 1,46,47
 691 766 691 766 639.5 562 c 128,-1,48
 588 358 588 358 511 153 c 0,49,50
 467 35 467 35 363 -39.5 c 128,-1,51
 259 -114 259 -114 109 -114 c 0,52,53
 76 -114 76 -114 36 -108 c 1,54,55
 36 -66 36 -66 47 -22.5 c 128,-1,56
 58 21 58 21 78 38 c 1,57,58
 180 1 180 1 224 1 c 0,59,60
 292 1 292 1 329.5 41.5 c 128,-1,61
 367 82 367 82 400 180 c 0,62,63
 550 624 550 624 643 1087 c 0,64,65
 656 1151 656 1151 676 1184 c 1,66,-1
 592 1189 l 1,0,-1
1249 1470 m 128,-1,68
 1166 1498 1166 1498 1131.5 1498 c 128,-1,69
 1097 1498 1097 1498 1057.5 1480 c 128,-1,70
 1018 1462 1018 1462 991 1438 c 1,71,-1
 971 1468 l 1,72,73
 1019 1523 1019 1523 1060.5 1559 c 128,-1,74
 1102 1595 1102 1595 1151 1617 c 1,75,76
 1185 1617 1185 1617 1269 1590.5 c 128,-1,77
 1353 1564 1353 1564 1382 1564 c 0,78,79
 1467 1564 1467 1564 1534 1611 c 1,80,-1
 1559 1588 l 1,81,82
 1458 1469 1458 1469 1367 1442 c 1,83,67
 1332 1442 1332 1442 1249 1470 c 128,-1,68
EndSplineSet
EndChar

StartChar: Ograve
Encoding: 210 210 147
Width: 1204
GlyphClass: 2
Flags: W
LayerCount: 2
Fore
SplineSet
759.5 724.5 m 128,-1,1
 713 775 713 775 713 855.5 c 128,-1,2
 713 936 713 936 737 1007.5 c 128,-1,3
 761 1079 761 1079 804 1138 c 128,-1,4
 847 1197 847 1197 914.5 1234 c 128,-1,5
 982 1271 982 1271 1062 1271 c 0,6,7
 1186 1271 1186 1271 1272.5 1176.5 c 128,-1,8
 1359 1082 1359 1082 1359 902 c 0,9,10
 1359 708 1359 708 1268 492 c 0,11,12
 1224 390 1224 390 1158 297.5 c 128,-1,13
 1092 205 1092 205 1012.5 134.5 c 128,-1,14
 933 64 933 64 831.5 22.5 c 128,-1,15
 730 -19 730 -19 629 -19 c 128,-1,16
 528 -19 528 -19 456 15.5 c 128,-1,17
 384 50 384 50 340 110 c 0,18,19
 250 232 250 232 250 423 c 0,20,21
 250 656 250 656 370 882 c 0,22,23
 500 1129 500 1129 704 1259 c 0,24,25
 815 1330 815 1330 940 1357 c 1,26,-1
 951 1321 l 1,27,28
 845 1294 845 1294 756 1205 c 128,-1,29
 667 1116 667 1116 612 995.5 c 128,-1,30
 557 875 557 875 527 740.5 c 128,-1,31
 497 606 497 606 497 478 c 0,32,33
 497 306 497 306 551 196 c 128,-1,34
 605 86 605 86 706 86 c 0,35,36
 794 86 794 86 875.5 166 c 128,-1,37
 957 246 957 246 1012 367 c 128,-1,38
 1067 488 1067 488 1100 627 c 128,-1,39
 1133 766 1133 766 1133 890 c 128,-1,40
 1133 1014 1133 1014 1079 1087.5 c 128,-1,41
 1025 1161 1025 1161 958.5 1161 c 128,-1,42
 892 1161 892 1161 848 1102 c 128,-1,43
 804 1043 804 1043 804 934 c 0,44,45
 804 853 804 853 841.5 798.5 c 128,-1,46
 879 744 879 744 946 744 c 0,47,48
 976 744 976 744 1008 755 c 1,49,-1
 1022 730 l 1,50,51
 996 704 996 704 955 689 c 128,-1,52
 914 674 914 674 876 674 c 0,53,0
 806 674 806 674 759.5 724.5 c 128,-1,1
904 1664 m 1,54,-1
 1045 1688 l 1,55,56
 1071 1611 1071 1611 1128 1539.5 c 128,-1,57
 1185 1468 1185 1468 1251 1431 c 1,58,-1
 1218 1399 l 1,59,60
 1111 1440 1111 1440 1023.5 1509.5 c 128,-1,61
 936 1579 936 1579 904 1664 c 1,54,-1
EndSplineSet
EndChar

StartChar: Oacute
Encoding: 211 211 148
Width: 1204
GlyphClass: 2
Flags: W
LayerCount: 2
Fore
SplineSet
759.5 724.5 m 128,-1,1
 713 775 713 775 713 855.5 c 128,-1,2
 713 936 713 936 737 1007.5 c 128,-1,3
 761 1079 761 1079 804 1138 c 128,-1,4
 847 1197 847 1197 914.5 1234 c 128,-1,5
 982 1271 982 1271 1062 1271 c 0,6,7
 1186 1271 1186 1271 1272.5 1176.5 c 128,-1,8
 1359 1082 1359 1082 1359 902 c 0,9,10
 1359 708 1359 708 1268 492 c 0,11,12
 1224 390 1224 390 1158 297.5 c 128,-1,13
 1092 205 1092 205 1012.5 134.5 c 128,-1,14
 933 64 933 64 831.5 22.5 c 128,-1,15
 730 -19 730 -19 629 -19 c 128,-1,16
 528 -19 528 -19 456 15.5 c 128,-1,17
 384 50 384 50 340 110 c 0,18,19
 250 232 250 232 250 423 c 0,20,21
 250 656 250 656 370 882 c 0,22,23
 500 1129 500 1129 704 1259 c 0,24,25
 815 1330 815 1330 940 1357 c 1,26,-1
 951 1321 l 1,27,28
 845 1294 845 1294 756 1205 c 128,-1,29
 667 1116 667 1116 612 995.5 c 128,-1,30
 557 875 557 875 527 740.5 c 128,-1,31
 497 606 497 606 497 478 c 0,32,33
 497 306 497 306 551 196 c 128,-1,34
 605 86 605 86 706 86 c 0,35,36
 794 86 794 86 875.5 166 c 128,-1,37
 957 246 957 246 1012 367 c 128,-1,38
 1067 488 1067 488 1100 627 c 128,-1,39
 1133 766 1133 766 1133 890 c 128,-1,40
 1133 1014 1133 1014 1079 1087.5 c 128,-1,41
 1025 1161 1025 1161 958.5 1161 c 128,-1,42
 892 1161 892 1161 848 1102 c 128,-1,43
 804 1043 804 1043 804 934 c 0,44,45
 804 853 804 853 841.5 798.5 c 128,-1,46
 879 744 879 744 946 744 c 0,47,48
 976 744 976 744 1008 755 c 1,49,-1
 1022 730 l 1,50,51
 996 704 996 704 955 689 c 128,-1,52
 914 674 914 674 876 674 c 0,53,0
 806 674 806 674 759.5 724.5 c 128,-1,1
1255 1688 m 1,54,-1
 1391 1664 l 1,55,56
 1359 1574 1359 1574 1270.5 1505.5 c 128,-1,57
 1182 1437 1182 1437 1074 1396 c 1,58,-1
 1041 1428 l 1,59,60
 1195 1526 1195 1526 1255 1688 c 1,54,-1
EndSplineSet
EndChar

StartChar: Ocircumflex
Encoding: 212 212 149
Width: 1204
GlyphClass: 2
Flags: W
LayerCount: 2
Fore
SplineSet
759.5 724.5 m 128,-1,1
 713 775 713 775 713 855.5 c 128,-1,2
 713 936 713 936 737 1007.5 c 128,-1,3
 761 1079 761 1079 804 1138 c 128,-1,4
 847 1197 847 1197 914.5 1234 c 128,-1,5
 982 1271 982 1271 1062 1271 c 0,6,7
 1186 1271 1186 1271 1272.5 1176.5 c 128,-1,8
 1359 1082 1359 1082 1359 902 c 0,9,10
 1359 708 1359 708 1268 492 c 0,11,12
 1224 390 1224 390 1158 297.5 c 128,-1,13
 1092 205 1092 205 1012.5 134.5 c 128,-1,14
 933 64 933 64 831.5 22.5 c 128,-1,15
 730 -19 730 -19 629 -19 c 128,-1,16
 528 -19 528 -19 456 15.5 c 128,-1,17
 384 50 384 50 340 110 c 0,18,19
 250 232 250 232 250 423 c 0,20,21
 250 656 250 656 370 882 c 0,22,23
 500 1129 500 1129 704 1259 c 0,24,25
 815 1330 815 1330 940 1357 c 1,26,-1
 951 1321 l 1,27,28
 845 1294 845 1294 756 1205 c 128,-1,29
 667 1116 667 1116 612 995.5 c 128,-1,30
 557 875 557 875 527 740.5 c 128,-1,31
 497 606 497 606 497 478 c 0,32,33
 497 306 497 306 551 196 c 128,-1,34
 605 86 605 86 706 86 c 0,35,36
 794 86 794 86 875.5 166 c 128,-1,37
 957 246 957 246 1012 367 c 128,-1,38
 1067 488 1067 488 1100 627 c 128,-1,39
 1133 766 1133 766 1133 890 c 128,-1,40
 1133 1014 1133 1014 1079 1087.5 c 128,-1,41
 1025 1161 1025 1161 958.5 1161 c 128,-1,42
 892 1161 892 1161 848 1102 c 128,-1,43
 804 1043 804 1043 804 934 c 0,44,45
 804 853 804 853 841.5 798.5 c 128,-1,46
 879 744 879 744 946 744 c 0,47,48
 976 744 976 744 1008 755 c 1,49,-1
 1022 730 l 1,50,51
 996 704 996 704 955 689 c 128,-1,52
 914 674 914 674 876 674 c 0,53,0
 806 674 806 674 759.5 724.5 c 128,-1,1
1106 1674 m 2,54,55
 1116 1677 1116 1677 1149.5 1677 c 128,-1,56
 1183 1677 1183 1677 1215 1661 c 1,57,58
 1215 1548 1215 1548 1328 1450 c 1,59,-1
 1297 1415 l 1,60,61
 1176 1465 1176 1465 1126 1541 c 1,62,63
 1051 1463 1051 1463 906 1415 c 1,64,-1
 876 1451 l 1,65,66
 1046 1542 1046 1542 1091 1669 c 1,67,-1
 1106 1674 l 2,54,55
EndSplineSet
EndChar

StartChar: Otilde
Encoding: 213 213 150
Width: 1204
GlyphClass: 2
Flags: W
LayerCount: 2
Fore
SplineSet
759.5 724.5 m 128,-1,1
 713 775 713 775 713 855.5 c 128,-1,2
 713 936 713 936 737 1007.5 c 128,-1,3
 761 1079 761 1079 804 1138 c 128,-1,4
 847 1197 847 1197 914.5 1234 c 128,-1,5
 982 1271 982 1271 1062 1271 c 0,6,7
 1186 1271 1186 1271 1272.5 1176.5 c 128,-1,8
 1359 1082 1359 1082 1359 902 c 0,9,10
 1359 708 1359 708 1268 492 c 0,11,12
 1224 390 1224 390 1158 297.5 c 128,-1,13
 1092 205 1092 205 1012.5 134.5 c 128,-1,14
 933 64 933 64 831.5 22.5 c 128,-1,15
 730 -19 730 -19 629 -19 c 128,-1,16
 528 -19 528 -19 456 15.5 c 128,-1,17
 384 50 384 50 340 110 c 0,18,19
 250 232 250 232 250 423 c 0,20,21
 250 656 250 656 370 882 c 0,22,23
 500 1129 500 1129 704 1259 c 0,24,25
 815 1330 815 1330 940 1357 c 1,26,-1
 951 1321 l 1,27,28
 845 1294 845 1294 756 1205 c 128,-1,29
 667 1116 667 1116 612 995.5 c 128,-1,30
 557 875 557 875 527 740.5 c 128,-1,31
 497 606 497 606 497 478 c 0,32,33
 497 306 497 306 551 196 c 128,-1,34
 605 86 605 86 706 86 c 0,35,36
 794 86 794 86 875.5 166 c 128,-1,37
 957 246 957 246 1012 367 c 128,-1,38
 1067 488 1067 488 1100 627 c 128,-1,39
 1133 766 1133 766 1133 890 c 128,-1,40
 1133 1014 1133 1014 1079 1087.5 c 128,-1,41
 1025 1161 1025 1161 958.5 1161 c 128,-1,42
 892 1161 892 1161 848 1102 c 128,-1,43
 804 1043 804 1043 804 934 c 0,44,45
 804 853 804 853 841.5 798.5 c 128,-1,46
 879 744 879 744 946 744 c 0,47,48
 976 744 976 744 1008 755 c 1,49,-1
 1022 730 l 1,50,51
 996 704 996 704 955 689 c 128,-1,52
 914 674 914 674 876 674 c 0,53,0
 806 674 806 674 759.5 724.5 c 128,-1,1
1113 1470 m 128,-1,55
 1030 1498 1030 1498 995.5 1498 c 128,-1,56
 961 1498 961 1498 921.5 1480 c 128,-1,57
 882 1462 882 1462 855 1438 c 1,58,-1
 835 1468 l 1,59,60
 883 1523 883 1523 924.5 1559 c 128,-1,61
 966 1595 966 1595 1015 1617 c 1,62,63
 1049 1617 1049 1617 1133 1590.5 c 128,-1,64
 1217 1564 1217 1564 1246 1564 c 0,65,66
 1331 1564 1331 1564 1398 1611 c 1,67,-1
 1423 1588 l 1,68,69
 1322 1469 1322 1469 1231 1442 c 1,70,54
 1196 1442 1196 1442 1113 1470 c 128,-1,55
EndSplineSet
EndChar

StartChar: Odieresis
Encoding: 214 214 151
Width: 1204
GlyphClass: 2
Flags: W
LayerCount: 2
Fore
SplineSet
759.5 724.5 m 128,-1,1
 713 775 713 775 713 855.5 c 128,-1,2
 713 936 713 936 737 1007.5 c 128,-1,3
 761 1079 761 1079 804 1138 c 128,-1,4
 847 1197 847 1197 914.5 1234 c 128,-1,5
 982 1271 982 1271 1062 1271 c 0,6,7
 1186 1271 1186 1271 1272.5 1176.5 c 128,-1,8
 1359 1082 1359 1082 1359 902 c 0,9,10
 1359 708 1359 708 1268 492 c 0,11,12
 1224 390 1224 390 1158 297.5 c 128,-1,13
 1092 205 1092 205 1012.5 134.5 c 128,-1,14
 933 64 933 64 831.5 22.5 c 128,-1,15
 730 -19 730 -19 629 -19 c 128,-1,16
 528 -19 528 -19 456 15.5 c 128,-1,17
 384 50 384 50 340 110 c 0,18,19
 250 232 250 232 250 423 c 0,20,21
 250 656 250 656 370 882 c 0,22,23
 500 1129 500 1129 704 1259 c 0,24,25
 815 1330 815 1330 940 1357 c 1,26,-1
 951 1321 l 1,27,28
 845 1294 845 1294 756 1205 c 128,-1,29
 667 1116 667 1116 612 995.5 c 128,-1,30
 557 875 557 875 527 740.5 c 128,-1,31
 497 606 497 606 497 478 c 0,32,33
 497 306 497 306 551 196 c 128,-1,34
 605 86 605 86 706 86 c 0,35,36
 794 86 794 86 875.5 166 c 128,-1,37
 957 246 957 246 1012 367 c 128,-1,38
 1067 488 1067 488 1100 627 c 128,-1,39
 1133 766 1133 766 1133 890 c 128,-1,40
 1133 1014 1133 1014 1079 1087.5 c 128,-1,41
 1025 1161 1025 1161 958.5 1161 c 128,-1,42
 892 1161 892 1161 848 1102 c 128,-1,43
 804 1043 804 1043 804 934 c 0,44,45
 804 853 804 853 841.5 798.5 c 128,-1,46
 879 744 879 744 946 744 c 0,47,48
 976 744 976 744 1008 755 c 1,49,-1
 1022 730 l 1,50,51
 996 704 996 704 955 689 c 128,-1,52
 914 674 914 674 876 674 c 0,53,0
 806 674 806 674 759.5 724.5 c 128,-1,1
851 1501 m 1,54,-1
 944 1597 l 1,55,56
 1015 1549 1015 1549 1044 1497 c 1,57,58
 1018 1450 1018 1450 949 1392 c 1,59,60
 868 1458 868 1458 851 1501 c 1,54,-1
1125 1501 m 1,61,-1
 1218 1597 l 1,62,63
 1288 1551 1288 1551 1318 1497 c 1,64,65
 1291 1449 1291 1449 1224 1392 c 1,66,67
 1144 1456 1144 1456 1125 1501 c 1,61,-1
EndSplineSet
EndChar

StartChar: multiply
Encoding: 215 215 152
Width: 1065
GlyphClass: 2
Flags: W
LayerCount: 2
Fore
SplineSet
799 603 m 1,0,-1
 1034 318 l 1,1,-1
 928 228 l 1,2,-1
 692 513 l 1,3,-1
 360 230 l 1,4,-1
 281 318 l 1,5,-1
 617 604 l 1,6,-1
 382 889 l 1,7,-1
 488 980 l 1,8,-1
 724 694 l 1,9,-1
 1060 981 l 1,10,-1
 1132 887 l 1,11,-1
 799 603 l 1,0,-1
EndSplineSet
EndChar

StartChar: Oslash
Encoding: 216 216 153
Width: 1303
GlyphClass: 2
Flags: W
LayerCount: 2
Fore
SplineSet
1248 492 m 0,0,1
 1205 390 1205 390 1139 297.5 c 128,-1,2
 1073 205 1073 205 993.5 134.5 c 128,-1,3
 914 64 914 64 812.5 22.5 c 128,-1,4
 711 -19 711 -19 602 -19 c 2,5,-1
 598 -19 l 1,6,7
 565 -102 565 -102 513 -244 c 1,8,-1
 434 -140 l 1,9,10
 448 -102 448 -102 487 -3 c 1,11,12
 402 21 402 21 344 84 c 0,13,14
 231 205 231 205 231 423 c 0,15,16
 231 556 231 556 265 682.5 c 128,-1,17
 299 809 299 809 356.5 910.5 c 128,-1,18
 414 1012 414 1012 490.5 1097.5 c 128,-1,19
 567 1183 567 1183 652 1240 c 1,20,21
 830 1362 830 1362 994 1362 c 2,22,-1
 999 1362 l 1,23,24
 1044 1515 1044 1515 1047 1528 c 1,25,-1
 1141 1433 l 1,26,27
 1129 1393 1129 1393 1112 1342 c 1,28,29
 1218 1303 1218 1303 1279 1193.5 c 128,-1,30
 1340 1084 1340 1084 1340 896 c 128,-1,31
 1340 708 1340 708 1248 492 c 0,0,1
478 478 m 0,32,33
 478 264 478 264 553 160 c 1,34,35
 603 280 603 280 642 379 c 128,-1,36
 681 478 681 478 723.5 584.5 c 128,-1,37
 766 691 766 691 787 748.5 c 128,-1,38
 808 806 808 806 842 898 c 0,39,40
 903 1061 903 1061 958 1232 c 1,41,42
 937 1238 937 1238 915 1238 c 0,43,44
 844 1238 844 1238 767.5 1182.5 c 128,-1,45
 691 1127 691 1127 626.5 1031 c 128,-1,46
 562 935 562 935 520 788.5 c 128,-1,47
 478 642 478 642 478 478 c 0,32,33
1114 887 m 0,48,49
 1114 1067 1114 1067 1052 1160 c 1,50,51
 973 930 973 930 891.5 723.5 c 128,-1,52
 810 517 810 517 740.5 342.5 c 128,-1,53
 671 168 671 168 641 92 c 1,54,55
 662 86 662 86 687 86 c 0,56,57
 775 86 775 86 856.5 166 c 128,-1,58
 938 246 938 246 993 367 c 128,-1,59
 1048 488 1048 488 1081 627 c 128,-1,60
 1114 766 1114 766 1114 887 c 0,48,49
EndSplineSet
EndChar

StartChar: Ugrave
Encoding: 217 217 154
Width: 1425
GlyphClass: 2
Flags: W
LayerCount: 2
Fore
SplineSet
1364.5 532 m 128,-1,1
 1324 363 1324 363 1311 310.5 c 128,-1,2
 1298 258 1298 258 1298 212.5 c 128,-1,3
 1298 167 1298 167 1325 141 c 128,-1,4
 1352 115 1352 115 1405 115 c 128,-1,5
 1458 115 1458 115 1544 169 c 1,6,-1
 1564 138 l 1,7,8
 1398 -18 1398 -18 1261 -18 c 0,9,10
 1183 -18 1183 -18 1139.5 32.5 c 128,-1,11
 1096 83 1096 83 1096 167.5 c 128,-1,12
 1096 252 1096 252 1139 403 c 1,13,-1
 1130 411 l 1,14,15
 1046 234 1046 234 912 108 c 128,-1,16
 778 -18 778 -18 647 -18 c 0,17,18
 551 -18 551 -18 504 51 c 128,-1,19
 457 120 457 120 457 226 c 128,-1,20
 457 332 457 332 490 458 c 0,21,22
 588 841 588 841 635.5 997 c 128,-1,23
 683 1153 683 1153 732 1221 c 1,24,-1
 614 1221 l 2,25,26
 521 1221 521 1221 448 1159 c 128,-1,27
 375 1097 375 1097 336.5 996 c 128,-1,28
 298 895 298 895 298 775 c 1,29,30
 222 721 222 721 111 721 c 1,31,32
 111 988 111 988 293.5 1152 c 128,-1,33
 476 1316 476 1316 771 1316 c 2,34,-1
 985 1316 l 1,35,-1
 990 1291 l 1,36,37
 968 1277 968 1277 938 1240.5 c 128,-1,38
 908 1204 908 1204 892 1156 c 0,39,40
 681 525 681 525 681 274 c 0,41,42
 681 204 681 204 700.5 168.5 c 128,-1,43
 720 133 720 133 773 133 c 128,-1,44
 826 133 826 133 893.5 187.5 c 128,-1,45
 961 242 961 242 1016.5 324.5 c 128,-1,46
 1072 407 1072 407 1116.5 499 c 128,-1,47
 1161 591 1161 591 1183 671 c 2,48,-1
 1319 1157 l 2,49,50
 1350 1268 1350 1268 1454 1291 c 0,51,52
 1509 1303 1509 1303 1604 1303 c 1,53,-1
 1611 1284 l 1,54,55
 1565 1245 1565 1245 1536.5 1165.5 c 128,-1,56
 1508 1086 1508 1086 1476.5 972.5 c 128,-1,57
 1445 859 1445 859 1425 780 c 128,-1,0
 1405 701 1405 701 1364.5 532 c 128,-1,1
988 1664 m 1,58,-1
 1129 1688 l 1,59,60
 1155 1611 1155 1611 1212 1539.5 c 128,-1,61
 1269 1468 1269 1468 1335 1431 c 1,62,-1
 1302 1399 l 1,63,64
 1195 1440 1195 1440 1107.5 1509.5 c 128,-1,65
 1020 1579 1020 1579 988 1664 c 1,58,-1
EndSplineSet
EndChar

StartChar: Uacute
Encoding: 218 218 155
Width: 1425
GlyphClass: 2
Flags: W
LayerCount: 2
Fore
SplineSet
1364.5 532 m 128,-1,1
 1324 363 1324 363 1311 310.5 c 128,-1,2
 1298 258 1298 258 1298 212.5 c 128,-1,3
 1298 167 1298 167 1325 141 c 128,-1,4
 1352 115 1352 115 1405 115 c 128,-1,5
 1458 115 1458 115 1544 169 c 1,6,-1
 1564 138 l 1,7,8
 1398 -18 1398 -18 1261 -18 c 0,9,10
 1183 -18 1183 -18 1139.5 32.5 c 128,-1,11
 1096 83 1096 83 1096 167.5 c 128,-1,12
 1096 252 1096 252 1139 403 c 1,13,-1
 1130 411 l 1,14,15
 1046 234 1046 234 912 108 c 128,-1,16
 778 -18 778 -18 647 -18 c 0,17,18
 551 -18 551 -18 504 51 c 128,-1,19
 457 120 457 120 457 226 c 128,-1,20
 457 332 457 332 490 458 c 0,21,22
 588 841 588 841 635.5 997 c 128,-1,23
 683 1153 683 1153 732 1221 c 1,24,-1
 614 1221 l 2,25,26
 521 1221 521 1221 448 1159 c 128,-1,27
 375 1097 375 1097 336.5 996 c 128,-1,28
 298 895 298 895 298 775 c 1,29,30
 222 721 222 721 111 721 c 1,31,32
 111 988 111 988 293.5 1152 c 128,-1,33
 476 1316 476 1316 771 1316 c 2,34,-1
 985 1316 l 1,35,-1
 990 1291 l 1,36,37
 968 1277 968 1277 938 1240.5 c 128,-1,38
 908 1204 908 1204 892 1156 c 0,39,40
 681 525 681 525 681 274 c 0,41,42
 681 204 681 204 700.5 168.5 c 128,-1,43
 720 133 720 133 773 133 c 128,-1,44
 826 133 826 133 893.5 187.5 c 128,-1,45
 961 242 961 242 1016.5 324.5 c 128,-1,46
 1072 407 1072 407 1116.5 499 c 128,-1,47
 1161 591 1161 591 1183 671 c 2,48,-1
 1319 1157 l 2,49,50
 1350 1268 1350 1268 1454 1291 c 0,51,52
 1509 1303 1509 1303 1604 1303 c 1,53,-1
 1611 1284 l 1,54,55
 1565 1245 1565 1245 1536.5 1165.5 c 128,-1,56
 1508 1086 1508 1086 1476.5 972.5 c 128,-1,57
 1445 859 1445 859 1425 780 c 128,-1,0
 1405 701 1405 701 1364.5 532 c 128,-1,1
1319 1688 m 1,58,-1
 1455 1664 l 1,59,60
 1423 1574 1423 1574 1334.5 1505.5 c 128,-1,61
 1246 1437 1246 1437 1138 1396 c 1,62,-1
 1105 1428 l 1,63,64
 1259 1526 1259 1526 1319 1688 c 1,58,-1
EndSplineSet
EndChar

StartChar: Ucircumflex
Encoding: 219 219 156
Width: 1425
GlyphClass: 2
Flags: W
LayerCount: 2
Fore
SplineSet
1364.5 532 m 128,-1,1
 1324 363 1324 363 1311 310.5 c 128,-1,2
 1298 258 1298 258 1298 212.5 c 128,-1,3
 1298 167 1298 167 1325 141 c 128,-1,4
 1352 115 1352 115 1405 115 c 128,-1,5
 1458 115 1458 115 1544 169 c 1,6,-1
 1564 138 l 1,7,8
 1398 -18 1398 -18 1261 -18 c 0,9,10
 1183 -18 1183 -18 1139.5 32.5 c 128,-1,11
 1096 83 1096 83 1096 167.5 c 128,-1,12
 1096 252 1096 252 1139 403 c 1,13,-1
 1130 411 l 1,14,15
 1046 234 1046 234 912 108 c 128,-1,16
 778 -18 778 -18 647 -18 c 0,17,18
 551 -18 551 -18 504 51 c 128,-1,19
 457 120 457 120 457 226 c 128,-1,20
 457 332 457 332 490 458 c 0,21,22
 588 841 588 841 635.5 997 c 128,-1,23
 683 1153 683 1153 732 1221 c 1,24,-1
 614 1221 l 2,25,26
 521 1221 521 1221 448 1159 c 128,-1,27
 375 1097 375 1097 336.5 996 c 128,-1,28
 298 895 298 895 298 775 c 1,29,30
 222 721 222 721 111 721 c 1,31,32
 111 988 111 988 293.5 1152 c 128,-1,33
 476 1316 476 1316 771 1316 c 2,34,-1
 985 1316 l 1,35,-1
 990 1291 l 1,36,37
 968 1277 968 1277 938 1240.5 c 128,-1,38
 908 1204 908 1204 892 1156 c 0,39,40
 681 525 681 525 681 274 c 0,41,42
 681 204 681 204 700.5 168.5 c 128,-1,43
 720 133 720 133 773 133 c 128,-1,44
 826 133 826 133 893.5 187.5 c 128,-1,45
 961 242 961 242 1016.5 324.5 c 128,-1,46
 1072 407 1072 407 1116.5 499 c 128,-1,47
 1161 591 1161 591 1183 671 c 2,48,-1
 1319 1157 l 2,49,50
 1350 1268 1350 1268 1454 1291 c 0,51,52
 1509 1303 1509 1303 1604 1303 c 1,53,-1
 1611 1284 l 1,54,55
 1565 1245 1565 1245 1536.5 1165.5 c 128,-1,56
 1508 1086 1508 1086 1476.5 972.5 c 128,-1,57
 1445 859 1445 859 1425 780 c 128,-1,0
 1405 701 1405 701 1364.5 532 c 128,-1,1
1238 1674 m 2,58,59
 1249 1677 1249 1677 1282 1677 c 128,-1,60
 1315 1677 1315 1677 1347 1661 c 1,61,62
 1347 1548 1347 1548 1460 1450 c 1,63,-1
 1429 1415 l 1,64,65
 1308 1465 1308 1465 1258 1541 c 1,66,67
 1183 1463 1183 1463 1038 1415 c 1,68,-1
 1008 1451 l 1,69,70
 1178 1542 1178 1542 1223 1669 c 1,71,-1
 1238 1674 l 2,58,59
EndSplineSet
EndChar

StartChar: Udieresis
Encoding: 220 220 157
Width: 1425
GlyphClass: 2
Flags: W
LayerCount: 2
Fore
SplineSet
1364.5 532 m 128,-1,1
 1324 363 1324 363 1311 310.5 c 128,-1,2
 1298 258 1298 258 1298 212.5 c 128,-1,3
 1298 167 1298 167 1325 141 c 128,-1,4
 1352 115 1352 115 1405 115 c 128,-1,5
 1458 115 1458 115 1544 169 c 1,6,-1
 1564 138 l 1,7,8
 1398 -18 1398 -18 1261 -18 c 0,9,10
 1183 -18 1183 -18 1139.5 32.5 c 128,-1,11
 1096 83 1096 83 1096 167.5 c 128,-1,12
 1096 252 1096 252 1139 403 c 1,13,-1
 1130 411 l 1,14,15
 1046 234 1046 234 912 108 c 128,-1,16
 778 -18 778 -18 647 -18 c 0,17,18
 551 -18 551 -18 504 51 c 128,-1,19
 457 120 457 120 457 226 c 128,-1,20
 457 332 457 332 490 458 c 0,21,22
 588 841 588 841 635.5 997 c 128,-1,23
 683 1153 683 1153 732 1221 c 1,24,-1
 614 1221 l 2,25,26
 521 1221 521 1221 448 1159 c 128,-1,27
 375 1097 375 1097 336.5 996 c 128,-1,28
 298 895 298 895 298 775 c 1,29,30
 222 721 222 721 111 721 c 1,31,32
 111 988 111 988 293.5 1152 c 128,-1,33
 476 1316 476 1316 771 1316 c 2,34,-1
 985 1316 l 1,35,-1
 990 1291 l 1,36,37
 968 1277 968 1277 938 1240.5 c 128,-1,38
 908 1204 908 1204 892 1156 c 0,39,40
 681 525 681 525 681 274 c 0,41,42
 681 204 681 204 700.5 168.5 c 128,-1,43
 720 133 720 133 773 133 c 128,-1,44
 826 133 826 133 893.5 187.5 c 128,-1,45
 961 242 961 242 1016.5 324.5 c 128,-1,46
 1072 407 1072 407 1116.5 499 c 128,-1,47
 1161 591 1161 591 1183 671 c 2,48,-1
 1319 1157 l 2,49,50
 1350 1268 1350 1268 1454 1291 c 0,51,52
 1509 1303 1509 1303 1604 1303 c 1,53,-1
 1611 1284 l 1,54,55
 1565 1245 1565 1245 1536.5 1165.5 c 128,-1,56
 1508 1086 1508 1086 1476.5 972.5 c 128,-1,57
 1445 859 1445 859 1425 780 c 128,-1,0
 1405 701 1405 701 1364.5 532 c 128,-1,1
1013 1501 m 1,58,-1
 1106 1597 l 1,59,60
 1177 1549 1177 1549 1206 1497 c 1,61,62
 1180 1450 1180 1450 1111 1392 c 1,63,64
 1030 1458 1030 1458 1013 1501 c 1,58,-1
1287 1501 m 1,65,-1
 1380 1597 l 1,66,67
 1450 1551 1450 1551 1480 1497 c 1,68,69
 1453 1449 1453 1449 1386 1392 c 1,70,71
 1306 1456 1306 1456 1287 1501 c 1,65,-1
EndSplineSet
EndChar

StartChar: Yacute
Encoding: 221 221 158
Width: 1106
GlyphClass: 2
Flags: W
LayerCount: 2
Fore
SplineSet
667 1322 m 0,0,1
 759 1322 759 1322 827.5 1286 c 128,-1,2
 896 1250 896 1250 936 1184 c 1,3,4
 1015 1058 1015 1058 1015 846 c 0,5,6
 1015 685 1015 685 994 529 c 1,7,-1
 997 528 l 1,8,9
 1302 894 1302 894 1302 1144 c 0,10,11
 1302 1178 1302 1178 1282 1191 c 128,-1,12
 1262 1204 1262 1204 1209 1204 c 0,13,14
 1198 1204 1198 1204 1191 1211.5 c 128,-1,15
 1184 1219 1184 1219 1184 1229 c 0,16,17
 1184 1257 1184 1257 1220 1292.5 c 128,-1,18
 1256 1328 1256 1328 1284 1328 c 0,19,20
 1366 1328 1366 1328 1418.5 1306.5 c 128,-1,21
 1471 1285 1471 1285 1471 1237 c 0,22,23
 1471 1060 1471 1060 1324 809.5 c 128,-1,24
 1177 559 1177 559 958 328 c 1,25,26
 888 25 888 25 740 -170 c 0,27,28
 666 -266 666 -266 569.5 -319.5 c 128,-1,29
 473 -373 473 -373 362 -373 c 0,30,31
 221 -373 221 -373 62 -284 c 1,32,33
 62 -238 62 -238 88 -190.5 c 128,-1,34
 114 -143 114 -143 140.5 -143 c 128,-1,35
 167 -143 167 -143 219.5 -177.5 c 128,-1,36
 272 -212 272 -212 331 -246.5 c 128,-1,37
 390 -281 390 -281 432 -281 c 0,38,39
 518 -281 518 -281 605 -116 c 128,-1,40
 692 49 692 49 745 285.5 c 128,-1,41
 798 522 798 522 798 730 c 0,42,43
 798 941 798 941 740 1072 c 0,44,45
 711 1139 711 1139 661.5 1176.5 c 128,-1,46
 612 1214 612 1214 548 1214 c 128,-1,47
 484 1214 484 1214 437 1181.5 c 128,-1,48
 390 1149 390 1149 362 1094 c 0,49,50
 307 983 307 983 307 836 c 1,51,52
 248 803 248 803 132 803 c 1,53,54
 132 1031 132 1031 282 1176.5 c 128,-1,55
 432 1322 432 1322 667 1322 c 0,0,1
1311 1688 m 1,56,-1
 1447 1664 l 1,57,58
 1415 1574 1415 1574 1326.5 1505.5 c 128,-1,59
 1238 1437 1238 1437 1130 1396 c 1,60,-1
 1097 1428 l 1,61,62
 1251 1526 1251 1526 1311 1688 c 1,56,-1
EndSplineSet
EndChar

